<?xml version="1.0" encoding="utf-8"?>
<!-- Generator: Adobe Illustrator 19.2.1, SVG Export Plug-In . SVG Version: 6.00 Build 0)  -->
<svg version="1.1"
	 id="Layer_1" image-rendering="optimizeQuality" text-rendering="geometricPrecision" shape-rendering="geometricPrecision"
	 xmlns="http://www.w3.org/2000/svg" xmlns:xlink="http://www.w3.org/1999/xlink" x="0px" y="0px" viewBox="0 0 1024 1024"
	 style="enable-background:new 0 0 1024 1024;" xml:space="preserve">
<style type="text/css">
	.st0{fill:#000000;}
</style>
<path class="st0" d="M512,64c247.4,0,448,200.6,448,448S759.4,960,512,960S64,759.4,64,512S264.6,64,512,64z M224,416
	c-17.6,0-32,14.4-32,32v128c0,17.6,14.4,32,32,32h192v192c0,17.6,14.4,32,32,32h128c17.6,0,32-14.4,32-32V608h192
	c17.6,0,32-14.4,32-32V448c0-17.6-14.4-32-32-32H608V224c0-17.6-14.4-32-32-32H448c-17.6,0-32,14.4-32,32v192H224z"/>
</svg>
