<svg xmlns="http://www.w3.org/2000/svg" width="1024" height="1024" viewBox="0 0 1024 1024">
  <title>alpha</title>
  <g id="alpha">
    <path d="M843.35,809.06q-31.08,7.62-55.67,7.63-90.23,0-121.87-171.69h-2.34Q576.74,826.08,420.88,826.06q-109,0-174.61-84.08T180.65,529.58q0-146.48,75.58-239.06t204.5-92.58q73.83,0,131.83,44t87.91,123.63h2.34L732.6,212H833.38L720.3,506.14q19.92,128.32,42.19,174.31t57.42,46a83.06,83.06,0,0,0,23.44-2.94ZM639.45,507.31q-22.27-111.33-68-170.5T461.32,277.62q-83.2,0-132.72,70.91T279.09,523.72Q279.09,616.3,321,679t112.8,62.69q62.11,0,112.8-53T631.24,532.5Z"/>
  </g>
</svg>
