<?xml version="1.0" encoding="utf-8"?>
<!-- Generator: Adobe Illustrator 18.0.0, SVG Export Plug-In . SVG Version: 6.00 Build 0)  -->
<!DOCTYPE svg PUBLIC "-//W3C//DTD SVG 1.1//EN" "http://www.w3.org/Graphics/SVG/1.1/DTD/svg11.dtd">
<svg version="1.1"
	 id="Layer_1" shape-rendering="geometricPrecision" text-rendering="geometricPrecision" image-rendering="optimizeQuality"
	 xmlns="http://www.w3.org/2000/svg" xmlns:xlink="http://www.w3.org/1999/xlink" x="0px" y="0px" width="1024px" height="1024px"
	 viewBox="0 0 1024 1024" enable-background="new 0 0 1024 1024" xml:space="preserve">
<path d="M512,64C264.6,64,64,264.6,64,512s200.6,448,448,448s448-200.6,448-448S759.4,64,512,64z M512,896
	c-212.1,0-384-171.9-384-384s171.9-384,384-384s384,171.9,384,384S724.1,896,512,896z"/>
<path id="android-os-icon" d="M288.6,402.9c-21.1,0-38.1,17.1-38.1,38.1v159.7c0,21.1,17.1,38.2,38.1,38.2c21.1,0,38.2-17,38.1-38.2
	V441C326.7,420,309.6,402.9,288.6,402.9 M596.2,259.5l26.6-48.6c1.4-2.5,0.5-5.8-2.1-7.2s-5.8-0.4-7.2,2.1l-26.9,49.1
	c-47.3-21-102.6-20.8-149.3-0.1l-26.9-49c-1.4-2.6-4.6-3.5-7.2-2.1s-3.5,4.6-2.1,7.2l26.6,48.6c-52.3,27-86.3,78.4-86.3,137.4h341
	C682.5,337.8,648.4,286.5,596.2,259.5 M433.8,334.6c-7.9,0-14.4-6.4-14.4-14.4c0-7.9,6.4-14.4,14.4-14.4s14.4,6.5,14.4,14.4
	C448.2,328.1,441.7,334.6,433.8,334.6 M590.2,334.6c-7.9,0-14.4-6.4-14.4-14.4c0-7.9,6.5-14.4,14.4-14.4s14.4,6.5,14.4,14.4
	C604.6,328.1,598.1,334.6,590.2,334.6 M341.5,410.1l0.1,247.5c0,22.5,18.2,40.7,40.7,40.7H410v84.5c0,21,17.1,38.1,38.1,38.1
	c21.1,0,38.2-17.1,38.2-38.2v-84.5h51.5v84.5c0,21,17.1,38.2,38.1,38.1c21.1,0,38.1-17.1,38.1-38.2v-84.5h27.8
	c22.5,0,40.7-18.2,40.7-40.7V409.9L341.5,410.1z M773.5,441c0-21.1-17.1-38.1-38.1-38.1c-21.1,0-38.1,17.1-38.1,38.2v159.7
	c0,21.1,17.1,38.1,38.1,38.1c21.1,0,38.1-17,38.1-38.2V441z"/>
</svg>
