<?xml version="1.0" encoding="utf-8"?>
<!-- Generator: Adobe Illustrator 18.0.0, SVG Export Plug-In . SVG Version: 6.00 Build 0)  -->
<!DOCTYPE svg PUBLIC "-//W3C//DTD SVG 1.1//EN" "http://www.w3.org/Graphics/SVG/1.1/DTD/svg11.dtd">
<svg version="1.1"
	 id="Layer_1" shape-rendering="geometricPrecision" text-rendering="geometricPrecision" image-rendering="optimizeQuality"
	 xmlns="http://www.w3.org/2000/svg" xmlns:xlink="http://www.w3.org/1999/xlink" x="0px" y="0px" width="1024px" height="1024px"
	 viewBox="0 0 1024 1024" enable-background="new 0 0 1024 1024" xml:space="preserve">
<path d="M512,64C264.6,64,64,264.6,64,512s200.6,448,448,448s448-200.6,448-448S759.4,64,512,64z M512,896
	c-212.1,0-384-171.9-384-384s171.9-384,384-384s384,171.9,384,384S724.1,896,512,896z"/>
<path id="apple-os-icon" d="M763.7,656.4c-20.2,58.7-75,162.7-137.4,163.8c-41.4,0.8-54.7-24.5-102-24.5S462.1,819.5,423,821
	c-66.2,2.5-162.6-150.1-162.6-283.1c0-122.2,79.3-182.8,153.7-184c39.9-0.7,77.6,26.9,102,26.9s70.2-33.2,118.3-28.3
	c20.1,0.8,76.7,8.1,113,61.2C651.2,476.5,660.3,608,763.7,656.4z M635.1,203c-72.8,2.9-132.2,79.3-123.8,142.4
	C578.5,350.6,643.1,275.3,635.1,203z"/>
</svg>
