<svg xmlns="http://www.w3.org/2000/svg" width="1024" height="1024" viewBox="0 0 1024 1024"><title>arcsin</title><g id="arctan"><path d="M794.66,391.77H666.46V340h128.2Z" style="stroke:#000;stroke-miterlimit:10;stroke-width:10px"/><path d="M998,150.37V494H924.18V233.8A88.29,88.29,0,0,1,909.76,244a148.88,148.88,0,0,1-17.7,8.67,157.76,157.76,0,0,1-19.45,6.56,141.83,141.83,0,0,1-19.92,3.87V200.76a307.81,307.81,0,0,0,54.38-21.56,309.44,309.44,0,0,0,46.17-28.83Z" style="stroke:#000;stroke-miterlimit:10;stroke-width:10px"/></g><g id="arcsin"><path d="M37.13,845.72V766.35A208.36,208.36,0,0,0,85.34,788q24,7.14,45.42,7.13,26,0,41.08-7.13t15-21.7a20.1,20.1,0,0,0-6.82-15.5A63.47,63.47,0,0,0,162.54,740a198.85,198.85,0,0,0-23.41-8.37q-12.72-3.72-24.49-8.37A234.28,234.28,0,0,1,81.31,707.9a96.21,96.21,0,0,1-24.18-19.07,74.93,74.93,0,0,1-14.88-25.11q-5.12-14.26-5.12-33.8,0-26.66,11.63-45.89a95,95,0,0,1,31-31.47,141.74,141.74,0,0,1,44.34-18A231.27,231.27,0,0,1,176,528.84a288.27,288.27,0,0,1,42.79,3.26,319.85,319.85,0,0,1,42.79,9.46v75.65a154.77,154.77,0,0,0-39.84-16.28,168.22,168.22,0,0,0-41.7-5.43,92.61,92.61,0,0,0-18.14,1.71,59.79,59.79,0,0,0-15,5,27.62,27.62,0,0,0-10.23,8.37,19.27,19.27,0,0,0-3.72,11.63,21.48,21.48,0,0,0,5.58,14.88,48.32,48.32,0,0,0,14.57,10.7,143.1,143.1,0,0,0,20,8.06q11,3.57,21.86,7.29A284.6,284.6,0,0,1,230.29,678a113.22,113.22,0,0,1,27.13,18.91,74.33,74.33,0,0,1,17.36,25.42q6,14.58,6,34.73,0,28.22-12.25,48.21A98.11,98.11,0,0,1,236,837.81q-20.31,12.56-46.82,18.29a259.67,259.67,0,0,1-55,5.74Q81.77,861.84,37.13,845.72Z"/><path d="M367.82,486.36q-24.81,0-40.62-14.73t-15.81-36.12q0-22,15.81-36t40.62-14q25.11,0,40.77,14t15.66,36q0,22.32-15.66,36.59T367.82,486.36Zm48.37,367.73h-98V536.59h98Z"/><path d="M786.27,854.09H688.6V677.67q0-73.79-52.71-73.79-25.43,0-41.86,19.53T577.6,673V854.09h-98V536.59h98v50.23h1.24q35-58,102-58,105.42,0,105.42,130.85Z"/></g></svg>