<svg xmlns="http://www.w3.org/2000/svg" width="1024" height="1024" viewBox="0 0 1024 1024">
  <title>arcsin</title>
  <g id="arcsin">
    <g>
      <path d="M213,824c-33.32,0-62.69-6.56-87.28-19.49L123,803.11V735.6l8,5.89c26.69,19.72,56.46,29.72,88.5,29.72,41.7,0,62-13,62-39.65,0-7.45-1.66-13.79-4.93-18.83a52.55,52.55,0,0,0-14.17-14.28,115.26,115.26,0,0,0-22-11.72c-8.81-3.62-18.32-7.42-28.27-11.28a371.22,371.22,0,0,1-37.6-17.15,117.3,117.3,0,0,1-27.84-20.1,76.76,76.76,0,0,1-17.23-26c-3.83-9.63-5.78-21-5.78-33.78,0-15.73,3.68-29.89,10.93-42.09a96.11,96.11,0,0,1,28.77-30.41,132.83,132.83,0,0,1,40.43-18.21,178.55,178.55,0,0,1,46.42-6.06c28,0,53.55,4.94,75.8,14.68l3,1.31v64l-7.74-5.07c-22.43-14.68-48.63-22.13-77.88-22.13A89.64,89.64,0,0,0,219,537.47a58.33,58.33,0,0,0-18.14,8.4,37.48,37.48,0,0,0-11.24,12.44,32,32,0,0,0-3.88,15.74c0,7.4,1.31,13.59,3.9,18.41a41,41,0,0,0,11.77,13.25,96,96,0,0,0,20,11.18c8.09,3.44,17.54,7.29,28.09,11.42a400.72,400.72,0,0,1,38.27,16.79,135.55,135.55,0,0,1,29.62,20,80.49,80.49,0,0,1,19.33,26.28c4.52,9.92,6.81,21.78,6.81,35.25,0,16.55-3.73,31.19-11.1,43.49a94.37,94.37,0,0,1-29.29,30.44,132.68,132.68,0,0,1-41.56,17.74A203.44,203.44,0,0,1,213,824Z"/>
      <path d="M128,800.09V745.52q41.55,30.7,91.47,30.7,67,0,67-44.65,0-12.71-5.74-21.55a57.24,57.24,0,0,0-15.5-15.66,119.7,119.7,0,0,0-22.94-12.25q-13.18-5.42-28.37-11.32a364.27,364.27,0,0,1-37.05-16.9,111.82,111.82,0,0,1-26.67-19.22,71.46,71.46,0,0,1-16.12-24.34q-5.43-13.64-5.43-31.94,0-22.32,10.23-39.53A90.71,90.71,0,0,1,166.19,510a127.26,127.26,0,0,1,38.91-17.52,172.75,172.75,0,0,1,45.11-5.89q41.23,0,73.79,14.26v51.47q-35-22.94-80.62-22.94a94.19,94.19,0,0,0-25.73,3.26A63,63,0,0,0,198,541.81a42.24,42.24,0,0,0-12.71,14.11,37.15,37.15,0,0,0-4.5,18.14q0,12.4,4.5,20.77a45.69,45.69,0,0,0,13.18,14.88,100.54,100.54,0,0,0,21.08,11.78q12.4,5.28,28.22,11.47a394.17,394.17,0,0,1,37.83,16.59,130,130,0,0,1,28.53,19.22,75.17,75.17,0,0,1,18.14,24.65q6.35,14,6.36,33.18,0,23.57-10.39,40.93a89,89,0,0,1-27.75,28.83,127.11,127.11,0,0,1-40,17.05A197.51,197.51,0,0,1,213,819Q164,819,128,800.09Z"/>
      <path d="M392.66,816.56V489.06h60.85v327.5Zm31-398.12A37.19,37.19,0,0,1,397,407.73c-7.39-7.15-11.13-16.28-11.13-27.16s3.74-20,11.11-27.28a36.91,36.91,0,0,1,26.76-10.89,37.83,37.83,0,0,1,27.2,10.86c7.49,7.26,11.29,16.45,11.29,27.31a36.39,36.39,0,0,1-11.26,26.82A37.54,37.54,0,0,1,423.71,418.44Z"/>
      <path d="M423.71,413.44a32.21,32.21,0,0,1-23.25-9.3q-9.61-9.3-9.61-23.56t9.61-23.72a31.94,31.94,0,0,1,23.25-9.46,32.85,32.85,0,0,1,23.72,9.46q9.77,9.46,9.77,23.72a31.42,31.42,0,0,1-9.77,23.25A32.55,32.55,0,0,1,423.71,413.44Zm24.8,398.12H397.66V494.06h50.85Z"/>
      <path d="M740.1,816.56V630.48c0-64.65-22.5-96.08-68.79-96.08-24.13,0-43.54,8.82-59.32,27s-23.73,41.35-23.73,69.12V816.56H527.4V489.06h60.85v43c24.42-33.46,58.13-50.39,100.42-50.39,36.13,0,64.24,11.93,83.55,35.47,19.06,23.25,28.73,57,28.73,100.37v199.1Z"/>
      <path d="M796,811.56H745.1V630.48q0-101.08-73.79-101.08-38.14,0-63.1,28.68t-25,72.4V811.56H532.4V494.06h50.85v52.71h1.24q36-60.15,104.18-60.15,52.09,0,79.69,33.64t27.6,97.2Z"/>
    </g>
    <g>
      <rect x="691.99" y="291.42" width="126.56" height="40.23" style="stroke: #000;stroke-miterlimit: 10;stroke-width: 10px"/>
      <path d="M814,326.66H696.57V296.42H814Z" style="stroke: #000;stroke-miterlimit: 10;stroke-width: 10px"/>
      <path d="M935.49,450.25V165.55q-2.2,1.76-4.79,3.66a197,197,0,0,1-18,11.64c-6.62,3.8-13.69,7.42-21,10.74a146.61,146.61,0,0,1-21.83,8l-5.7,1.55V152l3.36-1a190.78,190.78,0,0,0,24.06-9.28c8.5-3.91,17-8.33,25.19-13.15s16.09-9.95,23.4-15.23A187.68,187.68,0,0,0,959,97.88l1.29-1.22h19.63V450.25Z" style="stroke: #000;stroke-miterlimit: 10;stroke-width: 10px"/>
      <path d="M975.33,445.25H940.07V154.86a83.12,83.12,0,0,1-11.93,10.2,191.59,191.59,0,0,1-17.63,11.37Q900.73,182,889.87,187a141.58,141.58,0,0,1-21.18,7.73V155.8a194.09,194.09,0,0,0,24.62-9.49,288.43,288.43,0,0,0,25.58-13.36q12.58-7.38,23.76-15.47A191.47,191.47,0,0,0,962,101.66h13.33Z" style="stroke: #000;stroke-miterlimit: 10;stroke-width: 10px"/>
    </g>
  </g>
</svg>
