<svg xmlns="http://www.w3.org/2000/svg" width="1024" height="1024" viewBox="0 0 1024 1024">
  <title>arctan</title>
  <g id="arctan">
    <g>
      <path d="M199.05,823.38c-29.15,0-51.45-8.38-66.28-24.92-14.68-16.38-22.13-41-22.13-73.1V542.47H56.08V489.06h54.57V412.91l60.85-19.66v95.82h80v53.41h-80v173.9c0,20,3.29,34.32,9.76,42.46,6.2,7.8,17,11.76,32.05,11.76,11.81,0,21.68-3.12,30.16-9.53l8-6.06v56.41l-2.58,1.43C236.22,819.83,219.45,823.38,199.05,823.38Z"/>
      <path d="M246.49,808.46q-18,9.92-47.44,9.92-83.41,0-83.41-93V537.47H61.08V494.06h54.57V416.54l50.85-16.43v93.95h80v43.41h-80v178.9q0,31.94,10.85,45.58t36,13.64q19.22,0,33.18-10.54Z"/>
      <path d="M372.86,824c-32.79,0-58.93-8.9-77.68-26.47s-28.4-41.3-28.4-70.31c0-61.93,36.71-98.44,109.11-108.51L466.72,606c-1.1-48.16-20.88-71.58-60.37-71.58-36.85,0-70.61,12.75-100.33,37.89l-8.23,7V513.64l2.32-1.47c31.88-20.27,69.08-30.55,110.58-30.55,38.56,0,68,10.49,87.58,31.18s29.35,51.65,29.35,92.26v211.5H466.77V776.92C444.12,808.18,412.59,824,372.86,824Zm23-157.56c-22.66,3.18-39.87,8.79-51.15,16.66-10.52,7.34-15.85,20.93-15.85,40.39,0,14.14,4.88,25.34,14.91,34.24s23.81,13.47,40.87,13.47c24,0,43.23-8.15,58.81-24.91s23.31-38.08,23.31-63.72V656.68Z"/>
      <path d="M522.62,811.56H471.77V761.95h-1.24Q437.35,819,372.86,819q-47.44,0-74.26-25.12t-26.82-66.66q0-89,104.8-103.56l95.19-13.33q0-80.92-65.42-80.92-57.36,0-103.56,39.07V516.38q46.81-29.77,107.9-29.77,111.93,0,111.93,118.44ZM471.77,650.95l-76.58,10.54q-35.35,5-53.33,17.52t-18,44.49q0,23.25,16.59,38t44.18,14.73q37.83,0,62.48-26.51t24.65-67.13Z"/>
      <path d="M807.07,816.56V630.48c0-64.65-22.5-96.08-68.79-96.08-24.13,0-43.54,8.82-59.33,27s-23.73,41.35-23.73,69.12V816.56H594.38V489.06h60.85v43c24.42-33.46,58.13-50.39,100.42-50.39,36.13,0,64.24,11.93,83.55,35.47,19.06,23.25,28.73,57,28.73,100.37v199.1Z"/>
      <path d="M862.92,811.56H812.07V630.48q0-101.08-73.79-101.08-38.14,0-63.1,28.68t-25,72.4V811.56H599.38V494.06h50.85v52.71h1.24q36-60.15,104.18-60.15,52.09,0,79.68,33.64t27.59,97.2Z"/>
    </g>
    <g>
      <rect x="659.62" y="299.63" width="137.97" height="40.23" style="stroke: #000;stroke-miterlimit: 10;stroke-width: 10px"/>
      <path d="M792.59,334.86h-128V304.63h128Z" style="stroke: #000;stroke-miterlimit: 10;stroke-width: 10px"/>
      <path d="M925.07,458.45V173.75q-2.39,1.76-5.22,3.66A217.94,217.94,0,0,1,900.18,189c-7.21,3.8-14.92,7.42-22.91,10.74a169.37,169.37,0,0,1-23.79,8l-6.21,1.55V160.2l3.66-1a219.78,219.78,0,0,0,26.23-9.28c9.27-3.91,18.51-8.33,27.46-13.15s17.54-9.95,25.5-15.23a202.07,202.07,0,0,0,20.58-15.43l1.41-1.22h21.4V458.45Z" style="stroke: #000;stroke-miterlimit: 10;stroke-width: 10px"/>
      <path d="M968.51,453.45H930.07V163.06a89,89,0,0,1-13,10.2,211.93,211.93,0,0,1-19.22,11.37q-10.67,5.63-22.5,10.55a163.56,163.56,0,0,1-23.09,7.73V164a223.6,223.6,0,0,0,26.84-9.49q14.18-6,27.89-13.36t25.9-15.47A206.15,206.15,0,0,0,954,109.86h14.53Z" style="stroke: #000;stroke-miterlimit: 10;stroke-width: 10px"/>
    </g>
  </g>
</svg>
