<svg xmlns="http://www.w3.org/2000/svg" width="1024" height="1024" viewBox="0 0 1024 1024"><title>arctan</title><g id="arctan"><path d="M240.45,850.37Q218.75,861.84,175,861.84q-103.56,0-103.56-107.59V608.84H20V536.59H71.47V468.07l97.67-27.9v96.43h71.31v72.24H169.14V737.2q0,49.61,39.38,49.61,15.5,0,31.94-9Z"/><path d="M540.76,854.09H448.05V808.51h-1.24q-31.94,53.33-94.57,53.33-46.2,0-72.71-26.2T253,765.72q0-92.39,109.45-106.66l86.2-11.47q0-52.09-56.43-52.09-56.74,0-107.9,33.8V555.51q20.46-10.54,56-18.6T405,528.84q135.81,0,135.81,135.5Zm-92.09-129V703.71L391,711.15q-47.75,6.21-47.75,43.1,0,16.74,11.63,27.44t31.47,10.7q27.59,0,45-19.07T448.67,725.11Z"/><path d="M905.87,854.09H808.21V677.67q0-73.79-52.71-73.79-25.43,0-41.86,19.53T697.21,673V854.09h-98V536.59h98v50.23h1.24q35-58,102-58,105.41,0,105.42,130.85Z"/></g><g id="arcsin"><path d="M777,391.77H648.75V340H777Z" style="stroke:#000;stroke-miterlimit:10;stroke-width:10px"/><path d="M980.3,150.37V494H906.47V233.8A88.29,88.29,0,0,1,892.06,244a148.88,148.88,0,0,1-17.7,8.67,157.76,157.76,0,0,1-19.45,6.56A141.83,141.83,0,0,1,835,263.1V200.76a307.81,307.81,0,0,0,54.38-21.56,309.44,309.44,0,0,0,46.17-28.83Z" style="stroke:#000;stroke-miterlimit:10;stroke-width:10px"/></g></svg>