<?xml version="1.0" encoding="utf-8"?>
<!-- Generator: Adobe Illustrator 19.2.1, SVG Export Plug-In . SVG Version: 6.00 Build 0)  -->
<svg version="1.1"
	 id="Layer_1" image-rendering="optimizeQuality" shape-rendering="geometricPrecision" text-rendering="geometricPrecision"
	 xmlns="http://www.w3.org/2000/svg" xmlns:xlink="http://www.w3.org/1999/xlink" x="0px" y="0px" viewBox="0 0 1024 1024"
	 style="enable-background:new 0 0 1024 1024;" xml:space="preserve">
<title>auction_hammer icon</title>
<desc>auction_hammer icon from the IconExperience.com O-Collection. Copyright by INCORS GmbH (www.incors.com).</desc>
<path d="M640,768h256c35.3,0,64,28.8,64,64v64H576v-64C576,796.8,604.7,768,640,768z M640,736c0-17.6,14.4-32,32-32h192
	c17.6,0,32,14.4,32,32H640z M464,406.2l89.8,89.8l-44.9,44.9c-44.9,0-88.6,43.6-112.2,67.3c-67.7,67.7-89.8,134.6-179.5,224.4
	l-44.9,44.9c-24.7,24.7-65,24.7-89.8,0c-24.7-24.8-24.7-65.1,0-89.8l44.9-44.9c89.8-89.7,156.7-111.8,224.4-179.5
	c23.7-23.6,67.3-67.3,67.3-112.2L464,406.2z M576.2,114.5l6,6.1c8.2,8.2,11.2,19.3,8.2,30.6c-2.8,10.6-0.1,22.3,8.2,30.7
	c8.3,8.3,20.1,11,30.7,8.2c11.3-3,22.4,0,30.6,8.2l101.8,101.8c8.3,8.2,11.2,19.3,8.2,30.6c-2.8,10.6-0.1,22.4,8.2,30.7
	c8.4,8.3,20.1,11,30.7,8.2c11.3-3,22.4,0,30.7,8.2l6,6c24.7,24.7,24.7,65,0,89.8l-89.8,89.7c-24.7,24.7-65,24.7-89.8,0l-6-6
	c-8.2-8.2-11.2-19.4-8.2-30.6c2.9-10.6,0.1-22.4-8.2-30.7c-8.3-8.3-20.1-11-30.7-8.2c-11.2,3-22.4,0-30.6-8.2L480.4,377.8
	c-8.2-8.2-11.2-19.4-8.2-30.6c2.8-10.6,0.1-22.4-8.2-30.7c-8.3-8.3-20.1-11.1-30.7-8.2c-11.2,3-22.4,0-30.6-8.2l-6-6.1
	c-24.7-24.7-24.7-65,0-89.7l89.7-89.8C511.2,89.8,551.5,89.8,576.2,114.5z"/>
</svg>
