<svg xmlns="http://www.w3.org/2000/svg" width="1024" height="1024" viewBox="0 0 1024 1024"><title>backspace</title><g id="backspace"><path d="M929.62,181H344.41a74.4,74.4,0,0,0-52.76,21.59l-249.43,259a74,74,0,0,0,0,100.73l249.43,259C306,835.78,322.83,843,344.41,843h585.2c40.77,0,72-31.18,72-72V255.37c0-43.17-33.58-74.35-72-74.35Zm0,587.6H344.41L95,509.6l249.43-259h585.2v518ZM457.14,660.7c7.2,7.2,16.79,9.59,26.38,9.59s19.19-2.4,26.38-9.59l98.33-98.33,98.33,98.33c7.2,7.2,16.79,9.59,26.38,9.59s19.19-2.4,26.38-9.59c14.39-14.39,14.39-36,0-50.37L661,512l98.33-98.33c14.39-14.39,14.39-36,0-50.37s-36-14.39-50.37,0l-98.33,98.33L512.3,363.3c-14.39-14.39-36-14.39-50.37,0s-14.39,36,0,50.37L560.27,512l-98.33,98.33c-19.19,14.39-19.19,36-4.8,50.37Z"/></g></svg>