<?xml version="1.0" encoding="utf-8"?>
<!-- Generator: Adobe Illustrator 21.1.0, SVG Export Plug-In . SVG Version: 6.00 Build 0)  -->
<svg version="1.1"
	 id="Layer_1" image-rendering="optimizeQuality" text-rendering="geometricPrecision" shape-rendering="geometricPrecision"
	 xmlns="http://www.w3.org/2000/svg" xmlns:xlink="http://www.w3.org/1999/xlink" x="0px" y="0px" viewBox="0 0 1024 1024"
	 style="enable-background:new 0 0 1024 1024;" xml:space="preserve">
<path d="M411.3,544L274.5,817.7c-5.5,11-5.1,20.7,1.4,31.1c6.5,10.5,14.8,15.2,27.2,15.2h417.8c12.4,0,20.7-4.7,27.2-15.2
	c6.5-10.4,6.9-20.1,1.4-31.1L612.7,544H411.3z M541.3,576c44.2,0,80,35.8,80,80s-35.8,80-80,80s-80-35.8-80-80S497.1,576,541.3,576z
	 M432,745.7c26.5,0,48,21.5,48,48s-21.5,48-48,48s-48-21.5-48-48S405.5,745.7,432,745.7z"/>
<path d="M352,64h64c17.6,0,32,14.4,32,32v272.9c0,20.8-4.2,38.6-13.5,57.2L245.9,803.4c-10.5,20.9-9.5,42.4,2.8,62.2
	c12.3,20,30.9,30.4,54.4,30.4h417.8c23.5,0,42.1-10.4,54.4-30.4c12.3-19.8,13.3-41.3,2.8-62.2L589.5,426.1
	c-9.3-18.6-13.5-36.4-13.5-57.2V96c0-17.6,14.4-32,32-32h64c17.6,0,32,14.4,32,32s-14.4,32-32,32h-32v240.9
	c0,10.4,2.1,19.3,6.8,28.6l188.6,377.3c20.4,40.8,18.4,85.7-5.6,124.5c-24,38.8-63.3,60.7-108.9,60.7H303.1
	c-45.6,0-84.9-21.9-108.9-60.7c-24-38.8-26-83.7-5.6-124.5l188.6-377.3c4.7-9.3,6.8-18.2,6.8-28.6V128h-32c-17.6,0-32-14.4-32-32
	S334.4,64,352,64z"/>
</svg>
