<svg xmlns="http://www.w3.org/2000/svg" width="1024" height="1024" viewBox="0 0 1024 1024">
  <title>binomial</title>
  <g id="binomial">
    <g>
      <path d="M634,182.22v244H390v-244H634m60-60H330v364H694v-364Z"/>
      <path d="M634,597.78v244H390v-244H634m60-60H330v364H694v-364Z"/>
    </g>
    <g>
      <path d="M795,903.88H730Q868.9,737.32,868.9,514.23q0-224.88-139.83-394.1H795q138.94,163,138.94,395Q933.91,746.23,795,903.88Z"/>
      <path d="M293.15,903.88h-65Q90.08,746.23,90.09,515.12q0-232,138-395H294Q154.2,289.35,154.21,514.23,154.21,737.33,293.15,903.88Z"/>
    </g>
  </g>
</svg>
