<?xml version="1.0" encoding="utf-8"?>
<!-- Generator: Adobe Illustrator 18.0.0, SVG Export Plug-In . SVG Version: 6.00 Build 0)  -->
<!DOCTYPE svg PUBLIC "-//W3C//DTD SVG 1.1//EN" "http://www.w3.org/Graphics/SVG/1.1/DTD/svg11.dtd">
<svg version="1.1"
	 id="Layer_1" shape-rendering="geometricPrecision" text-rendering="geometricPrecision" image-rendering="optimizeQuality"
	 xmlns="http://www.w3.org/2000/svg" xmlns:xlink="http://www.w3.org/1999/xlink" x="0px" y="0px" width="1024px" height="1024px"
	 viewBox="0 0 1024 1024" enable-background="new 0 0 1024 1024" xml:space="preserve">
<path d="M512,64C264.6,64,64,264.6,64,512s200.6,448,448,448s448-200.6,448-448S759.4,64,512,64z M512,896
	c-212.1,0-384-171.9-384-384s171.9-384,384-384s384,171.9,384,384S724.1,896,512,896z"/>
<path id="blogger-icon" d="M743.6,448.5h-41.8c-14,0-25.4-11.4-25.4-25.4V412c0-86.4-70.1-156.5-156.5-156.5H411.5
	C325.1,255.5,255,325.6,255,412V612c0,86.4,70.1,156.5,156.5,156.5h200.9c86.4,0,156.5-70.1,156.5-156.5V474
	C769,459.9,757.6,448.5,743.6,448.5z M418.4,386.8H512c16.9,0,30.7,13.7,30.7,30.7c0,16.9-13.7,30.7-30.7,30.7h-93.6
	c-16.9,0-30.7-13.7-30.7-30.7C387.7,400.4,401.5,386.8,418.4,386.8z M605.7,635.3H418.4c-16.9,0-30.7-13.7-30.7-30.7
	c0-16.9,13.7-30.7,30.7-30.7h187.3c16.9,0,30.7,13.7,30.7,30.7C636.3,621.5,622.6,635.3,605.7,635.3z"/>
</svg>
