<svg xmlns="http://www.w3.org/2000/svg" width="1024" height="1024" viewBox="0 0 1024 1024">
  <title>bmatrix</title>
  <g id="bmatrix">
    <g>
      <path d="M411.46,263.34V411.93H262.87V263.34H411.46m60-60H202.87V471.93H471.46V203.34Z"/>
      <path d="M761.14,263.34V411.93H612.54V263.34H761.14m60-60H552.54V471.93H821.14V203.34Z"/>
      <path d="M411.46,612.07V760.66H262.87V612.07H411.46m60-60H202.87V820.66H471.46V552.07Z"/>
      <path d="M759.68,612.07V760.66H611.09V612.07H759.68m60-60H551.09V820.66H819.68V552.07Z"/>
    </g>
    <path d="M958.83,941.69H779.63V883.59H887.55V140.42H779.63V82.31h179.2Z"/>
    <path d="M250.29,941.69H70.6V82.31H250.29v58.11H141.9V883.59H250.29Z"/>
  </g>
</svg>
