<?xml version="1.0" encoding="utf-8"?>
<!-- Generator: Adobe Illustrator 21.1.0, SVG Export Plug-In . SVG Version: 6.00 Build 0)  -->
<svg version="1.1"
	 id="Layer_1" image-rendering="optimizeQuality" text-rendering="geometricPrecision" shape-rendering="geometricPrecision"
	 xmlns="http://www.w3.org/2000/svg" xmlns:xlink="http://www.w3.org/1999/xlink" x="0px" y="0px" viewBox="0 0 1024 1024"
	 style="enable-background:new 0 0 1024 1024;" xml:space="preserve">
<path d="M288,180v88c0,11,9,20,20,20h46c11,0,20-9,20-20v-88c0-11-9-20-20-20h-46C297,160,288,169,288,180z"/>
<path d="M256,64h512c35.3,0,64,28.7,64,64v768c0,35.3-28.7,64-64,64H256c-35.3,0-64-28.7-64-64V128C192,92.7,220.7,64,256,64z
	 M288,128c-17.6,0-32,14.4-32,32v128c0,17.6,14.4,32,32,32h448c17.6,0,32-14.4,32-32V160c0-17.6-14.4-32-32-32H288z M352,416
	c-35.3,0-64,28.7-64,64s28.7,64,64,64s64-28.7,64-64S387.3,416,352,416z M672,736c-35.3,0-64,28.7-64,64s28.7,64,64,64
	s64-28.7,64-64S707.3,736,672,736z M672,576c-35.3,0-64,28.7-64,64s28.7,64,64,64s64-28.7,64-64S707.3,576,672,576z M672,416
	c-35.3,0-64,28.7-64,64s28.7,64,64,64s64-28.7,64-64S707.3,416,672,416z M512,736c-35.3,0-64,28.7-64,64s28.7,64,64,64
	s64-28.7,64-64S547.3,736,512,736z M512,576c-35.3,0-64,28.7-64,64s28.7,64,64,64s64-28.7,64-64S547.3,576,512,576z M512,416
	c-35.3,0-64,28.7-64,64s28.7,64,64,64s64-28.7,64-64S547.3,416,512,416z M352,736c-35.3,0-64,28.7-64,64s28.7,64,64,64
	s64-28.7,64-64S387.3,736,352,736z M352,576c-35.3,0-64,28.7-64,64s28.7,64,64,64s64-28.7,64-64S387.3,576,352,576z"/>
<path d="M407,180v88c0,11,9,20,20,20h46c11,0,20-9,20-20v-88c0-11-9-20-20-20h-46C416,160,407,169,407,180z"/>
<path d="M648,180v88c0,11,9,20,20,20h46c11,0,20-9,20-20v-88c0-11-9-20-20-20h-46C657,160,648,169,648,180z"/>
<path d="M527.5,180v88c0,11,9,20,20,20h46c11,0,20-9,20-20v-88c0-11-9-20-20-20h-46C536.5,160,527.5,169,527.5,180z"/>
</svg>
