<?xml version="1.0" encoding="utf-8"?>
<!-- Generator: Adobe Illustrator 18.1.1, SVG Export Plug-In . SVG Version: 6.00 Build 0)  -->
<!DOCTYPE svg PUBLIC "-//W3C//DTD SVG 1.1//EN" "http://www.w3.org/Graphics/SVG/1.1/DTD/svg11.dtd">
<svg version="1.1"
	 id="Layer_1" shape-rendering="geometricPrecision" text-rendering="geometricPrecision" image-rendering="optimizeQuality"
	 xmlns="http://www.w3.org/2000/svg" xmlns:xlink="http://www.w3.org/1999/xlink" x="0px" y="0px" viewBox="-60 25 1024 1024"
	 enable-background="new -60 25 1024 1024" xml:space="preserve">
<path id="curve5" d="M148,601h112v288h-64V665h-64v-48C132,608.2,139.2,601,148,601z M516,825v64H324c0-32,0-64,0-96
	c0-35.2,28.7-64,64-64h48c8.8,0,16-7.2,16-16v-32c0-8.8-7.2-16-16-16h-32c-8.8,0-16,7.2-16,16h-64v-16c0-33.8,26.4-61.6,59.7-63.8
	c36.3,37,81.6,65.2,132.3,81.1V729c0,35.3-28.7,64-64,64h-48c-8.8,0-16,7.2-16,16v16H516z"/>
<path id="curve4" d="M644,695.4v225.7c0,35.2-28.8,64-64,64l-512-0.2c-35.2,0-64-28.7-64-64v-320h64v0.1v320h512V695.4
	c10.5,1.1,21.2,1.6,32,1.6S633.5,696.5,644,695.4z"/>
<path id="curve3" d="M68,345v64c0,35.3,28.7,64,64,64h32c35.3,0,64-28.7,64-64l0,0c0,35.3,28.7,64,64,64h14.7
	c10.9,35,27.8,67.3,49.3,96H4V409C4,373.7,32.7,345,68,345z"/>
<path id="curve2" d="M132,249h32c17.6,0,32,14.4,32,32v128c0,17.6-14.4,32-32,32h-32c-17.6,0-32-14.4-32-32V281
	C100,263.4,114.4,249,132,249z M292,249h26.7c-17.2,39.2-26.7,82.5-26.7,128c0,21.9,2.2,43.3,6.4,64H292c-17.6,0-32-14.4-32-32V281
	C260,263.4,274.4,249,292,249z"/>
<path id="curve1" d="M544.9,197.1L612,313c11.6,0,22.6,3.1,32,8.5l87.7-50.7c14.1,16,25.2,34.8,32.1,55.4L676,377
	c0,35.3-28.7,64-64,64s-64-28.7-64-64c0-11.6,3.1-22.6,8.5-32l-67-115.9C505.9,215.5,524.6,204.6,544.9,197.1z"/>
<path id="curve0" d="M612,89c159.1,0,288,128.9,288,288S771.1,665,612,665S324,536.1,324,377S452.9,89,612,89z M612,153
	c-123.7,0-224,100.3-224,224s100.3,224,224,224s224-100.3,224-224S735.7,153,612,153z"/>
</svg>
