<svg xmlns="http://www.w3.org/2000/svg" width="1024" height="1024" viewBox="0 0 1024 1024">
  <title>cbrt</title>
  <g id="cbrt">
    <text transform="translate(50.01 446.5)" style="font-size: 550px;font-family: SegoeUISymbol, Segoe UI Symbol">3</text>
    <path d="M848,609.36V898H559.36V609.36H848m60-60H499.36V958H908V549.36Z"/>
    <path d="M918,360H445.82a47.89,47.89,0,0,0-38.65,26.93L203.95,828.87,148.63,681a40.12,40.12,0,0,0-51.48-23.45h0A40.12,40.12,0,0,0,73.7,709l88.6,236.85a40.12,40.12,0,0,0,51.48,23.45h0a43.75,43.75,0,0,0,23.47-21.37L470.82,440H918a40.12,40.12,0,0,0,40-40h0A40.12,40.12,0,0,0,918,360Z"/>
    <g>
      <path d="M170.59,458.21c-37.51,0-67.88-7.32-90.26-21.74L78,435V374.71l8.09,6.36c24.93,19.6,53.89,29.55,86.07,29.55a116.75,116.75,0,0,0,34.89-4.87,77,77,0,0,0,26.24-13.85A61,61,0,0,0,250,370.29a68.38,68.38,0,0,0,5.85-28.79c0-47.42-33.5-70.46-102.42-70.46h-37V223.7h35.35c60.61,0,90.07-21.56,90.07-65.9,0-40.73-22.08-60.53-67.51-60.53-26,0-50.69,8.87-73.49,26.36l-8,6.17V74.13l2.43-1.46c25.2-15.08,55.52-22.73,90.12-22.73,16.58,0,31.85,2.35,45.39,7A105.81,105.81,0,0,1,266,76.68a88.68,88.68,0,0,1,22.9,30.72,94.9,94.9,0,0,1,8.1,39.39c0,47.14-21.47,79.67-63.86,96.9a120.94,120.94,0,0,1,20.34,6.89,102.29,102.29,0,0,1,30.2,20.2,91,91,0,0,1,20,29.4,94.12,94.12,0,0,1,7.25,37.28c0,18-3.45,34.66-10.26,49.49a110.11,110.11,0,0,1-29,38.25c-12.35,10.49-27.31,18.71-44.49,24.43S191.08,458.21,170.59,458.21Z"/>
      <path d="M305.95,337.47q0,26.05-9.8,47.4a104.69,104.69,0,0,1-27.66,36.52q-17.86,15.18-42.83,23.5t-55.05,8.33q-55.05,0-87.55-20.95V385q38.94,30.62,89.16,30.62a121.13,121.13,0,0,0,36.39-5.1,81.56,81.56,0,0,0,27.93-14.77,65.63,65.63,0,0,0,18-23.36,73,73,0,0,0,6.31-30.88q0-75.46-107.42-75.46h-32V228.7h30.35q95.07,0,95.07-70.9,0-65.52-72.51-65.53-40.82,0-76.54,27.39V77q36.79-22,87.55-22,24.17,0,43.77,6.71a100.38,100.38,0,0,1,33.57,18.8,83.34,83.34,0,0,1,21.62,29A89.53,89.53,0,0,1,292,146.79q0,76-76.81,97.75v1.07a121.68,121.68,0,0,1,36.26,9.53,96.86,96.86,0,0,1,28.73,19.2,85.66,85.66,0,0,1,18.93,27.8A88.75,88.75,0,0,1,305.95,337.47Z"/>
    </g>
  </g>
</svg>
