<?xml version="1.0" encoding="utf-8"?>
<!-- Generator: Adobe Illustrator 22.1.0, SVG Export Plug-In . SVG Version: 6.00 Build 0)  -->
<svg version="1.1" id="Layer_1" xmlns="http://www.w3.org/2000/svg" xmlns:xlink="http://www.w3.org/1999/xlink" x="0px" y="0px"
	 viewBox="0 0 1024 1024" style="enable-background:new 0 0 1024 1024;" xml:space="preserve">
<path d="M511.1,0C654.9,0,776.2,49.4,875,148.1c99.3,99.4,149,220.7,149,363.9c0,143.9-48.8,263.6-146.3,359.3
	C774.1,973.1,651.9,1024,511.1,1024c-138.4,0-258.4-50.3-360.2-150.9C50.3,772.5,0,652.2,0,512c0-140.2,50.3-261.5,150.9-363.9
	C249.6,49.4,369.7,0,511.1,0z M512.9,92.4c-116.4,0-214.8,40.8-295.3,122.5C134.1,300.2,92.3,399.3,92.3,512
	c0,113.4,41.4,211.5,124.3,294.4c82.9,82.9,181.6,124.3,296.2,124.3c114,0,213.3-41.7,298.1-125.2
	c80.5-77.4,120.7-175.2,120.7-293.5c0-116.4-40.8-215.4-122.5-297.1C727.5,133.2,628.7,92.4,512.9,92.4z M650.1,384.9v209.4h-58.5
	v248.7H432.5V594.3H374V384.9c0-9.2,3.2-16.9,9.6-23.3c6.4-6.4,14.2-9.6,23.3-9.6h210.3c8.5,0,16.2,3.2,22.8,9.6
	C646.7,368,650.1,375.8,650.1,384.9z M440.7,253.3c0-48.1,23.8-72.2,71.3-72.2s71.3,24.1,71.3,72.2c0,47.5-23.8,71.3-71.3,71.3
	S440.7,300.8,440.7,253.3z"/>
</svg>
