<?xml version="1.0" encoding="utf-8"?>
<!-- Generator: Adobe Illustrator 22.1.0, SVG Export Plug-In . SVG Version: 6.00 Build 0)  -->
<svg version="1.1" id="Layer_1" xmlns="http://www.w3.org/2000/svg" xmlns:xlink="http://www.w3.org/1999/xlink" x="0px" y="0px"
	 viewBox="0 0 1024 1024" style="enable-background:new 0 0 1024 1024;" xml:space="preserve">
<path d="M511.1,0C654.3,0,775.6,49.7,875,149c99.3,98.8,149,219.7,149,363s-48.8,263.3-146.3,360.2
	C774.7,973.4,652.5,1024,511.1,1024c-138.4,0-258.4-50.3-360.2-150.9C50.3,772.6,0,652.2,0,512c0-139.6,50.3-260.6,150.9-363
	C250.2,49.7,370.3,0,511.1,0z M513,92.3c-116.4,0-214.9,41.1-295.3,123.4C134.1,300.5,92.4,399.3,92.4,512
	c0,114,41.4,212.1,124.3,294.4c82.9,82.9,181.6,124.3,296.2,124.3c114,0,213.3-41.7,298-125.3c80.5-78,120.7-175.8,120.7-293.5
	c0-117-40.9-215.8-122.5-296.2C728.1,133.5,629.3,92.3,513,92.3z M705.9,391.3v87.8H333.8v-87.8H705.9z M705.9,555.9v87.7H333.8
	v-87.7H705.9z"/>
</svg>
