<?xml version="1.0" encoding="utf-8"?>
<!-- Generator: Adobe Illustrator 22.1.0, SVG Export Plug-In . SVG Version: 6.00 Build 0)  -->
<svg version="1.1" id="Layer_1" xmlns="http://www.w3.org/2000/svg" xmlns:xlink="http://www.w3.org/1999/xlink" x="0px" y="0px"
	 viewBox="0 0 1024 1024" style="enable-background:new 0 0 1024 1024;" xml:space="preserve">
<path d="M511.1,0C654.9,0,776.2,49.4,875,148.1c99.3,98.8,149,220,149,363.9c0,143.9-48.8,263.6-146.3,359.3
	C774.1,973.1,651.9,1024,511.1,1024c-139,0-259-50.6-360.2-151.8C50.3,771.6,0,651.6,0,512c0-140.2,50.3-261.5,150.9-363.9
	C249.6,49.4,369.7,0,511.1,0z M115.2,374C100,416,92.3,462,92.3,512c0,113.4,41.4,211.5,124.3,294.4
	c83.5,82.3,182.3,123.4,296.2,123.4c115.2,0,214.5-41.7,298.1-125.3c29.9-28.6,53.3-58.5,70.4-89.6L688.4,629
	c-6.7,32.3-23,58.7-48.9,79.1c-26,20.4-56.6,32.2-91.9,35.2v78.6h-59.4v-78.6c-56.7-0.6-108.5-21-155.4-61.2l70.4-71.3
	c33.5,31.1,71.6,46.6,114.3,46.6c17.7,0,32.8-3.9,45.3-11.9c12.5-7.9,18.8-21,18.8-39.3c0-12.8-4.6-23.2-13.7-31.1l-49.4-21
	l-60.3-27.4l-81.4-35.7L115.2,374z M512.9,91.4c-116.4,0-214.8,41.1-295.3,123.4c-20.1,20.1-39,43-56.7,68.6l195.7,87.8
	c8.5-26.8,24.7-48.3,48.5-64.4c23.7-16.1,51.5-25.1,83.2-27v-78.6h59.4v78.6c46.9,2.4,89.6,18.3,128,47.5l-66.8,68.6
	c-28.7-20.1-57.9-30.2-87.8-30.2c-15.9,0-30,3.1-42.5,9.1c-12.5,6.1-18.8,16.5-18.8,31.1c0,4.3,1.5,8.5,4.6,12.8l64.9,29.3
	l44.8,20.1l82.3,36.6l262.4,117c8.6-36,12.8-72.5,12.8-109.7c0-117.6-40.8-216.7-122.5-297.2C728.1,132.6,629.3,91.4,512.9,91.4z"/>
</svg>
