<?xml version="1.0" encoding="utf-8"?>
<!-- Generator: Adobe Illustrator 22.1.0, SVG Export Plug-In . SVG Version: 6.00 Build 0)  -->
<svg version="1.1" id="Layer_1" xmlns="http://www.w3.org/2000/svg" xmlns:xlink="http://www.w3.org/1999/xlink" x="0px" y="0px"
	 viewBox="0 0 1024 1024" style="enable-background:new 0 0 1024 1024;" xml:space="preserve">
<path d="M511.1,0C654.3,0,775.6,49.7,875,149c99.3,98.8,149,219.7,149,363c0,143.3-48.8,263.3-146.3,360.2
	C774.7,973.4,652.5,1024,511.1,1024c-138.4,0-258.4-50.3-360.2-150.9C50.3,772.6,0,652.2,0,512c0-139.6,50.3-260.6,150.9-363
	C250.2,49.7,370.3,0,511.1,0z M512.9,92.4c-116.4,0-214.8,41.2-295.3,123.4C134.1,300.5,92.3,399.3,92.3,512
	c0,114,41.4,212.1,124.3,294.4c82.9,82.9,181.6,124.3,296.2,124.3c114,0,213.3-41.7,298.1-125.2c80.5-78,120.7-175.8,120.7-293.5
	c0-117-40.8-215.8-122.5-296.2C728.1,133.5,629.3,92.4,512.9,92.4z M284.3,439.8c9.7-62.8,35-111.4,75.9-145.8
	c40.8-34.4,90.5-51.6,149-51.6c80.4,0,144.5,25.9,192,77.7c47.5,51.8,71.3,118.3,71.3,199.3c0,78.6-24.7,144-74,196.1
	c-49.4,52.1-113.4,78.2-192,78.2c-57.9,0-107.9-17.4-149.9-52.1c-42.1-34.8-67.3-84.1-75.9-148.1h128.9c3,62.2,40.5,93.3,112.5,93.3
	c35.9,0,64.9-15.6,86.8-46.6c22-31.1,32.9-72.5,32.9-124.3c0-54.3-10.1-95.5-30.2-123.9c-20.1-28.3-49.1-42.5-86.9-42.5
	c-68.3,0-106.7,30.2-115.2,90.5h37.5L345.6,541.2L244.1,439.7L284.3,439.8L284.3,439.8z"/>
</svg>
