<?xml version="1.0" encoding="utf-8"?>
<!-- Generator: Adobe Illustrator 22.1.0, SVG Export Plug-In . SVG Version: 6.00 Build 0)  -->
<svg version="1.1" id="Layer_1" xmlns="http://www.w3.org/2000/svg" xmlns:xlink="http://www.w3.org/1999/xlink" x="0px" y="0px"
	 viewBox="0 0 1024 1024" style="enable-background:new 0 0 1024 1024;" xml:space="preserve">
<path id="text2809_1_" d="M512,217.3c-169,0-211.6,159.5-211.6,294.7c0,135.2,42.5,294.7,211.6,294.7c169,0,211.5-159.5,211.5-294.7
	C723.5,376.8,681,217.3,512,217.3z M512,328.4c6.9,0,13.1,1.1,19,2.5c12.2,10.5,18.1,25,6.4,45.2L424.9,583c-3.5-26.2-4-51.8-4-71
	C420.9,452.4,425.1,328.4,512,328.4z M596.3,423.8c6,31.7,6.8,64.9,6.8,88.2c0,59.6-4.1,183.6-91,183.6c-6.8,0-13.2-0.7-19-2.2
	c-1.1-0.3-2.1-0.7-3.2-1.1c-1.8-0.5-3.7-1.1-5.4-1.8c-19.4-8.2-31.6-23.1-14-49.5L596.3,423.8z"/>
<path id="path2815_1_" d="M510.9,0c-142,0-261.7,49.4-359.3,148.8c-49.4,49.4-87.1,105.7-113.3,168.5C12.8,379.5,0,444.3,0,512
	c0,68.3,12.8,133.1,38.4,194.7c25.6,61.6,62.7,117,111.5,166.3c49.4,48.8,104.8,86.4,166.4,112.6c62.2,25.6,127,38.4,194.7,38.4
	c67.7,0,133.4-13.2,196.8-39.4c63.4-26.2,119.9-63.9,169.9-113.3c48.2-46.9,84.6-100.8,109-161.7c25-61.6,37.3-127.4,37.3-197.6
	c0-69.5-12.3-135.3-37.3-196.9C961.7,253,925.2,198,877,149.9C776.4,49.9,654.2,0,510.9,0z M513.1,92.1
	c115.8,0,214.6,41.1,296.9,123.3c39.6,39.6,70,85,90.7,135.5c20.7,50.6,31.2,104.3,31.2,161c0,117.7-40.3,215.3-120.1,293.3
	c-41.5,40.3-88,71.2-139.8,92.5c-51.2,21.3-104,31.9-158.8,31.9c-55.5,0-108.6-10.4-159.2-31.2c-50.6-21.3-96-51.8-136.3-91.5
	c-40.2-40.2-71.3-85.6-93.2-136.3c-21.3-51.2-32.3-104-32.3-158.8c0-55.5,10.9-108.6,32.3-159.2c21.9-51.2,53-97.2,93.2-138.1
	C297.5,133.1,396,92.1,513.1,92.1z"/>
</svg>
