<?xml version="1.0" encoding="utf-8"?>
<!-- Generator: Adobe Illustrator 22.1.0, SVG Export Plug-In . SVG Version: 6.00 Build 0)  -->
<svg version="1.1" id="Layer_1" xmlns="http://www.w3.org/2000/svg" xmlns:xlink="http://www.w3.org/1999/xlink" x="0px" y="0px"
	 viewBox="0 0 1024 1024" style="enable-background:new 0 0 1024 1024;" xml:space="preserve">
<path d="M511.1,0c143.2,0,265.2,50,365.7,150c48.1,48.1,84.7,103.2,109.7,165c25,61.9,37.5,127.5,37.5,197c0,70.1-12.4,135.8-37,197
	c-24.7,61.2-61.1,115.4-109.2,162.3c-50,49.4-106.7,87.2-170.1,113.4c-63.4,26.2-128.9,39.3-196.6,39.3s-132.4-12.9-194.3-38.9
	c-61.9-25.9-117.3-63.4-166.4-112.4c-49.1-49.1-86.4-104.4-112-166S0,580.3,0,512c0-67.7,12.9-132.7,38.8-195.2
	S102.4,198.4,151.8,149C249.3,49.7,369,0,511.1,0z M512.9,92.4c-117,0-215.5,40.8-295.3,122.5c-40.2,40.8-71.2,86.7-92.8,137.6
	C103.1,403.4,92.3,456.6,92.3,512c0,54.9,10.8,107.7,32.5,158.6c21.6,50.9,52.6,96.3,92.8,136.3c40.2,39.9,85.6,70.4,136.2,91.4
	c50.6,21,103.6,31.5,159.1,31.5c54.8,0,108-10.6,159.6-32c51.5-21.4,97.9-52.1,139.4-92.3c79.8-78,119.7-175.8,119.7-293.5
	c0-56.7-10.4-110.3-31.1-160.9c-20.7-50.6-50.9-95.7-90.5-135.3C727.8,133.5,628.7,92.4,512.9,92.4z M506.5,427l-68.6,35.7
	c-7.3-15.2-16.3-25.9-27-32c-10.7-6.1-20.6-9.1-29.7-9.1c-45.7,0-68.6,30.2-68.6,90.5c0,27.4,5.8,49.3,17.4,65.8
	c11.6,16.5,28.7,24.7,51.2,24.7c29.9,0,50.9-14.6,63.1-43.9l63.1,32c-13.4,25-32,44.7-55.8,59c-23.7,14.3-50,21.5-78.6,21.5
	c-45.7,0-82.6-14-110.6-42.1c-28-28-42-67-42-117c0-48.8,14.2-87.5,42.5-116.1c28.3-28.6,64.1-43,107.4-43
	C433.7,352.9,479.1,377.6,506.5,427z M801.8,427l-67.7,35.7c-7.3-15.2-16.3-25.9-27-32c-10.7-6.1-20.9-9.1-30.6-9.1
	c-45.7,0-68.6,30.2-68.6,90.5c0,27.4,5.8,49.3,17.4,65.8c11.6,16.5,28.6,24.7,51.2,24.7c29.8,0,50.9-14.6,63.1-43.9l64,32
	c-14,25-32.9,44.7-56.7,59c-23.8,14.3-49.7,21.5-77.7,21.5c-46.3,0-83.3-14-111.1-42.1c-27.8-28-41.6-67-41.6-117
	c0-48.8,14.2-87.5,42.5-116.1c28.3-28.6,64.1-43,107.4-43C729.9,352.9,775,377.6,801.8,427z"/>
</svg>
