<?xml version="1.0" encoding="utf-8"?>
<!-- Generator: Adobe Illustrator 19.2.1, SVG Export Plug-In . SVG Version: 6.00 Build 0)  -->
<svg version="1.1"
	 id="Layer_1" image-rendering="optimizeQuality" shape-rendering="geometricPrecision" text-rendering="geometricPrecision"
	 xmlns="http://www.w3.org/2000/svg" xmlns:xlink="http://www.w3.org/1999/xlink" x="0px" y="0px" viewBox="0 0 1024 1024"
	 style="enable-background:new 0 0 1024 1024;" xml:space="preserve">
<title>cloud_refresh icon</title>
<desc>cloud_refresh icon from the IconExperience.com O-Collection. Copyright by INCORS GmbH (www.incors.com).</desc>
<path d="M192,431.9C192,299.4,299.5,192,432,192c53.1,0,103.3,17.5,144,48v2.6c-10.4-3.6-22.1-3.6-33,0.5
	c-14.9,5.6-25.7,18-29.5,32.9c-24.4-12.8-52.1-20-81.5-20c-97.2,0-176,78.8-176,176c0,16.8,2.3,33,6.7,48.3
	C187.5,485.1,128,547.6,128,624c0,66.1,44.5,121.7,105.2,138.7c5.3,7.3,12.8,13,21.7,16.4c10.9,4.2,22.6,4.2,33.1,0.4V832h-16
	c-114.9,0-208-93.1-208-208C64,537.9,116.5,463.4,192,431.9z M800,345.9c39.4,37.9,64,91.1,64,150.1v3.2c57.2,29.2,96,88.8,96,156.8
	c0,97.2-78.8,176-176,176H448v-51.7c9.9,2.9,20.8,2.7,31-1.2c6.6-2.5,12.4-6.3,17.2-11.1H784c61.9,0,112-50.1,112-112
	c0-59.3-46-107.8-104.3-111.7c5.4-15.1,8.3-31.4,8.3-48.3c0-30.2-9.3-58.1-25.1-81.3l9.5-11.3c10.1-11.9,15.6-26.1,15.6-41.8V345.9z
	"/>
<path d="M480,662.4V736c0,6.8-4,12.6-10.3,15c-6.4,2.4-13.3,0.8-17.7-4.4L416,704v128c0,17.6,14.4,32,32,32h192
	c-12.7,55-68.6,96-128,96h-64c-70.5,0-128-57.5-128-128V704l-36,42.6c-4.4,5.2-11.3,6.8-17.7,4.4c-6.3-2.4-10.3-8.2-10.3-15v-73.6
	c0-8.1,2.8-15,8-21.2l78.7-93c12.9-15.4,35.5-15.3,48.7-0.1l80.6,93.1C477.3,647.4,480,654.3,480,662.4z M544,361.6V288
	c0-6.8,4-12.6,10.3-15c6.4-2.4,13.3-0.8,17.7,4.4l36,42.6V192c0-17.6-14.4-32-32-32h-64c-7.4,0-14.2,2.5-19.7,6.8
	c-19.6-4.5-39.8-6.8-60.3-6.8c-16.4,0-32.4,1.5-48,4.2V160c12.7-55,68.6-96,128-96h64c70.5,0,128,57.5,128,128v128l36-42.6
	c4.4-5.2,11.3-6.8,17.7-4.4c6.3,2.4,10.3,8.2,10.3,15v73.6c0,8.1-2.8,15-8,21.2l-78.7,93c-12.9,15.4-35.5,15.3-48.7,0.1L552,382.8
	C546.7,376.6,544,369.7,544,361.6z"/>
</svg>
