<svg xmlns="http://www.w3.org/2000/svg" width="1024" height="1024" viewBox="0 0 1024 1024">
  <title>cmatrix</title>
  <g id="cmatrix">
    <g>
      <path d="M411.46,263.34V411.93H262.86V263.34H411.46m60-60H202.86V471.93H471.46V203.34Z"/>
      <path d="M761.14,263.34V411.93H612.54V263.34H761.14m60-60H552.54V471.93H821.14V203.34Z"/>
      <path d="M411.46,612.07V760.66H262.86V612.07H411.46m60-60H202.86V820.66H471.46V552.07Z"/>
      <path d="M759.68,612.07V760.66H611.09V612.07H759.68m60-60H551.09V820.66H819.68V552.07Z"/>
    </g>
    <g>
      <path d="M232.45,941.69q-149.91-2-149.91-151.36V643.84q0-98.62-76.17-103.52V483.69q76.17-4.87,76.17-105.47V235.64q0-151.36,149.91-153.33v62.5q-77.65,2-77.64,96.69V384.56q0,102.56-73.23,126v2q73.22,22,73.23,125V778.61q0,54.19,17.33,77.39t60.31,24.17Z"/>
      <path d="M1017.63,540.33q-76.17,4.88-76.17,103.52V790.33q0,149.39-149.41,151.36V880.17q42.47-1,60.3-24.42t17.83-77.14V637.5q0-103,72.75-125v-2q-72.75-23.44-72.75-126V241.5q0-94.73-78.12-96.69V82.31q149.39,2,149.41,153.33V378.22q0,100.59,76.17,105.47Z"/>
    </g>
  </g>
</svg>
