<svg xmlns="http://www.w3.org/2000/svg" width="1024" height="1024" viewBox="0 0 1024 1024">
  <title>cos</title>
  <g id="cos">
    <g>
      <path d="M243.16,824c-46.49,0-84.59-15.39-113.24-45.75s-43.07-70-43.07-118c0-53.37,15.59-96.93,46.32-129.47s72.41-49.16,123.63-49.16c28.53,0,54.1,5.38,76,16L335.6,499v64.84l-7.87-5.52c-22.6-15.86-47.09-23.9-72.78-23.9-30.82,0-56.42,11.17-76.11,33.21-19.83,22.2-29.89,51.91-29.89,88.29,0,35.75,9.42,64.25,28,84.69s43.65,30.61,74.9,30.61c26.46,0,51.74-8.94,75.12-26.59l8-6v61.23l-2.42,1.46C307.48,816.35,277.41,824,243.16,824Z"/>
      <path d="M330,797q-36.59,22-86.82,22-67.9,0-109.61-44.18T91.85,660.25q0-78.44,45-126t120-47.59q41.86,0,73.79,15.5v52.09q-35.35-24.8-75.65-24.8-48.68,0-79.84,34.88t-31.16,91.62q0,55.81,29.3,88.06t78.6,32.25q41.55,0,78.13-27.59Z"/>
      <path d="M520.53,824c-48.14,0-87.18-15.5-116-46.06s-43.38-71.32-43.38-121.41c0-54.43,15.19-97.64,45.13-128.44S477.19,481.62,528,481.62c48.58,0,87.12,15.26,114.54,45.35s41.15,71.88,41.15,124.6c0,51.72-14.9,93.82-44.3,125.12S569.9,824,520.53,824Zm3.72-289.59c-31,0-55.78,10.63-73.72,31.58-18.13,21.18-27.32,51-27.32,88.68,0,36.19,9.28,65,27.58,85.67,18.14,20.48,42.86,30.87,73.46,30.87,31.16,0,55.37-10.14,72-30.13,16.83-20.27,25.36-49.76,25.36-87.65,0-38.31-8.54-68.12-25.37-88.6C579.6,544.64,555.39,534.41,524.25,534.41Z"/>
      <path d="M520.53,819q-70.39,0-112.4-44.49t-42-118q0-80,43.72-125t118.13-45q71,0,110.85,43.72t39.84,121.23q0,76-42.94,121.7T520.53,819Zm3.72-289.59q-49,0-77.51,33.33t-28.53,91.93q0,56.44,28.84,89t77.2,32.56q49.3,0,75.81-31.94t26.51-90.85q0-59.53-26.51-91.78T524.25,529.41Z"/>
      <path d="M806.57,824c-33.32,0-62.69-6.56-87.28-19.49l-2.67-1.41V735.6l8,5.89c26.69,19.72,56.46,29.72,88.5,29.72,41.7,0,62-13,62-39.65,0-7.45-1.66-13.79-4.93-18.83A52.55,52.55,0,0,0,856,698.46a115.26,115.26,0,0,0-22-11.72c-8.81-3.62-18.32-7.42-28.27-11.28a371.22,371.22,0,0,1-37.6-17.15,117.3,117.3,0,0,1-27.84-20.1,76.76,76.76,0,0,1-17.23-26c-3.83-9.63-5.78-21-5.78-33.78,0-15.73,3.68-29.89,10.93-42.09a96.11,96.11,0,0,1,28.77-30.41,132.83,132.83,0,0,1,40.43-18.21,178.55,178.55,0,0,1,46.42-6.06c28,0,53.55,4.94,75.8,14.68l3,1.31v64l-7.74-5.07c-22.43-14.68-48.63-22.13-77.88-22.13a89.64,89.64,0,0,0-24.37,3.07,58.33,58.33,0,0,0-18.14,8.4,37.48,37.48,0,0,0-11.24,12.44,32,32,0,0,0-3.88,15.74c0,7.4,1.31,13.59,3.9,18.41A41,41,0,0,0,795,605.71a96,96,0,0,0,20,11.18c8.09,3.44,17.54,7.29,28.09,11.42A400.82,400.82,0,0,1,881.4,645.1a135.54,135.54,0,0,1,29.62,20,80.5,80.5,0,0,1,19.33,26.28c4.52,9.92,6.81,21.78,6.81,35.25,0,16.55-3.73,31.19-11.1,43.49a94.37,94.37,0,0,1-29.29,30.44,132.68,132.68,0,0,1-41.56,17.74A203.44,203.44,0,0,1,806.57,824Z"/>
      <path d="M721.62,800.09V745.52q41.55,30.7,91.47,30.7,67,0,67-44.65,0-12.71-5.74-21.55a57.24,57.24,0,0,0-15.5-15.66,119.7,119.7,0,0,0-22.94-12.25q-13.18-5.42-28.37-11.32a364.27,364.27,0,0,1-37.05-16.9,111.82,111.82,0,0,1-26.67-19.22,71.46,71.46,0,0,1-16.12-24.34q-5.43-13.64-5.43-31.94,0-22.32,10.23-39.53A90.71,90.71,0,0,1,759.76,510a127.26,127.26,0,0,1,38.91-17.52,172.75,172.75,0,0,1,45.11-5.89q41.23,0,73.79,14.26v51.47q-35-22.94-80.62-22.94a94.19,94.19,0,0,0-25.73,3.26,63,63,0,0,0-19.69,9.15,42.24,42.24,0,0,0-12.71,14.11,37.15,37.15,0,0,0-4.5,18.14q0,12.4,4.5,20.77A45.69,45.69,0,0,0,792,609.71a100.54,100.54,0,0,0,21.08,11.78q12.4,5.28,28.22,11.47a394.22,394.22,0,0,1,37.83,16.59,129.94,129.94,0,0,1,28.53,19.22,75.18,75.18,0,0,1,18.14,24.65q6.35,14,6.36,33.18,0,23.57-10.39,40.93A89,89,0,0,1,894,796.37a127.11,127.11,0,0,1-40,17.05A197.51,197.51,0,0,1,806.57,819Q757.58,819,721.62,800.09Z"/>
    </g>
  </g>
</svg>
