<svg xmlns="http://www.w3.org/2000/svg" width="1024" height="1024" viewBox="0 0 1024 1024"><title>cos</title><g id="cos"><path d="M304.11,703.62q-33.18,19.22-95.81,19.22-73.18,0-118.44-44.34T44.59,564.09q0-80.93,48.52-127.59t129.76-46.66q56.12,0,81.24,14.88v83.1q-30.7-22.94-68.52-22.94-42.17,0-66.82,24.65t-24.65,68.06q0,42.17,23.56,66.2t64.8,24q36.58,0,71.62-22.94Z"/><path d="M519.6,722.84q-79.38,0-124.8-44.49T349.37,557.58q0-78.75,47.13-123.25t127.43-44.49q79.06,0,124,44.49t45,117.67q0,79.06-46.35,125T519.6,722.84Zm2.48-258q-34.73,0-54,23.87T448.9,556.34q0,91.47,73.79,91.47,70.38,0,70.38-93.95Q593.08,464.87,522.08,464.87Z"/><path d="M735.71,706.72V627.34A208.37,208.37,0,0,0,783.92,649q24,7.14,45.42,7.13,26,0,41.08-7.13t15-21.7a20.1,20.1,0,0,0-6.82-15.5A63.49,63.49,0,0,0,861.13,601a199,199,0,0,0-23.41-8.37q-12.72-3.72-24.49-8.37a234.23,234.23,0,0,1-33.33-15.35,96.18,96.18,0,0,1-24.18-19.07,74.9,74.9,0,0,1-14.88-25.11q-5.12-14.26-5.12-33.8,0-26.66,11.63-45.89a95,95,0,0,1,31-31.47,141.74,141.74,0,0,1,44.34-18,231.26,231.26,0,0,1,51.93-5.74,288.27,288.27,0,0,1,42.79,3.26,319.85,319.85,0,0,1,42.79,9.46V478.2a154.77,154.77,0,0,0-39.84-16.28,168.22,168.22,0,0,0-41.7-5.43,92.6,92.6,0,0,0-18.14,1.71,59.79,59.79,0,0,0-15,5,27.62,27.62,0,0,0-10.23,8.37,19.27,19.27,0,0,0-3.72,11.63A21.48,21.48,0,0,0,837.1,498a48.32,48.32,0,0,0,14.57,10.7,143.09,143.09,0,0,0,20,8.06q11,3.57,21.86,7.29A284.6,284.6,0,0,1,928.87,539,113.23,113.23,0,0,1,956,557.89a74.35,74.35,0,0,1,17.36,25.42q6,14.58,6,34.73,0,28.22-12.25,48.21a98.12,98.12,0,0,1-32.56,32.56q-20.31,12.56-46.82,18.29a259.69,259.69,0,0,1-55,5.74Q780.35,722.84,735.71,706.72Z"/></g></svg>