<svg xmlns="http://www.w3.org/2000/svg" width="1024" height="1024" viewBox="0 0 1024 1024"><title>cubert</title><g id="cubert"><path d="M848,609.36V898H559.36V609.36H848m60-60H499.36V958H908V549.36Z"/><path d="M918,360H445.82a47.89,47.89,0,0,0-38.65,26.93L203.95,828.87,148.63,681a40.12,40.12,0,0,0-51.48-23.45h0A40.12,40.12,0,0,0,73.7,709l88.6,236.85a40.12,40.12,0,0,0,51.48,23.45h0a43.75,43.75,0,0,0,23.47-21.37L470.82,440H918a40.12,40.12,0,0,0,40-40h0A40.12,40.12,0,0,0,918,360Z"/><path d="M66,444.93V371.08q38.67,28.2,90.23,28.2,32.49,0,50.62-14T225,346.37q0-25.78-22.42-39.75t-61.63-14H105.21v-65h33q75.19,0,75.2-50,0-47-57.74-47-38.67,0-75.2,25V86.41Q121,66,175,66q59.08,0,92,26.59t32.9,69q0,75.47-76.54,94.53v1.34q40.82,5.1,64.45,29.68t23.63,60.29q0,54-39.48,85.4t-109,31.42Q103.33,464.27,66,444.93Z"/></g></svg>