<svg id="dashes" xmlns="http://www.w3.org/2000/svg" width="1024" height="1024" viewBox="0 0 1024 1024">
  <title>dashes</title>
  <rect x="58.5" y="799.5" width="262" height="100" rx="50" ry="50" style="stroke: #000;stroke-miterlimit: 10"/>
  <rect x="381.5" y="798.5" width="262" height="100" rx="50" ry="50" style="stroke: #000;stroke-miterlimit: 10"/>
  <rect x="706.5" y="799.5" width="262" height="100" rx="50" ry="50" style="stroke: #000;stroke-miterlimit: 10"/>
  <rect x="777.5" y="579.5" width="190" height="100" rx="50" ry="50" style="stroke: #000;stroke-miterlimit: 10"/>
  <ellipse cx="691.5" cy="629" rx="50" ry="50.5" style="stroke: #000;stroke-miterlimit: 10"/>
  <rect x="416.5" y="579.5" width="190" height="100" rx="50" ry="50" style="stroke: #000;stroke-miterlimit: 10"/>
  <ellipse cx="331.5" cy="629" rx="50" ry="50.5" style="stroke: #000;stroke-miterlimit: 10"/>
  <rect x="56.5" y="579.5" width="190" height="100" rx="50" ry="50" style="stroke: #000;stroke-miterlimit: 10"/>
  <ellipse cx="914.5" cy="397" rx="50" ry="50.5" style="stroke: #000;stroke-miterlimit: 10"/>
  <ellipse cx="756.5" cy="397" rx="50" ry="50.5" style="stroke: #000;stroke-miterlimit: 10"/>
  <ellipse cx="595.5" cy="397" rx="50" ry="50.5" style="stroke: #000;stroke-miterlimit: 10"/>
  <ellipse cx="431.5" cy="397" rx="50" ry="50.5" style="stroke: #000;stroke-miterlimit: 10"/>
  <ellipse cx="269.5" cy="397" rx="50" ry="50.5" style="stroke: #000;stroke-miterlimit: 10"/>
  <ellipse cx="106.5" cy="397" rx="50" ry="50.5" style="stroke: #000;stroke-miterlimit: 10"/>
  <rect x="58.5" y="124.5" width="906" height="100" rx="50" ry="50" style="stroke: #000;stroke-miterlimit: 10"/>
</svg>
