<svg xmlns="http://www.w3.org/2000/svg" width="1024" height="1024" viewBox="0 0 1024 1024">
  <title>derivative</title>
  <g id="derivative">
    <rect x="130" y="472" width="764" height="80" rx="40" ry="40"/>
    <path d="M470.56,219.74l32.5-97.5c6-18,5.5-23.5-3.5-28.5l-14-8c-1.5-4-1.5-8.5,2.5-12,15.5-6.5,67-16,90.5-17,3.5.5,5,2,5,5-8,21-14,38.5-23,65l-72.5,217.5c-5.5,16-8,27.5-8.5,32,0,3,1.5,6,4.5,6,5.5,0,30-15,45.5-31.5,6,.5,9,4,8,11.5-11,16.5-52,59-101.5,59-14,0-19-10.5-19-21,0-8,5-21.5,10-36l11.5-33h-1c-23.5,35.5-62.5,90-117.5,90-22,0-37-19.5-36-47.5,1-40.5,24.5-91,63.5-125,33-29,67-41.5,96-41.5C456.06,207.24,465.56,212.74,470.56,219.74Zm-129.5,162c0,7.5,2.5,11,7.5,11,8.5,0,43.5-26.5,66.5-56,17-22,31-43,41-73.5,6.5-19,2.5-34-6-34-3,0-7.5.5-18.5,8.5-9.5,7-27.5,23.5-48,53C359.06,325.74,341.06,368.74,341.06,381.74Z" style="stroke: #000;stroke-miterlimit: 10;stroke-width: 10px"/>
    <g>
      <path d="M450,765.76l32.5-97.5c6-18,5.5-23.5-3.5-28.5l-14-8c-1.5-4-1.5-8.5,2.5-12,15.5-6.5,67-16,90.5-17,3.5.5,5,2,5,5-8,21-14,38.5-23,65l-72.5,217.5c-5.5,16-8,27.5-8.5,32,0,3,1.5,6,4.5,6,5.5,0,30-15,45.5-31.5,6,.5,9,4,8,11.5-11,16.5-52,59-101.5,59-14,0-19-10.5-19-21,0-8,5-21.5,10-36l11.5-33h-1c-23.5,35.5-62.5,90-117.5,90-22,0-37-19.5-36-47.5,1-40.5,24.5-91,63.5-125,33-29,67-41.5,96-41.5C435.52,753.26,445,758.76,450,765.76Zm-129.5,162c0,7.5,2.5,11,7.5,11,8.5,0,43.5-26.5,66.5-56,17-22,31-43,41-73.5,6.5-19,2.5-34-6-34-3,0-7.5.5-18.5,8.5-9.5,7-27.5,23.5-48,53C338.52,871.76,320.52,914.76,320.52,927.76Z" style="stroke: #000;stroke-miterlimit: 10;stroke-width: 10px"/>
      <path d="M659,847.76l12.5,39.5c10,31,14,35.5,18,35.5,5.5,0,18-16,27-31,4-4,12.5-3.5,15.5,2.5-10.5,35-35,73-67,73-22,0-32-17.5-39-38l-11-33.5-28.5,34.5c-22.5,27-40,37-58.5,37-13,0-23-9.5-23-25,0-17.5,17-43.5,29.5-43.5,5,0,7.5,6,11,15,3,7,6.5,9,10.5,9,2,0,13.5-8,35-33.5l16-19-15-47.5c-3-9.5-7-19-10.5-19-5,0-11,3-26,25.5-5.5,2.5-12.5-.5-13.5-6,6-20.5,32-70,69-70,13,0,23,11.5,29.5,32.5l11.5,37.5,18-21.5c26.5-31.5,44.5-48.5,66.5-48.5,15.5,0,24,13.5,24,26.5,0,23-11.5,42.5-24.5,42.5-5.5,0-9-5-11-11-2-6.5-5.5-12.5-12-12.5s-20.5,11-37.5,30.5Z" style="stroke: #000;stroke-miterlimit: 10;stroke-width: 10px"/>
    </g>
  </g>
</svg>
