<svg xmlns="http://www.w3.org/2000/svg" width="1024" height="1024" viewBox="0 0 1024 1024"><title>derivative</title><g id="derivative"><rect x="130" y="472" width="764" height="80" rx="40" ry="40"/><path d="M465.51,874.68q-1.57,7-3,16.85t-2.7,20.55q-1.24,10.67-2,20.89T457,950.6H385.1q0-3.14.34-8.42t.9-10.89q.56-5.61,1.12-10.89t.79-8.42h-.9a170.48,170.48,0,0,1-14.49,18,94,94,0,0,1-16.17,13.93,73.73,73.73,0,0,1-18.75,9.1,72.23,72.23,0,0,1-22.24,3.26q-16.62,0-29.76-5.84a60.61,60.61,0,0,1-22.35-17q-9.21-11.12-14-27.63t-4.83-37.62a168.29,168.29,0,0,1,10.11-58.06,146.2,146.2,0,0,1,29.31-48.85A142,142,0,0,1,331,727.57Q358.59,715,393.86,715q9,0,18.31.9t15.16,2l23.13-107.81h70.75ZM405.87,765.52a110.86,110.86,0,0,0-12-.67q-15.5,0-27.18,5.17a68.56,68.56,0,0,0-20.33,13.59,80.35,80.35,0,0,0-14.49,19.09,122.58,122.58,0,0,0-9.32,21.56,129.47,129.47,0,0,0-4.94,21.11,128.09,128.09,0,0,0-1.46,17.86,62.28,62.28,0,0,0,1.8,15.38,38.73,38.73,0,0,0,5.28,12.24,24.5,24.5,0,0,0,9,8.09,27.16,27.16,0,0,0,12.92,2.92,36,36,0,0,0,22.12-7.3,71.38,71.38,0,0,0,17.29-19.09A127.87,127.87,0,0,0,397.22,849a269.16,269.16,0,0,0,8.54-29.54l11.46-51.88A79,79,0,0,0,405.87,765.52Z" style="stroke:#000;stroke-miterlimit:10;stroke-width:10px"/><path d="M678.88,835.15,730.1,950.6H651.26l-20.66-60.2q-1.8-5.17-3.37-11.12t-2.92-11.57h-1.12q-3.37,5.62-6.74,11.46a82.71,82.71,0,0,1-7,10.33l-45.6,61.09H480.33L582.75,834.25,533.56,720.6h79.06l18.87,60.64a94.46,94.46,0,0,1,3.82,12.69q1.57,6.86,2.25,11.34h.9q2.7-4.94,7.19-11.57t8.09-11.57l44.92-61.54h80.63Z" style="stroke:#000;stroke-miterlimit:10;stroke-width:10px"/><path d="M465.51,332.37q-1.57,7-3,16.85t-2.7,20.55q-1.24,10.67-2,20.89T457,408.29H385.1q0-3.14.34-8.42t.9-10.89q.56-5.61,1.12-10.89t.79-8.42h-.9a170.48,170.48,0,0,1-14.49,18,94,94,0,0,1-16.17,13.93,73.73,73.73,0,0,1-18.75,9.1,72.23,72.23,0,0,1-22.24,3.26q-16.62,0-29.76-5.84a60.61,60.61,0,0,1-22.35-17q-9.21-11.12-14-27.63t-4.83-37.62a168.29,168.29,0,0,1,10.11-58.06,146.2,146.2,0,0,1,29.31-48.85A142,142,0,0,1,331,185.25q27.63-12.58,62.89-12.58,9,0,18.31.9t15.16,2L450.46,67.78h70.75ZM405.87,223.21a110.86,110.86,0,0,0-12-.67q-15.5,0-27.18,5.17a68.56,68.56,0,0,0-20.33,13.59,80.35,80.35,0,0,0-14.49,19.09,122.58,122.58,0,0,0-9.32,21.56,129.47,129.47,0,0,0-4.94,21.11,128.09,128.09,0,0,0-1.46,17.86,62.28,62.28,0,0,0,1.8,15.38,38.73,38.73,0,0,0,5.28,12.24,24.5,24.5,0,0,0,9,8.09,27.16,27.16,0,0,0,12.92,2.92,36,36,0,0,0,22.12-7.3,71.38,71.38,0,0,0,17.29-19.09,127.87,127.87,0,0,0,12.69-26.5,269.16,269.16,0,0,0,8.54-29.54l11.46-51.88A79,79,0,0,0,405.87,223.21Z" style="stroke:#000;stroke-miterlimit:10;stroke-width:10px"/></g></svg>