<?xml version="1.0" encoding="utf-8"?>
<!-- Generator: Adobe Illustrator 21.1.0, SVG Export Plug-In . SVG Version: 6.00 Build 0)  -->
<svg version="1.1"
	 id="Layer_1" image-rendering="optimizeQuality" text-rendering="geometricPrecision" shape-rendering="geometricPrecision"
	 xmlns="http://www.w3.org/2000/svg" xmlns:xlink="http://www.w3.org/1999/xlink" x="0px" y="0px" viewBox="0 0 1024 1024"
	 style="enable-background:new 0 0 1024 1024;" xml:space="preserve">
<path d="M716.6,258.6c9.1-34.2,44.2-54.4,78.4-45.3c34.1,9.2,54.4,44.3,45.2,78.4c-9.1,34.1-44.2,54.4-78.3,45.3
	C727.7,327.8,707.5,292.7,716.6,258.6z M469.3,192.3c9.2-34.1,44.3-54.4,78.4-45.2c34.1,9.1,54.4,44.2,45.3,78.3
	c-9.2,34.2-44.3,54.5-78.4,45.3C480.4,261.6,460.2,226.5,469.3,192.3z M672,472.6c15.4-12.4,36.2-17.5,56.7-12
	c34.2,9.1,54.4,44.2,45.3,78.4c-9.2,34.1-44.3,54.4-78.4,45.2c-8.9-2.3-16.9-6.5-23.6-11.9V472.6z"/>
<path d="M327.1,352l74.3-277.3c9.2-34,44.4-54.3,78.4-45.2l432.8,115.9c34,9.2,54.3,44.4,45.2,78.4L841.9,656.6
	c-9.2,34-44.4,54.3-78.4,45.2L672,677.3V611l108,29l116-432.7l-432.7-116L393.4,352H327.1z"/>
<path d="M480,480c35.4,0,64,28.7,64,64s-28.6,64-64,64c-35.3,0-64-28.7-64-64S444.7,480,480,480z M352,608c35.3,0,64,28.7,64,64
	s-28.7,64-64,64s-64-28.7-64-64S316.7,608,352,608z M224,736c35.4,0,64,28.7,64,64s-28.6,64-64,64c-35.3,0-64-28.7-64-64
	S188.7,736,224,736z"/>
<path d="M128,384h448c35.3,0,64,28.8,64,64v448c0,35.2-28.8,64-64,64H128c-35.2,0-64-28.7-64-64V448C64,412.7,92.8,384,128,384z
	 M128,448v448h448V448H128z"/>
</svg>
