<?xml version="1.0" encoding="utf-8"?>
<!-- Generator: Adobe Illustrator 18.0.0, SVG Export Plug-In . SVG Version: 6.00 Build 0)  -->
<!DOCTYPE svg PUBLIC "-//W3C//DTD SVG 1.1//EN" "http://www.w3.org/Graphics/SVG/1.1/DTD/svg11.dtd">
<svg version="1.1"
	 id="Layer_1" shape-rendering="geometricPrecision" text-rendering="geometricPrecision" image-rendering="optimizeQuality"
	 xmlns="http://www.w3.org/2000/svg" xmlns:xlink="http://www.w3.org/1999/xlink" x="0px" y="0px" width="1024px" height="1024px"
	 viewBox="0 0 1024 1024" enable-background="new 0 0 1024 1024" xml:space="preserve">
<title>door_exit icon</title>
<desc>door_exit icon from the IconExperience.com O-Collection. Copyright by INCORS GmbH (www.incors.com).</desc>
<g>
	<path id="curve2" fill="#252525" d="M256,80h352v64H320v192.4l0,0c-16.7,2.3-31.1,13.2-37.7,29.2c-7.5,18-3.4,38.5,10.4,52.3
		l14.1,14.1H256V80z M608,880v32H352v-32H608z M320,880v32h-64V624h50.8l-14.1,14.1c-13.8,13.8-17.9,34.3-10.4,52.3
		c6.6,16,20.9,26.8,37.7,29.2V880L320,880z M781.1,80H896v832h-32V160.6L781.1,80z"/>
	<path fill="#252525" d="M704,48h-64v928h64l128-64V176L704,48z M800,560h-32c0,17.7-7.2,32-16,32h-32c-8.8,0-16-14.3-16-32
		s7.2-32,16-32h16h16h48V560z"/>
	<path id="curve0" fill="#252525" d="M455.8,669.9l118.6-118.6c12.5-12.5,12.4-32.8,0-45.3L455.8,387.4
		c-12.4-12.4-27.7-18.6-45.3-18.7l-83.9-0.7c-6.6-0.1-12.3,3.8-14.8,9.9s-1.2,12.8,3.5,17.4L384,464H144c-8.8,0-16,7.2-16,16v96
		c0,8.8,7.2,16,16,16h240l-68.7,68.7c-4.7,4.7-6,11.3-3.5,17.4c2.5,6.1,8.2,9.8,14.8,9.9l83.9,0.7
		C428.1,688.8,443.3,682.4,455.8,669.9L455.8,669.9z"/>
</g>
</svg>
