<?xml version="1.0" encoding="utf-8"?>
<!-- Generator: Adobe Illustrator 19.2.1, SVG Export Plug-In . SVG Version: 6.00 Build 0)  -->
<svg version="1.1" id="Layer_1" xmlns="http://www.w3.org/2000/svg" xmlns:xlink="http://www.w3.org/1999/xlink" x="0px" y="0px"
	 viewBox="0 0 1024 1024" style="enable-background:new 0 0 1024 1024;" xml:space="preserve">
<style type="text/css">
	.st0{fill:#010202;stroke:#000000;stroke-miterlimit:10;}
</style>
<path class="st0" d="M907,286.5H117c-16.5,0-30-13.5-30-30v-65c0-16.5,13.5-30,30-30h790c16.5,0,30,13.5,30,30v65
	C937,273,923.5,286.5,907,286.5z"/>
<path class="st0" d="M907,574.5H117c-16.5,0-30-13.5-30-30v-65c0-16.5,13.5-30,30-30h790c16.5,0,30,13.5,30,30v65
	C937,561,923.5,574.5,907,574.5z"/>
<path class="st0" d="M907,862.5H117c-16.5,0-30-13.5-30-30v-65c0-16.5,13.5-30,30-30h790c16.5,0,30,13.5,30,30v65
	C937,849,923.5,862.5,907,862.5z"/>
</svg>
