<?xml version="1.0" encoding="utf-8"?>
<!-- Generator: Adobe Illustrator 21.0.0, SVG Export Plug-In . SVG Version: 6.00 Build 0)  -->
<svg version="1.1"
	 id="Layer_1" shape-rendering="geometricPrecision" image-rendering="optimizeQuality" text-rendering="geometricPrecision"
	 xmlns="http://www.w3.org/2000/svg" xmlns:xlink="http://www.w3.org/1999/xlink" x="0px" y="0px" viewBox="0 0 1024 1024"
	 style="enable-background:new 0 0 1024 1024;" xml:space="preserve">
<path d="M576,800c0,88.4-71.6,160-160,160c-74.6,0-137.2-51-155-120c-2.5-9.9-0.5-19.5,5.7-27.6c6.3-8.1,15.1-12.4,25.3-12.4
	c14.8,0,27.3,9.7,31,24c10.7,41.4,48.3,72,93,72c53,0,96-43,96-96c0-32.1,7.3-62.5,22.1-91c34.7-66.5,101-105.1,152.8-156.3
	c58.6-58,81.1-118.1,81.1-200.7c0-123.7-100.3-224-224-224c-114.2,0-208.5,85.5-222.3,196c-2,16.1-15.5,28-31.7,28
	c-9.5,0-17.7-3.7-24-10.8c-6.3-7.1-9-15.7-7.8-25.2C275.9,174,397.1,64,544,64c159.1,0,288,128.9,288,288C832,640,576,640,576,800z
	 M704,352c0,17.7-14.3,32-32,32s-32-14.3-32-32c0-26.5-10.7-50.5-28.1-67.9C594.5,266.7,570.5,256,544,256s-50.5,10.7-67.9,28.1
	S448,325.5,448,352h-0.1v36.5c22.5,6,42.7,17.8,58.7,33.8c23,23,37.4,54.6,37.4,89.7c0,35.2-14.4,67.3-37.6,90.5
	C483.3,625.6,451.3,640,416,640c-17.7,0-32-14.3-32-32s14.3-32,32-32c17.6,0,33.6-7.2,45.2-18.8S480,529.6,480,512
	c0-17.3-7.2-33-18.7-44.5c-11.9-11.9-28.2-19.3-45.8-19.6c-17.4-0.3-31.4-14.5-31.4-31.9v-64H384c0-44.2,17.9-84.2,46.8-113.2
	c29-28.9,69-46.8,113.2-46.8s84.2,17.9,113.2,46.8C686.1,267.8,704,307.8,704,352z"/>
</svg>
