<?xml version="1.0" encoding="utf-8"?>
<!-- Generator: Adobe Illustrator 18.1.0, SVG Export Plug-In . SVG Version: 6.00 Build 0)  -->
<!DOCTYPE svg PUBLIC "-//W3C//DTD SVG 1.1//EN" "http://www.w3.org/Graphics/SVG/1.1/DTD/svg11.dtd">
<svg version="1.1"
	 id="Layer_1" text-rendering="geometricPrecision" shape-rendering="geometricPrecision" image-rendering="optimizeQuality"
	 xmlns="http://www.w3.org/2000/svg" xmlns:xlink="http://www.w3.org/1999/xlink" x="0px" y="0px" width="1024px" height="1024px"
	 viewBox="256 -256 1024 1024" enable-background="new 256 -256 1024 1024" xml:space="preserve">
<path id="curve2" d="M768,160c53,0,96,43,96,96s-43,96-96,96s-96-43-96-96c0-6.8,0.7-13.5,2.1-19.9c6.5,2.7,13.6,4.2,21.1,4.2
	c30.5,0,55.2-24.7,55.2-55.2c0-8-1.7-15.6-4.8-22.5c7.2-1.7,14.7-2.7,22.5-2.7L768,160z"/>
<path d="M768,0C626.6,0,512,114.6,512,256s114.6,256,256,256s256-114.6,256-256S909.4,0,768,0z M768,384c-70.7,0-128-57.3-128-128
	c0-15.1,2.6-29.7,7.5-43.1c-4.7-8.1-7.5-17.6-7.5-27.7c0-30.5,24.7-55.2,55.2-55.2c9.6,0,18.5,2.4,26.4,6.7
	c14.4-5.6,30.1-8.7,46.4-8.7c0,0,0,0,0,0h0.1c0,0,0,0-0.1,0c70.7,0,128,57.3,128,128C896,326.7,838.7,384,768,384z"/>
<path id="curve0" d="M1241.4,286.5C1157.2,476.6,976.9,608,768,608S378.8,476.6,294.6,286.5c-8.8-20-8.8-41.1,0-61.1
	C378.8,35.3,559.1-96.1,768-96.1s389.2,131.4,473.4,321.5C1250.2,245.4,1250.2,266.5,1241.4,286.5z M768,544
	c157.8,0,296.4-89.4,379.1-219.2c27.4-43,27.4-94.7,0-137.6C1064.4,57.4,925.8-32,768-32S471.6,57.4,388.9,187.2
	c-27.4,43-27.4,94.7,0,137.6C471.4,454.2,609.8,544,768,544z"/>
</svg>
