<svg xmlns="http://www.w3.org/2000/svg" width="1024" height="1024" viewBox="0 0 1024 1024">
  <title>factorial</title>
  <g id="factorial">
    <rect x="157.25" y="281.75" width="500" height="500"/>
    <g>
      <path d="M832.67,781.75A52,52,0,0,1,795,766.38a50.89,50.89,0,0,1-15.65-37.54,53.33,53.33,0,0,1,53.35-53.35c14.36,0,27,5.25,37.48,15.59A51.28,51.28,0,0,1,886,728.84a50.55,50.55,0,0,1-15.89,37.56A52.23,52.23,0,0,1,832.67,781.75Zm-35.4-183.8-8-458.61h85.1l-8.46,458.61Z"/>
      <path d="M832.67,776.75a47,47,0,0,1-34.19-13.94,45.86,45.86,0,0,1-14.16-34,48.33,48.33,0,0,1,48.35-48.35q19.6,0,34,14.15A46.25,46.25,0,0,1,881,728.84a45.52,45.52,0,0,1-14.37,34Q852.27,776.75,832.67,776.75Zm36.59-632.41L861,592.95h-58.8l-7.84-448.61Z"/>
    </g>
  </g>
</svg>
