<?xml version="1.0" encoding="utf-8"?>
<!-- Generator: Adobe Illustrator 18.0.0, SVG Export Plug-In . SVG Version: 6.00 Build 0)  -->
<!DOCTYPE svg PUBLIC "-//W3C//DTD SVG 1.1//EN" "http://www.w3.org/Graphics/SVG/1.1/DTD/svg11.dtd">
<svg version="1.1"
	 id="Layer_1" shape-rendering="geometricPrecision" text-rendering="geometricPrecision" image-rendering="optimizeQuality"
	 xmlns="http://www.w3.org/2000/svg" xmlns:xlink="http://www.w3.org/1999/xlink" x="0px" y="0px" width="1024px" height="1024px"
	 viewBox="0 0 1024 1024" enable-background="new 0 0 1024 1024" xml:space="preserve">
<path d="M512,64C264.6,64,64,264.6,64,512s200.6,448,448,448s448-200.6,448-448S759.4,64,512,64z M512,896
	c-212.1,0-384-171.9-384-384s171.9-384,384-384s384,171.9,384,384S724.1,896,512,896z"/>
<path id="rss-icon" d="M422.9,668.3c0,36.9-30,66.9-66.9,66.9s-66.9-30-66.9-66.9s30-66.9,66.9-66.9
	C393,601.4,422.9,631.3,422.9,668.3z M289.1,409.3v99.1c124.5,1.3,225.5,102.3,226.8,226.8H615C613.7,555.8,468.5,410.6,289.1,409.3
	z M289.1,339.9c105.2,0.5,204.1,41.6,278.6,116.1c74.6,74.6,115.8,173.7,116.1,279.2h99.1c-0.6-272.6-221.3-493.4-493.8-494.4V339.9
	z"/>
</svg>
