<?xml version="1.0" encoding="utf-8"?>
<!-- Generator: Adobe Illustrator 18.0.0, SVG Export Plug-In . SVG Version: 6.00 Build 0)  -->
<!DOCTYPE svg PUBLIC "-//W3C//DTD SVG 1.1//EN" "http://www.w3.org/Graphics/SVG/1.1/DTD/svg11.dtd">
<svg version="1.1"
	 id="Layer_1" shape-rendering="geometricPrecision" text-rendering="geometricPrecision" image-rendering="optimizeQuality"
	 xmlns="http://www.w3.org/2000/svg" xmlns:xlink="http://www.w3.org/1999/xlink" x="0px" y="0px" width="1024px" height="1024px"
	 viewBox="0 0 1024 1024" enable-background="new 0 0 1024 1024" xml:space="preserve">
<title>find_again icon</title>
<desc>find_again icon from the IconExperience.com O-Collection. Copyright by INCORS GmbH (www.incors.com).</desc>
<g>
	<path id="curve2" fill="#252525" d="M288,672c53,0,96,43,96,96s-43,96-96,96s-96-43-96-96c0-9.8,1.5-19.3,4.2-28.3
		c7.5,16.7,24.3,28.3,43.8,28.3c26.5,0,48-21.5,48-48c0-19.5-11.6-36.2-28.3-43.8C268.6,673.5,278.1,672,288,672z M736,672
		c53,0,96,43,96,96s-43,96-96,96s-96-43-96-96c0-9.8,1.5-19.3,4.2-28.3c7.5,16.7,24.3,28.3,43.8,28.3c26.5,0,48-21.5,48-48
		c0-19.5-11.6-36.2-28.3-43.8C716.6,673.5,726.1,672,736,672z"/>
	<path fill="#252525" d="M899.9,670.8L764.6,458.3c-17.2,14.3-37.9,21.7-60.8,21.7H587.9c-19.5,0-36.8-11.5-44.3-29.6
		c-4.1-10.1-4.7-20.9-2-30.9c-8.7-1.8-17.7-2.8-26.9-2.8c-21,0-40.9,5.1-58.4,14.1C434,402.5,399.6,384,368.1,384h-0.2
		c-51.9,0.1-76.6,24.3-97.7,57.4L122.7,673C101,707.3,96,742,96,768c0,106,86,192,192,192c97.3,0,177.7-72.3,190.3-166.1
		c10.5,3.9,21.8,6.1,33.7,6.1c11.8,0,23.2-2.2,33.7-6.1C558.4,887.8,638.7,960,736,960c106,0,192-86,192-192
		C928,742,923,707.1,899.9,670.8z M288,896c-70.7,0-128-57.3-128-128s57.3-128,128-128s128,57.3,128,128S358.7,896,288,896z
		 M736,896c-70.7,0-128-57.3-128-128s57.3-128,128-128s128,57.3,128,128S806.7,896,736,896z"/>
	<path id="curve0" fill="#252525" d="M749.5,82.8l150.4,150.4c12.5,12.5,12.5,32.8,0,45.3L749.1,429.3
		c-12.5,12.5-27.6,18.7-45.3,18.7H587.9c-6.6,0-12.3-3.8-14.8-9.9c-2.5-6.1-1.2-12.8,3.5-17.4l100.9-100.9L608,320H434.8
		c-17.6,0-33.6,7.2-45.2,18.8c-4.1,4.1-7.6,8.7-10.5,13.7c-3.7-0.3-7.4-0.5-11.1-0.5c-58.4,0-94.6,24.7-124.8,72.2l-0.5,0.7V384
		c0-52.9,21.6-100.9,56.3-135.7c34.8-34.8,82.8-56.3,135.7-56.3c108.5,0,134.3-0.2,242.8-0.2L577,91.3c-4.7-4.7-6-11.3-3.5-17.4
		s8.2-9.9,14.8-9.9h115.9c17.6,0,32.8,6.3,45.3,18.7V82.8z"/>
</g>
</svg>
