<?xml version="1.0" encoding="utf-8"?>
<!-- Generator: Adobe Illustrator 18.1.0, SVG Export Plug-In . SVG Version: 6.00 Build 0)  -->
<!DOCTYPE svg PUBLIC "-//W3C//DTD SVG 1.1//EN" "http://www.w3.org/Graphics/SVG/1.1/DTD/svg11.dtd">
<svg version="1.1"
	 id="Layer_1" text-rendering="geometricPrecision" shape-rendering="geometricPrecision" image-rendering="optimizeQuality"
	 xmlns="http://www.w3.org/2000/svg" xmlns:xlink="http://www.w3.org/1999/xlink" x="0px" y="0px" width="1024px" height="1024px"
	 viewBox="256 -256 1024 1024" enable-background="new 256 -256 1024 1024" xml:space="preserve">
<g>
	<path d="M768-192C520.6-192,320,8.6,320,256s200.6,448,448,448s448-200.6,448-448S1015.4-192,768-192z M768,640
		c-212.1,0-384-171.9-384-384s171.9-384,384-384s384,171.9,384,384S980.1,640,768,640z"/>
	<g enable-background="new    ">
		<path stroke="#000000" stroke-width="10" stroke-miterlimit="10" d="M487.9,14.6v-3.3c3.1-2,7.4-3.4,12.9-4.3
			c4.2-3.3,10.4-6.7,18.8-10.3c11.5-5.1,18.8-7.6,21.9-7.6c2.1,0,5.6,1.4,10.6,4.3c4.7-2.4,7.8-4.2,9.4-5.3c3.1-1.8,6.1-3,9-3.6
			c4.9,4.2,11.3,7.1,19.2,8.6c14.9,2.9,24.5,4.3,28.9,4.3c0.5,0,1,0,1.6,0l25-2l22.3,16.5c9.1-9.5,14.3-14.2,15.6-14.2
			c2.6,0,6.5,1.5,11.7,4.6c1.3,0.7,2.9,1,4.7,1l9.4-0.3l25,3.6l16.4-1.3L766.7,8l16.4-0.3L809,8.3l11.3-2.6l22.3,0.7l9.8-0.3h11.3
			l37.9-4.6c18.2,1.3,29.2,2,32.8,2c8.6,0,14.5-0.8,17.6-2.3c3.9-1.8,7.6-3,10.9-3.6l63.3-10.9c0.3,1.5,0.4,2.9,0.4,4
			c0,1.1-0.8,3.1-2.3,6c-2.9,5.7-5,9.4-6.3,10.9c-1.3,1.5-4.4,4.1-9.4,7.6c-10.4,7.3-18.8,14.2-25,20.8c-4.2-4.8-7.6-7.3-10.2-7.3
			H965c-0.5,0-4.7-4-12.5-11.9l-0.4-0.3c-1.8,0.2-4.4,4.6-7.8,13.2v5.3c-7-2.2-11.1-4-12.1-5.3c-3.4-4-6.9-8-10.6-12.2
			c-0.3-0.4-0.5-0.7-0.8-0.7l-24.2,15.2c-0.8,0.7-2.5,1-5.1,1c-6,0-13.9-0.4-23.9-1.3c-3.7-0.2-9.1-0.5-16.4-1
			c-3.7-4.6-7.6-6.8-11.7-6.6h-2c-5.2-0.2-8.5-0.3-9.8-0.3c-3.4,0-9.4,1.1-18,3.3c-5,1.3-11.9,2-20.7,2c-3.7,0-11.5-1.9-23.5-5.6
			l-10.6,1h-11.3c-6.5,2.2-9.9,3.3-10.2,3.3c-0.3,0-12.6-2.3-37.1-6.9l-9.8-9.9l-12.1,14.2L652.9,8.3l-6.3,9.9
			c-3.9,6.4-9.8,9.6-17.6,9.6h-0.8c-2.6,0.2-5.9-1.7-9.8-5.6c-7.8-7.9-13.8-11.9-18-11.9c-5.2,0-9,5.8-11.3,17.5l1.2,1.3L554,61.9
			l34.4,8.6l-0.4,9.9v5.3c-0.3,2.2-2.5,5.5-6.6,9.9l7.8,6.6l1.6,32.1c7-0.4,12.3-0.7,15.6-0.7c5.5,0,18.8,1.5,39.9,4.6l48.1,1.7
			l9.8,3.3l12.9-4c11.5,1.8,18.2,2.6,20.3,2.6c3.1,0,7-1.1,11.7-3.3c0.8-0.2,1.6-0.3,2.3-0.3c1.6,0,4.4,1,8.6,3l2-3.6
			c2.6-0.4,4-0.7,4.3-0.7l26.2,2.6c11.5,0.2,17.5,0.3,18,0.3c0.8,0,3.6-2.1,8.6-6.3l3.5,12.2c0.8,1.5,2.1,2.3,3.9,2.3
			c1.6,0,10.4-4.3,26.6-12.9c3.1-1.8,5.5-2.6,7-2.6c0.3,0,5.3,1.2,15.3,3.6c1,0.2,2,0.3,2.7,0.3c3.9,0,8.5-0.8,13.7-2.3
			c8.1-2.4,24.1-4.8,48.1-7.3c16.4-4.2,27.9-6.7,34.4-7.6c0,1.5,0,2.6,0,3.3c0,4.2-0.7,7.3-2,9.3c-1.3,2.2-4.8,4.4-10.6,6.6l2,10.9
			c-7.3,3.8-14.3,8.3-21.1,13.6c-7.8-0.2-12.9-0.3-15.3-0.3c-13.6-0.4-23.2-1.7-28.9-3.6c-6.5-2.2-12.5-4.2-18-6
			c-6.8,3.8-12.1,6.1-16,6.9c-1.6,0.2-11.7,0.4-30.5,0.7l-8.6,0.3c-10.2-2-16.4-3-18.8-3c-2.3,0-4.7,0.1-7,0.3
			c-13,1.8-20.3,2.6-21.9,2.6c-0.3,0-5.6-0.5-16-1.7c-1.8-0.2-3.3-0.3-4.3-0.3c-3.1,0-8.1,0.2-14.9,0.7c-2.3,0.2-4.7,0.3-7,0.3
			c-1.8,0-6.8-0.9-14.9-2.6l-23.5,4l-13.3-1l-13.3,1H660l-15.6,1c-9.1-2.9-16.4-4.7-21.9-5.6l-1.6,1.7l-1.2,7.3l-20.7-2
			c-0.8,0.7-1.4,3.8-2,9.3c-1.3,4.9-2,7.5-2,7.9c0,2.2,0.4,6.1,1.2,11.6c0.8,15.9,1.3,26.8,1.6,32.7c-3.1,2-6.3,3.1-9.4,3.3
			c-2.9,2.6-4.3,5.1-4.3,7.3c0,5.1,3.9,9.4,11.7,12.9c-12.5,3.3-20.9,7.1-25,11.2c-3.1,3.3-4.7,9.3-4.7,17.9
			c0,9.5,4.3,15.9,12.9,19.2c11.7,4.6,17.6,7.7,17.6,9.3l-0.4,0.7c-4.2,6.2-6.3,10.8-6.3,13.9c0,2,0.4,4.5,1.2,7.6l6.6,4.3l1.2,3.3
			l-2.7,2.3c-3.7,0.2-6.4,0.9-8.2,2c1,2.4,3.5,4.7,7.4,6.9c0,2.6,0,4.3,0,5l0.8,50.3c0,2.4-0.9,4.5-2.7,6.3c-0.3,0.4-4,3.5-11.3,9.3
			c-1,0.7-1.6,1.8-1.6,3.3c0,4.4,5.1,7.1,15.3,7.9l0.8,28.8l0.8,53.6c1.6,7.7,2.3,11.9,2.3,12.6c0,5.1-3.9,10-11.7,14.9
			c3.1,14.3,8.2,21,15.3,20.2c0,6.4,0.1,10.6,0.4,12.6c1,13.7,1.6,21.8,1.6,24.5c0,6.6-2.3,9.9-7,9.9c-2.6,0-5.6-0.6-9-1.7
			c-0.3,5.7-1.3,9.3-3.1,10.6c-0.5,0.4-3.3,1.3-8.2,2.6l-11.3,4.3l-16.4,4.3l-13.7,4c-2.1,0-5.5-1.7-10.2-5c1-2.2,1.6-3.6,1.6-4.3
			c0-2.4-1.8-5.6-5.5-9.6c2.9-4,6.1-9.5,9.8-16.5c4.2-5.3,6.4-8.5,6.6-9.6c0.3-0.7,0.4-3.5,0.4-8.6c3.4-15,5.1-29.3,5.1-43
			c0-1.3-0.4-4.3-1.2-8.9c1.6-1.1,2.9-1.7,3.9-1.7c2.6,0,5.6,0.7,9,2l-3.1-6c-2.9-0.9-4.8-1.3-5.9-1.3c-3.7-0.7-5.9-1.4-6.6-2.3
			c-1-1.1-1.6-6.2-1.6-15.2c0-13.9,0.1-21.2,0.4-21.8c0.5-1.8,3-4.1,7.4-6.9c-0.5-1.5-0.8-3.1-0.8-4.6c0-1.8,1.7-3.3,5.1-4.6l1.2,1
			l3.1-2v-8.6l-2.7,1l-2-6.9c-1.3,0.2-2.5,0.3-3.5,0.3c-4.7,0-7-1.9-7-5.6v-0.7c0-3.3,0.1-6.6,0.4-9.9c0.5-3.5,0.8-11.7,0.8-24.5
			c2.6-4.6,3.9-7.3,3.9-7.9c0-1.5-0.8-3.6-2.3-6.3c4.4-4.4,6.6-8.2,6.6-11.2c0-2.4-2.2-5-6.6-7.6c-0.3-5.7-0.4-10-0.4-12.9
			c0-3.5,0.1-6.7,0.4-9.6c0.5-3.5,0.8-6.1,0.8-7.6c0-0.9-1-4.6-3.1-11.2c-1-2.6-1.6-5.8-1.6-9.6c0-4.8,2.6-8.3,7.8-10.3v-6.6h1.6
			l6.3-5l-3.9-11.2l-6.6-1.7c-2.6-5.5-4.2-9-4.7-10.6c-0.5-1.1-0.8-10.1-0.8-27.1l-2.7-12.9l-1.2-10.6c-0.8-7.7-1.2-12.1-1.2-13.2
			c0-4.6,0.4-10.5,1.2-17.5c5.7,0.2,8.9-0.4,9.4-2c0.5-0.7,1.3-3.4,2.3-8.3L533.7,164c2.1-5.5,3.1-9.1,3.1-10.9
			c0-1.1-1.2-6.2-3.5-15.2l-2.3-17.9l-4.3-16.2l-1.6-19.5l-3.1-10.9l2-10.6v-0.7c-0.3-2.4-2.7-7.6-7.4-15.5
			c-1.8-2.9-2.7-7.2-2.7-12.9c0-2.4,0.1-5.8,0.4-10.3l-14.1,2L487.9,14.6z"/>
	</g>
	<g enable-background="new    ">
		<path stroke="#000000" stroke-width="10" stroke-miterlimit="10" d="M671.2,386.9c3.4-5.4,8.9-16.2,16.5-32.6
			c4.9-10.3,8.3-15.6,10.3-16.1c4.4-3.7,8.8-7.4,13.2-11.4l8.4-9.5l12.1-10.3l16.1-15.4l9.2-5.5l8.4-6.2l8.1-3.3l10.6-8.1l19.4-7
			c12-4.1,19.4-6.5,22.3-7c5.9-0.7,11-1.5,15.4-2.2c4.9,4.9,8.4,7.5,10.6,7.7c0.2,0,6.3-1.7,18.3-5.1c1-0.2,1.8-0.4,2.6-0.4
			c0.2,0,5.6,1.3,16.1,4c1.2,0.2,3.3,0.5,6.2,0.7c4.4,0.2,7.6,0.6,9.5,1.1c11.5-3.4,17.8-5.1,19-5.1c4.9,0,9.4,1.6,13.5,4.8
			c-1.2,6.1-2.9,10.1-5.1,12.1c-2.2,2.2-6.2,4.2-12.1,5.9l-2.2,9.9c-7.8,3.7-12.9,6.6-15.4,8.8c-3.2,2.2-5.4,3.4-6.6,3.7l-5.5-0.7
			c-0.7,0-1.2,0-1.5,0l-13.2,0.7h-0.4l-10.6-1.5l-8.8-0.7c-8.3-2.7-15.3-4.3-20.9-4.8c-1.7,0-4.4-0.1-8.1-0.4
			c-4.4-0.5-8.1-0.7-11-0.7c-2,0-11,1.5-27.1,4.4c-8.5,1-14.2,2.1-16.8,3.3c-2.7,1.7-7.9,6.5-15.7,14.3c-2,2.2-6.2,3.8-12.8,4.8
			c-0.7,5.6-2.1,9.3-4,11c-2.4,2-6.8,3.4-13.2,4.4c0.5,2.7,0.7,5.1,0.7,7.3c0,1-3.3,6.2-9.9,15.7c-2,2.9-2.9,17.8-2.9,44.7
			c0,5.9,3,16.7,9.2,32.6c-3.9,6.8-6,11.8-6.2,15c1.5,1.2,5.6,2.7,12.5,4.4c10.7,13.7,17.6,23.7,20.5,30l8.8,1.1
			c3.7,4.9,6.1,7.8,7.3,8.8l13.9,9.2l9.9,7.3c9.3,3.7,15,5.7,17.2,6.2c1.5,0.5,7.1,1,16.8,1.5l13.5,2.9l12.8,0.7l9.5,1.1
			c4.9-0.5,12.9-3.3,24.2-8.4l6.6,1.8c3.2-2,5.2-3.3,6.2-4c2-1,6.6-4.3,13.9-9.9c6.3-0.7,12-3.3,16.8-7.7c3.7-3.9,7.8-7.2,12.5-9.9
			c2-1.2,4-3,6.2-5.5c5.9-6.8,10.1-10.3,12.8-10.3c2,0,3.9,1.2,5.9,3.7c-2.4,10-3.7,18.4-3.7,25.3c-4.9,4.6-8.9,9.5-12.1,14.6
			c-5.4,1.7-12.7,5.7-22,12.1c-3.9,0.7-7.5,2.2-10.6,4.4c-4.6,3.2-8.5,4.8-11.7,4.8l-12.5-0.7H892c-12.9,2.7-20.6,4.4-23.1,5.1
			c-0.7,0.2-4,2.4-9.9,6.6c-1.2,0.7-2.3,1.1-3.3,1.1l-37-0.4c-1.5,0-5,0.4-10.6,1.1c-5.9-3.9-11.4-6.1-16.5-6.6
			c-6.8-0.7-16.7-2.9-29.7-6.6l-8.8-1.1l-10.3-3.3c-6.6-1.5-10.7-2.5-12.3-3.1c-1.6-0.6-3.5-2-5.7-4.2c-12.7-12.5-19-19.8-19-22
			c0-2,0.4-4.3,1.1-7l-0.4-1.1l-12.5,2.2l-0.7-0.7c-4.4-9-7.6-14.8-9.5-17.2c-3.9-5.6-6-10.1-6.2-13.5c-0.2-1.5-0.7-5.9-1.5-13.2
			v-1.1l1.8-10.3c-6.8-4.9-10.3-8.3-10.3-10.3c0-0.7,5.7-4.4,17.2-11c6.3-3.7,9.5-9.2,9.5-16.5C694.6,393.4,686.8,388.9,671.2,386.9
			z"/>
	</g>
</g>
</svg>
