<svg xmlns="http://www.w3.org/2000/svg" width="1024" height="1024" viewBox="0 0 1024 1024"><title>fx</title><g id="fx"><path d="M476.59,184.84a257.81,257.81,0,0,0-30-9.52,129.93,129.93,0,0,0-32-4.16q-34.66,0-53.22,19T333.53,249.8L321.81,305H435.58L411.66,418.73H295.44L176.8,971H22.5L140.66,418.73h-85L80.59,305h84l16.13-71.78q20.48-91.31,76.41-135.73T408.72,53a327,327,0,0,1,50,3.91q25.15,3.91,41.75,9.28Z"/><path d="M783.23,554,894.56,805H723.17L678.25,674.11q-3.91-11.23-7.33-24.17t-6.34-25.14h-2.44Q654.8,637,647.48,649.7a178,178,0,0,1-15.12,22.45L533.23,805H351.59L574.25,552,467.31,305H639.19l41,131.83a205.67,205.67,0,0,1,8.3,27.59q3.42,14.91,4.89,24.66h2q5.86-10.73,15.63-25.14t17.58-25.16L826.2,305h175.3Z"/></g></svg>