<?xml version="1.0" encoding="utf-8"?>
<!-- Generator: Adobe Illustrator 19.2.1, SVG Export Plug-In . SVG Version: 6.00 Build 0)  -->
<svg version="1.1"
	 id="Layer_1" image-rendering="optimizeQuality" shape-rendering="geometricPrecision" text-rendering="geometricPrecision"
	 xmlns="http://www.w3.org/2000/svg" xmlns:xlink="http://www.w3.org/1999/xlink" x="0px" y="0px" viewBox="0 0 1024 1024"
	 style="enable-background:new 0 0 1024 1024;" xml:space="preserve">
<title>gearwheel icon</title>
<desc>gearwheel icon from the IconExperience.com O-Collection. Copyright by INCORS GmbH (www.incors.com).</desc>
<path d="M714,242c11,8.2,21.4,17,31.3,26.5c4.2,4,9.7,5.4,15.3,3.9l87.4-23.8c13.5-3.7,27.2,1.5,35,13.1
	c12.7,19.1,23.4,37.7,33.4,58.4c6.1,12.6,3.5,27.1-6.6,36.8L844.9,420c-4.2,4-5.8,9.5-4.5,15.1c3.2,13.4,5.5,26.9,6.9,40.6
	c0.6,5.8,4,10.4,9.2,12.8l82.2,38c12.7,5.9,19.9,18.6,18.4,32.5c-2.5,22.8-6.4,44-12,66.2c-3.5,13.6-14.8,23-28.7,24l-90.4,6.6
	c-5.8,0.4-10.5,3.5-13.1,8.7c-6.2,12.2-13.2,24-20.8,35.4c-3.2,4.8-3.7,10.5-1.2,15.7l38.5,81.8c6,12.7,3.3,27.1-6.9,36.8
	c-16.6,15.8-33.2,29.6-51.8,43c-11.4,8.1-26.1,8.1-37.4-0.1L659.9,824c-4.7-3.3-10.4-4-15.7-1.7c-12.5,5.3-25.3,9.9-38.3,13.6
	c-5.6,1.6-9.6,5.7-11.1,11.3l-23,87.4c-3.6,13.6-15,23-29,23.8c-23,1.4-44.5,1.3-67.5-0.5c-13.9-1-25.2-10.5-28.6-24L424.6,846
	c-1.4-5.6-5.3-9.7-10.9-11.4c-12.8-3.9-25.4-8.6-37.7-14.1c-5.3-2.3-11-1.7-15.7,1.6l-73.9,52.2c-11.5,8.1-26.2,7.9-37.5-0.4
	c-18.6-13.7-35-27.7-51.5-43.9c-10-9.8-12.6-24.2-6.4-36.8l39.5-81.6c2.5-5.2,2.1-10.9-1-15.7c-7.3-11.2-13.9-22.8-19.8-34.8
	c-2.6-5.1-7.3-8.3-13-8.8l-90.4-7.6c-14-1.1-25.1-10.7-28.4-24.3c-5.5-22.5-9.1-43.8-11.3-66.8c-1.4-13.9,6-26.6,18.7-32.3
	l82.7-37.1c5.3-2.3,8.7-6.9,9.4-12.7c1.5-13.2,3.9-26.4,7.1-39.4c1.3-5.6-0.2-11-4.3-15.1l-64.4-63.9c-9.9-9.9-12.3-24.3-6.1-36.9
	c10.2-20.7,21.1-39.3,34.2-58.4c7.9-11.6,21.6-16.6,35.1-12.7l87.1,24.7c5.6,1.6,11.1,0.3,15.4-3.7c9.8-9.2,20.1-17.8,30.9-25.8
	c4.6-3.4,7-8.6,6.5-14.3l-8.3-90.4c-1.3-13.9,6.2-26.6,19-32.2c21-9.3,41.3-16.6,63.5-22.8c13.5-3.8,27.3,1.2,35.2,12.8l50.8,75
	c3.2,4.7,8.3,7.3,14.1,7c13.6-0.8,27.2-0.7,40.7,0.1c5.8,0.4,10.9-2.1,14.2-6.8l51.7-74.5c8-11.5,21.9-16.4,35.3-12.5
	c22,6.4,42.2,13.9,63.2,23.3c12.7,5.8,20.1,18.5,18.6,32.5l-9.2,90C707.1,233.3,709.4,238.5,714,242z M512,320
	c-106,0-192,86-192,192s86,192,192,192s192-86,192-192S618,320,512,320z"/>
</svg>
