<?xml version="1.0" encoding="utf-8"?>
<!-- Generator: Adobe Illustrator 18.0.0, SVG Export Plug-In . SVG Version: 6.00 Build 0)  -->
<!DOCTYPE svg PUBLIC "-//W3C//DTD SVG 1.1//EN" "http://www.w3.org/Graphics/SVG/1.1/DTD/svg11.dtd">
<svg version="1.1"
	 id="Layer_1" shape-rendering="geometricPrecision" text-rendering="geometricPrecision" image-rendering="optimizeQuality"
	 xmlns="http://www.w3.org/2000/svg" xmlns:xlink="http://www.w3.org/1999/xlink" x="0px" y="0px" width="1024px" height="1024px"
	 viewBox="0 0 1024 1024" enable-background="new 0 0 1024 1024" xml:space="preserve">
<path d="M512,64C264.6,64,64,264.6,64,512s200.6,448,448,448s448-200.6,448-448S759.4,64,512,64z M512,896
	c-212.1,0-384-171.9-384-384s171.9-384,384-384s384,171.9,384,384S724.1,896,512,896z"/>
<g id="google-plus-icon">
	<path d="M800.4,351.5h-76.5V428h-38.2v-76.5h-76.5v-38.2h76.5v-76.5h38.2v76.5h76.5V351.5z M584.2,667.8
		c0,57.3-52.3,127.1-184,127.1c-96.3,0-176.6-41.5-176.6-111.4c0-53.9,34.1-123.9,193.7-123.9c-23.7-19.3-29.5-46.3-15-75.5
		C308.8,484,261,429.1,261,359.4c0-68.2,50.7-130.2,154.2-130.2c26.1,0,165.8,0,165.8,0l-37,38.9h-43.5c30.7,17.6,47,53.8,47,93.7
		c0,36.6-20.2,66.3-49,88.6c-51.1,39.5-38,61.6,15.5,100.6C566.8,590.5,584.2,621,584.2,667.8z M480.8,364.2
		c-7.7-58.7-45.9-106.8-90.6-108.1c-44.7-1.3-74.6,43.6-66.9,102.2c7.7,58.7,50.2,99.6,94.8,101
		C462.8,460.7,488.5,422.9,480.8,364.2z M526.9,673.6c0-48.3-44-94.2-117.9-94.2c-66.6-0.7-123,42.1-123,91.7
		c0,50.6,48.1,92.8,114.6,92.8C485.8,763.8,526.9,724.3,526.9,673.6z"/>
</g>
</svg>
