<?xml version="1.0" encoding="utf-8"?>
<!-- Generator: Adobe Illustrator 19.2.1, SVG Export Plug-In . SVG Version: 6.00 Build 0)  -->
<svg version="1.1"
	 id="Layer_1" image-rendering="optimizeQuality" shape-rendering="geometricPrecision" text-rendering="geometricPrecision"
	 xmlns="http://www.w3.org/2000/svg" xmlns:xlink="http://www.w3.org/1999/xlink" x="0px" y="0px" viewBox="0 0 1024 1024"
	 style="enable-background:new 0 0 1024 1024;" xml:space="preserve">
<title>history2 icon</title>
<desc>history2 icon from the IconExperience.com O-Collection. Copyright by INCORS GmbH (www.incors.com).</desc>
<path d="M320,768h320v64H320V768z M320,383.7h33.6c2.1,22.1,6.5,43.5,13,64H320V383.7z M320,512h74.8c13.5,23.4,29.9,44.9,48.7,64
	H320V512z M320,640h212.4c33.1,16.1,69.3,26.6,107.6,30.4V704H320V640z M64,352c0-17.6,14.4-32,32-32h64c17.6,0,32,14.4,32,32
	s-14.4,32-32,32H96C78.4,384,64,369.6,64,352z M64,480c0-17.6,14.4-32,32-32h64c17.6,0,32,14.4,32,32s-14.4,32-32,32H96
	C78.4,512,64,497.6,64,480z M64,608c0-17.6,14.4-32,32-32h64c17.6,0,32,14.4,32,32c0,17.6-14.4,32-32,32H96
	C78.4,640,64,625.6,64,608z M64,736c0-17.6,14.4-32,32-32h64c17.6,0,32,14.4,32,32c0,17.6-14.4,32-32,32H96
	C78.4,768,64,753.6,64,736z M64,864c0-17.6,14.4-32,32-32h64c17.6,0,32,14.4,32,32c0,17.6-14.4,32-32,32H96
	C78.4,896,64,881.6,64,864z"/>
<path d="M192,256h174.7c-6.5,20.5-10.9,41.9-13.1,64H256v576h448V670.4c22.1-2.2,43.5-6.6,64-13.1V896c0,35.2-28.8,64-64,64H192
	c-23.6,0-44.3-12.9-55.4-32H160c35.3,0,64-28.7,64-64s-28.7-64-64-64h-32h32c35.3,0,64-28.7,64-64s-28.7-64-64-64h-32h32
	c35.3,0,64-28.7,64-64s-28.7-64-64-64h-32h32c35.3,0,64-28.7,64-64s-28.7-64-64-64h-32h32c35.3,0,64-28.7,64-64s-28.7-64-64-64
	h-23.4C147.7,268.9,168.4,256,192,256z M604.9,172.1L672,288c11.6,0,22.6,3.1,32,8.5l87.7-50.7c14.1,16,25.2,34.8,32.1,55.4L736,352
	c0,35.3-28.7,64-64,64s-64-28.7-64-64c0-11.6,3.1-22.6,8.5-32l-67-115.9C565.9,190.5,584.6,179.6,604.9,172.1z"/>
<path d="M672,64c159.1,0,288,128.9,288,288S831.1,640,672,640S384,511.1,384,352S512.9,64,672,64z M672,128
	c-123.7,0-224,100.3-224,224s100.3,224,224,224s224-100.3,224-224S795.7,128,672,128z"/>
</svg>
