<?xml version="1.0" encoding="utf-8"?>
<!-- Generator: Adobe Illustrator 18.0.0, SVG Export Plug-In . SVG Version: 6.00 Build 0)  -->
<!DOCTYPE svg PUBLIC "-//W3C//DTD SVG 1.1//EN" "http://www.w3.org/Graphics/SVG/1.1/DTD/svg11.dtd">
<svg version="1.1"
	 id="Layer_1" image-rendering="optimizeQuality" shape-rendering="geometricPrecision" text-rendering="geometricPrecision"
	 xmlns="http://www.w3.org/2000/svg" xmlns:xlink="http://www.w3.org/1999/xlink" x="0px" y="0px" width="1024px" height="1024px"
	 viewBox="0 0 1024 1024" enable-background="new 0 0 1024 1024" xml:space="preserve">
<title>home icon</title>
<desc>home icon from the IconExperience.com O-Collection. Copyright by INCORS GmbH (www.incors.com).</desc>
<path fill="#252525" d="M512,289.9l-320,320V960h320V640h192v320h128V609.9L512,289.9z M448,768H256V640h192V768z"/>
<path id="curve0" fill="#252525" d="M86.6,587.3l18.7,18.7c12.5,12.5,32.8,12.5,45.3,0L512,244.6L873.4,606
	c12.5,12.5,32.8,12.5,45.3,0l18.7-18.7c12.5-12.5,12.5-32.8,0-45.3L534.7,139.3c-12.5-12.5-32.8-12.5-45.3,0L86.7,542
	c-12.5,12.5-12.5,32.8,0,45.3H86.6z"/>
</svg>
