<?xml version="1.0" encoding="utf-8"?>
<!-- Generator: Adobe Illustrator 18.0.0, SVG Export Plug-In . SVG Version: 6.00 Build 0)  -->
<!DOCTYPE svg PUBLIC "-//W3C//DTD SVG 1.1//EN" "http://www.w3.org/Graphics/SVG/1.1/DTD/svg11.dtd">
<svg version="1.1"
	 id="Layer_1" shape-rendering="geometricPrecision" text-rendering="geometricPrecision" image-rendering="optimizeQuality"
	 xmlns="http://www.w3.org/2000/svg" xmlns:xlink="http://www.w3.org/1999/xlink" x="0px" y="0px" width="1024px" height="1024px"
	 viewBox="0 0 1024 1024" enable-background="new 0 0 1024 1024" xml:space="preserve">
<g>
	<title>home icon</title>
	<desc>home icon from the IconExperience.com O-Collection. Copyright by INCORS GmbH (www.incors.com).</desc>
	<path fill="#252525" d="M512,256.9l-320,320V927h320V607h192v320h128V576.9L512,256.9z M448,735H256V607h192V735z"/>
	<path id="curve0" fill="#252525" d="M86.5,554.3l18.7,18.7c12.5,12.5,32.8,12.5,45.3,0l361.4-361.4L873.4,573
		c12.5,12.5,32.8,12.5,45.3,0l18.7-18.7c12.5-12.5,12.5-32.8,0-45.3L534.7,106.3c-12.5-12.5-32.8-12.5-45.3,0L86.6,509
		C74.1,521.5,74.1,541.8,86.5,554.3L86.5,554.3z"/>
</g>
</svg>
