<svg xmlns="http://www.w3.org/2000/svg" width="1024" height="1024" viewBox="0 0 1024 1024">
  <title>int</title>
  <g id="int">
    <path d="M776.19,147.78V296.37H627.6V147.78H776.19m60-60H567.6V356.37H836.19V87.78Z"/>
    <path d="M776.19,727.63V876.22H627.6V727.63H776.19m60-60H567.6V936.22H836.19V667.63Z"/>
    <path d="M445.46,146q-71.23,0-71.22,90.91V790.77q0,32.68-10.47,59.49t-28.7,45.67a128.07,128.07,0,0,1-43.36,29.33,139.17,139.17,0,0,1-54,10.47q-32.27,0-49.85-8V866.18q20.52,10.89,45.67,10.89,72.05,0,72.06-90.91V233.57q0-33.93,10.68-61t29.12-45.87a126.1,126.1,0,0,1,43.15-28.91,139.82,139.82,0,0,1,53.21-10.05q31.83,0,50.27,7.54v62Q471.85,146,445.46,146Z"/>
  </g>
</svg>
