<?xml version="1.0" encoding="utf-8"?>
<!-- Generator: Adobe Illustrator 21.1.0, SVG Export Plug-In . SVG Version: 6.00 Build 0)  -->
<svg version="1.1"
	 id="Layer_1" image-rendering="optimizeQuality" text-rendering="geometricPrecision" shape-rendering="geometricPrecision"
	 xmlns="http://www.w3.org/2000/svg" xmlns:xlink="http://www.w3.org/1999/xlink" x="0px" y="0px" viewBox="0 0 1024 1024"
	 style="enable-background:new 0 0 1024 1024;" xml:space="preserve">
<path d="M256,128h512c70.5,0,128,57.5,128,128v512c0,70.5-57.5,128-128,128H256c-70.5,0-128-57.5-128-128V256
	C128,185.5,185.5,128,256,128z M384,256h128c17.6,0,33.7,7.2,45.2,18.8c11.6,11.5,18.8,27.6,18.8,45.2v192
	c0,17.6-7.2,33.7-18.8,45.2C545.7,568.8,529.6,576,512,576H384c-17.6,0-33.7-7.2-45.2-18.8C327.2,545.7,320,529.6,320,512V320
	c0-17.6,7.2-33.7,18.8-45.2C350.3,263.2,366.4,256,384,256z M400,320c-8.8,0-16,7.2-16,16v160c0,8.8,7.2,16,16,16h96
	c8.8,0,16-7.2,16-16V336c0-8.8-7.2-16-16-16H400z M320,192c-52.9,0-96,43.1-96,96v384c0,52.9,43.1,96,96,96h384
	c52.9,0,96-43.1,96-96V288c0-52.9-43.1-96-96-96H320z M320,224c-35.3,0-64,28.7-64,64v384c0,35.2,28.8,64,64,64h384
	c35.2,0,64-28.8,64-64V288c0-35.2-28.7-64-64-64H320z"/>
</svg>
