<?xml version="1.0" encoding="utf-8"?>
<!-- Generator: Adobe Illustrator 18.1.0, SVG Export Plug-In . SVG Version: 6.00 Build 0)  -->
<!DOCTYPE svg PUBLIC "-//W3C//DTD SVG 1.1//EN" "http://www.w3.org/Graphics/SVG/1.1/DTD/svg11.dtd">
<svg version="1.1"
	 id="Layer_1" image-rendering="optimizeQuality" text-rendering="geometricPrecision" shape-rendering="geometricPrecision"
	 xmlns="http://www.w3.org/2000/svg" xmlns:xlink="http://www.w3.org/1999/xlink" x="0px" y="0px" width="1024px" height="1024px"
	 viewBox="256 -256 1024 1024" enable-background="new 256 -256 1024 1024" xml:space="preserve">
<path d="M1152-128H384c-35.2,0-64,28.7-64,64v672c0,17.6,14.4,32,32,32h832c17.6,0,32-14.4,32-32V-64C1216-99.2,1187.2-128,1152-128
	z M1152,576H384V64h768V576z"/>
<path d="M982.7,323.3l-41.4-19.1c-2.6-1.3-4.3-3.6-4.6-6.5c-0.8-6.8-1.9-13.7-3.5-20.4c-0.7-2.8,0.1-5.6,2.2-7.6l32.7-31.7
	c5.1-5,6.4-12.2,3.3-18.6c-5-10.4-10.4-19.8-16.8-29.4c-3.9-5.9-10.8-8.4-17.6-6.6l-44,12c-2.8,0.7-5.6,0-7.7-2
	c-5-4.8-10.3-9.3-15.8-13.4v0.5c-2.3-1.8-3.5-4.4-3.2-7.3l4.7-45.3c0.7-7-3-13.4-9.4-16.3c-10.6-4.7-20.7-8.5-31.8-11.7
	c-6.7-1.9-13.7,0.5-17.7,6.3L786,143.7c-1.6,2.3-4.2,3.6-7.1,3.4c-6.8-0.4-13.7-0.5-20.5-0.1c-2.9,0.2-5.5-1.1-7.1-3.5l-25.6-37.7
	c-4-5.9-10.9-8.4-17.7-6.5c-11.2,3.2-21.4,6.8-32,11.5c-6.4,2.8-10.1,9.2-9.5,16.2l4.2,45.5c0.3,2.9-0.9,5.5-3.2,7.2
	c-5.5,4-10.7,8.4-15.6,13c-2.1,2-4.9,2.7-7.7,1.9l-43.8-12.5c-6.8-1.9-13.7,0.6-17.7,6.4c-6.6,9.6-12.1,19-17.2,29.4
	c-3.1,6.4-1.9,13.6,3.1,18.6l32.4,32.1c2.1,2,2.9,4.8,2.2,7.6c-1.6,6.5-2.8,13.1-3.6,19.8c-0.3,2.9-2,5.2-4.7,6.4L553.3,321
	c-6.4,2.9-10.1,9.3-9.4,16.3c1.1,11.6,3,22.3,5.7,33.6c1.7,6.8,7.3,11.6,14.3,12.2l45.5,3.8c2.8,0.3,5.2,1.9,6.5,4.5
	c3,6,6.3,11.9,10,17.5c1.6,2.4,1.8,5.3,0.5,7.9l-19.9,41c-3.1,6.3-1.8,13.6,3.2,18.5c8.3,8.1,16.5,15.2,25.9,22.1
	c5.6,4.2,13,4.3,18.8,0.2l37.2-26.3c2.4-1.7,5.2-2,7.9-0.8c6.2,2.8,12.5,5.1,19,7.1c2.8,0.8,4.8,2.9,5.5,5.7l11.1,44.2
	c1.7,6.8,7.4,11.6,14.4,12.1c11.6,0.8,22.4,0.9,34,0.2c7.1-0.5,12.8-5.2,14.6-12l11.6-44c0.8-2.8,2.8-4.9,5.6-5.7
	c6.6-1.9,13-4.2,19.3-6.9c2.7-1.1,5.5-0.8,7.9,0.9l36.9,26.7c5.7,4.1,13.1,4.1,18.8,0c9.4-6.7,17.7-13.6,26.1-21.6
	c5.1-4.8,6.5-12.1,3.5-18.5l-19.4-41.2c-1.2-2.6-1-5.5,0.6-7.9c3.9-5.7,7.4-11.7,10.5-17.8c1.3-2.6,3.7-4.2,6.6-4.4l45.5-3.3
	c7-0.5,12.7-5.3,14.4-12.1c2.8-11.2,4.7-21.8,6-33.3C992.7,332.7,989.1,326.3,982.7,323.3z M767.9,380.2c-35.3,0-64-28.7-64-64
	s28.7-64,64-64s64,28.7,64,64S803.2,380.2,767.9,380.2z"/>
</svg>
