<?xml version="1.0" encoding="utf-8"?>
<!-- Generator: Adobe Illustrator 19.2.1, SVG Export Plug-In . SVG Version: 6.00 Build 0)  -->
<svg version="1.1"
	 id="Layer_1" image-rendering="optimizeQuality" text-rendering="geometricPrecision" shape-rendering="geometricPrecision"
	 xmlns="http://www.w3.org/2000/svg" xmlns:xlink="http://www.w3.org/1999/xlink" x="0px" y="0px" viewBox="0 0 1024 1024"
	 style="enable-background:new 0 0 1024 1024;" xml:space="preserve">
<style type="text/css">
	.st0{fill:#000000;}
</style>
<path class="st0" d="M512,64c247.4,0,448,200.6,448,448S759.4,960,512,960S64,759.4,64,512S264.6,64,512,64z M610,275.4l49-118.2
	c-93.3-38.7-200.7-38.7-294,0l49,118.2C476.2,249.7,547.8,249.6,610,275.4z M748.6,414c25.7,62.2,25.7,133.8,0,196l118.2,49
	c38.7-93.3,38.7-200.7,0-294L748.6,414z M610,748.6c-62.2,25.7-133.8,25.7-196,0l-49,118.2c93.3,38.7,200.7,38.7,294,0L610,748.6z
	 M275.4,610c-25.7-62.2-25.8-133.8,0-196l-118.2-49c-38.7,93.3-38.7,200.7,0,294L275.4,610z M512,320c-106,0-192,86-192,192
	s86,192,192,192s192-86,192-192S618,320,512,320z"/>
</svg>
