<svg xmlns="http://www.w3.org/2000/svg" width="1024" height="1024" viewBox="0 0 1024 1024">
  <title>lim</title>
  <g id="lim">
    <path d="M888.56,739.7V888.3H740V739.7H888.56m60-60H680V948.3H948.56V679.7Z"/>
    <path d="M291,739.7V888.3H142.41V739.7H291m60-60H82.41V948.3H351V679.7Z"/>
    <g>
      <rect x="159.78" y="108.48" width="60.85" height="480.05"/>
      <path d="M215.63,583.53H164.78v-470h50.85Z"/>
      <path d="M294.52,588.53V261h60.85v327.5Zm31-398.12a37.19,37.19,0,0,1-26.73-10.71c-7.39-7.15-11.13-16.28-11.13-27.16s3.74-20,11.1-27.28a36.91,36.91,0,0,1,26.76-10.89,37.83,37.83,0,0,1,27.2,10.86c7.49,7.26,11.29,16.45,11.29,27.31a36.39,36.39,0,0,1-11.26,26.82A37.54,37.54,0,0,1,325.57,190.42Z"/>
      <path d="M325.57,185.42a32.21,32.21,0,0,1-23.25-9.3q-9.61-9.3-9.61-23.56t9.61-23.72a31.94,31.94,0,0,1,23.25-9.46,32.85,32.85,0,0,1,23.72,9.46q9.77,9.46,9.77,23.72a31.42,31.42,0,0,1-9.77,23.25A32.55,32.55,0,0,1,325.57,185.42Zm24.8,398.12H299.52V266h50.85Z"/>
      <path d="M829.24,588.53V401.22c0-33.94-5.18-58.65-15.39-73.43-10-14.4-26.51-21.41-50.61-21.41-20.25,0-37.05,9.09-51.37,27.8S690.1,376,690.1,402.46V588.53H629.25V395c0-59.64-22-88.64-67.24-88.64-20.88,0-37.64,8.54-51.24,26.12s-20.66,41.26-20.66,70V588.53H429.26V261h60.85v40.32c23-31.71,54.85-47.76,94.84-47.76,22.71,0,42.81,6.44,59.74,19.14a95.82,95.82,0,0,1,31.22,39.81c24.31-39.13,59.38-58.95,104.38-58.95,72.86,0,109.8,45.18,109.8,134.29V588.53Z"/>
      <path d="M885.09,583.53H834.24V401.22q0-52.71-16.28-76.27t-54.73-23.56q-32.56,0-55.34,29.77T685.1,402.46V583.53H634.25V395q0-93.64-72.24-93.64-33.49,0-55.19,28.06t-21.7,73V583.53H434.26V266h50.85v50.23h1.24q33.79-57.67,98.6-57.67,32.56,0,56.74,18.14a91.27,91.27,0,0,1,33.18,47.59q35.35-65.73,105.42-65.73,104.8,0,104.8,129.29Z"/>
    </g>
    <rect x="412.45" y="782.5" width="200" height="60"/>
  </g>
</svg>
