<svg id="lim" xmlns="http://www.w3.org/2000/svg" width="1024" height="1024" viewBox="0 0 1024 1024"><title>lim</title><path d="M898,731.83V880.42H749.41V731.83H898m60-60H689.41V940.42H958V671.83Z"/><path d="M289.16,731.83V880.42H140.57V731.83H289.16m60-60H80.57V940.42H349.16V671.83Z"/><line x1="421.33" y1="806.13" x2="594" y2="806.13" style="fill:none;stroke:#000;stroke-miterlimit:10;stroke-width:60px"/><polyline points="554.64 745.63 617.64 806.13 546.64 866.63" style="fill:none;stroke:#000;stroke-miterlimit:10;stroke-width:60px"/><path d="M196.5,536h-98V66h98Z"/><path d="M309.53,168.32q-24.81,0-40.62-14.73T253.1,117.47q0-22,15.81-36t40.62-14q25.11,0,40.77,14t15.66,36q0,22.32-15.66,36.59T309.53,168.32ZM357.9,536h-98V218.55h98Z"/><path d="M925.48,536H827.81V355q0-69.14-50.85-69.14-24.18,0-39.38,20.77t-15.19,51.78V536h-98V353.11q0-67.28-49.92-67.28-25.11,0-40.15,19.84t-15,53.95V536h-98V218.55h98v49.61h1.24q15.19-25.42,42.63-41.39a117.19,117.19,0,0,1,60-16q67.28,0,92.09,59.22,36.28-59.22,106.66-59.22,103.55,0,103.56,127.74Z"/></svg>