<svg xmlns="http://www.w3.org/2000/svg" width="1024" height="1024" viewBox="0 0 1024 1024">
  <title>ln</title>
  <g id="ln">
    <g>
      <rect x="320.95" y="348.95" width="60.85" height="480.05"/>
      <path d="M376.8,824H325.95V354H376.8Z"/>
      <path d="M668.39,829V642.93c0-64.65-22.5-96.08-68.79-96.08-24.13,0-43.54,8.82-59.33,27s-23.73,41.35-23.73,69.12V829H455.69V501.5h60.85v43C541,511,574.67,494.06,617,494.06c36.13,0,64.24,11.93,83.55,35.47,19.06,23.25,28.73,57,28.73,100.38V829Z"/>
      <path d="M724.24,824H673.39V642.93q0-101.08-73.79-101.08-38.14,0-63.1,28.68t-25,72.4V824H460.69V506.5h50.85v52.71h1.24q36-60.15,104.18-60.15,52.09,0,79.68,33.64t27.6,97.2Z"/>
    </g>
  </g>
</svg>
