<svg xmlns="http://www.w3.org/2000/svg" width="1024" height="1024" viewBox="0 0 1024 1024">
  <title>log</title>
  <g id="log">
    <path d="M898,769.91V918.5H749.41V769.91H898m60-60H689.41V978.5H958V709.91Z"/>
    <g>
      <rect x="59.47" y="59.29" width="60.85" height="480.05"/>
      <path d="M115.32,534.34H64.47v-470h50.85Z"/>
      <path d="M331.91,546.78c-48.14,0-87.18-15.5-116-46.06s-43.38-71.32-43.38-121.41c0-54.43,15.19-97.64,45.13-128.44s70.94-46.47,121.72-46.47c48.58,0,87.12,15.26,114.54,45.35S495,321.64,495,374.35c0,51.72-14.9,93.82-44.3,125.12S381.29,546.78,331.91,546.78Zm3.72-289.6c-31,0-55.78,10.63-73.72,31.58-18.13,21.18-27.32,51-27.32,88.68,0,36.19,9.28,65,27.58,85.67C280.32,483.61,305,494,335.64,494c31.16,0,55.37-10.14,72-30.13C424.42,443.6,433,414.11,433,376.21c0-38.31-8.54-68.12-25.37-88.6C391,267.42,366.78,257.19,335.64,257.19Z"/>
      <path d="M331.91,541.78q-70.39,0-112.4-44.49t-42-118q0-80,43.72-125t118.13-45q71,0,110.85,43.72T490,374.35q0,76-42.94,121.7T331.91,541.78Zm3.72-289.6q-49,0-77.51,33.33T229.6,377.45q0,56.44,28.83,89T335.64,499q49.3,0,75.81-31.94T438,376.21q0-59.53-26.51-91.78T335.64,252.19Z"/>
      <path d="M655.79,688.79c-39.89,0-75.28-7.69-105.2-22.87l-2.74-1.39V602.12l7.43,4.12c34.84,19.33,68.45,29.14,99.89,29.14,75.5,0,112.2-39.14,112.2-119.64v-20c-24.88,33.89-60.26,51-105.38,51-40.83,0-74.19-14.83-99.15-44.08-24.76-29-37.32-68.33-37.32-116.88,0-54.88,13.47-99.24,40-131.83,26.82-32.9,64-49.59,110.38-49.59,39.26,0,70,14.14,91.43,42.07V211.84h60.85V508.92C828.22,628.27,770.21,688.79,655.79,688.79Zm27.29-431.6c-30.07,0-52.92,10.58-69.85,32.33s-25.61,53.09-25.61,92.89c0,34,8.23,61.49,24.48,81.67S649.18,494,675.94,494c27.28,0,48.82-9.39,65.86-28.69s25.57-44.29,25.57-74.52V344c0-23.78-8.14-44.42-24.21-61.36C726.95,265.5,707.29,257.19,683.07,257.19Z"/>
      <path d="M823.22,508.92q0,174.87-167.43,174.87-58.91,0-102.94-22.32V610.62q53.64,29.77,102.32,29.77,117.2,0,117.2-124.64V481h-1.24Q734.85,541.79,662,541.78q-59.23,0-95.34-42.32T530.53,385.83q0-80.93,38.91-128.68T675.94,209.4q64.18,0,95.19,51.47h1.24v-44h50.85ZM772.37,390.79V344q0-37.83-25.58-64.8t-63.72-27q-47.13,0-73.79,34.26t-26.67,96q0,53,25.58,84.8T675.94,499q42.79,0,69.61-30.38T772.37,390.79Z"/>
    </g>
  </g>
</svg>
