<svg xmlns="http://www.w3.org/2000/svg" width="1024" height="1024" viewBox="0 0 1024 1024">
  <title>log10</title>
  <g id="log10">
    <g>
      <rect x="138.32" y="348.95" width="60.85" height="480.05"/>
      <path d="M194.17,824H143.32V354h50.85Z"/>
      <path d="M410.77,836.44c-48.14,0-87.18-15.5-116-46.06S251.36,719.06,251.36,669c0-54.43,15.19-97.64,45.13-128.44s70.94-46.47,121.72-46.47c48.58,0,87.12,15.26,114.54,45.35S573.9,611.29,573.9,664c0,51.72-14.9,93.82-44.3,125.12S460.14,836.44,410.77,836.44Zm3.72-289.59c-31,0-55.78,10.63-73.72,31.58-18.13,21.18-27.32,51-27.32,88.68,0,36.19,9.28,65,27.58,85.67,18.14,20.48,42.86,30.87,73.46,30.87,31.16,0,55.37-10.14,72-30.13,16.83-20.27,25.36-49.76,25.36-87.65,0-38.31-8.54-68.12-25.37-88.6C469.84,557.08,445.63,546.85,414.49,546.85Z"/>
      <path d="M410.77,831.44q-70.39,0-112.4-44.49t-42-118q0-80,43.72-125t118.13-45q71,0,110.85,43.72T568.9,664q0,76-42.94,121.7T410.77,831.44Zm3.72-289.59q-49,0-77.51,33.33t-28.53,91.93q0,56.44,28.84,89t77.2,32.56q49.3,0,75.81-31.94t26.51-90.85q0-59.53-26.51-91.78T414.49,541.85Z"/>
      <path d="M734.64,978.45c-39.89,0-75.28-7.69-105.2-22.87l-2.74-1.39V891.78l7.43,4.12C669,915.24,702.58,925,734,925c75.5,0,112.2-39.14,112.2-119.64v-20c-24.88,33.89-60.26,51-105.38,51-40.83,0-74.19-14.83-99.15-44.08-24.76-29-37.32-68.33-37.32-116.88,0-54.88,13.47-99.24,40-131.83,26.82-32.91,64-49.59,110.38-49.59,39.26,0,70,14.14,91.43,42.07V501.5h60.85V798.57C907.07,917.93,849.06,978.45,734.64,978.45Zm27.29-431.6c-30.07,0-52.92,10.58-69.85,32.33s-25.61,53.09-25.61,92.89c0,34,8.23,61.49,24.48,81.67s37.09,29.92,63.85,29.92c27.28,0,48.82-9.39,65.86-28.69s25.57-44.29,25.57-74.52V633.62c0-23.78-8.14-44.42-24.21-61.36C805.8,555.16,786.14,546.85,761.93,546.85Z"/>
      <path d="M902.07,798.57q0,174.87-167.43,174.87-58.91,0-102.94-22.32V900.27Q685.34,930,734,930q117.2,0,117.2-124.64V770.67H850q-36.28,60.77-109.14,60.77-59.23,0-95.34-42.32T609.38,675.48q0-80.93,38.91-128.67t106.5-47.75q64.18,0,95.19,51.47h1.24v-44h50.85ZM851.22,680.44V633.62q0-37.83-25.58-64.8t-63.72-27q-47.13,0-73.79,34.26t-26.67,96q0,53,25.58,84.8t67.75,31.78q42.79,0,69.61-30.39T851.22,680.44Z"/>
    </g>
  </g>
</svg>
