<svg xmlns="http://www.w3.org/2000/svg" width="1024" height="1024" viewBox="0 0 1024 1024"><title>log10</title><g id="log10"><path d="M189.06,515.55h-98V45.5h98Z"/><path d="M403.79,523.3q-79.38,0-124.8-44.49T233.57,358q0-78.75,47.13-123.25T408.13,190.3q79.06,0,124,44.49t45,117.67q0,79.06-46.35,125T403.79,523.3Zm2.48-258q-34.73,0-54,23.87T333.1,356.8q0,91.47,73.79,91.47,70.38,0,70.38-93.95Q477.27,265.33,406.27,265.33Z"/><path d="M932.92,479.27q0,88.37-51.16,136.89T733.56,664.69q-64.18,0-101.7-18.29V563.92q49,28.52,98.91,28.53,49.6,0,76.89-26.2t27.29-71.16V470H833.7Q800.22,523.3,734.8,523.3q-60.77,0-96.43-42.79T602.71,365.79q0-80.61,39.69-128.05T746.89,190.3q58,0,86.82,44.65h1.24V198h98ZM836.18,363V337.88q0-30.07-17.83-51.31T772,265.33q-32.56,0-51.16,25.42t-18.6,71.62q0,39.69,17.67,62.79t48.37,23.1q30.38,0,49.14-23.41T836.18,363Z"/></g></svg>