<?xml version="1.0" encoding="utf-8"?>
<!-- Generator: Adobe Illustrator 18.0.0, SVG Export Plug-In . SVG Version: 6.00 Build 0)  -->
<!DOCTYPE svg PUBLIC "-//W3C//DTD SVG 1.1//EN" "http://www.w3.org/Graphics/SVG/1.1/DTD/svg11.dtd">
<svg version="1.1"
	 id="Layer_1" shape-rendering="geometricPrecision" text-rendering="geometricPrecision" image-rendering="optimizeQuality"
	 xmlns="http://www.w3.org/2000/svg" xmlns:xlink="http://www.w3.org/1999/xlink" x="0px" y="0px" width="1024px" height="1024px"
	 viewBox="0 0 1024 1024" enable-background="new 0 0 1024 1024" xml:space="preserve">
<g>
	<path d="M889.4,608h-458c-24.2-74.6-89.4-128-166-128c-97.2,0-176,86-176,192s78.8,192,176,192c76.7,0,141.8-53.4,166-128h234v128
		h64v-32h64v32h64V736h32c17.6,0,32-14.4,32-32v-64C921.4,622.4,907,608,889.4,608z M265.4,768c-44.2,0-80-43-80-96s35.8-96,80-96
		s80,43,80,96S309.6,768,265.4,768z"/>
	<path id="curve0" d="M774.7,525.3l150.6-150.6c12.4-12.4,12.4-32.8,0-45.3L774.7,178.8c-12.5-12.5-27.6-18.7-45.3-18.7H613.5
		c-6.6,0-12.3,3.8-14.8,9.9c-2.5,6.1-1.2,12.8,3.5,17.4L702.9,288H489.4c-8.8,0-16,7.2-16,16v96c0,8.8,7.2,16,16,16h213.5
		L602.2,516.8c-4.7,4.7-6,11.3-3.5,17.4c2.5,6.1,8.2,9.9,14.8,9.9h115.9C747,544,762.2,537.8,774.7,525.3L774.7,525.3z"/>
</g>
</svg>
