<?xml version="1.0" encoding="utf-8"?>
<!-- Generator: Adobe Illustrator 18.0.0, SVG Export Plug-In . SVG Version: 6.00 Build 0)  -->
<!DOCTYPE svg PUBLIC "-//W3C//DTD SVG 1.1//EN" "http://www.w3.org/Graphics/SVG/1.1/DTD/svg11.dtd">
<svg version="1.1"
	 id="Layer_1" image-rendering="optimizeQuality" shape-rendering="geometricPrecision" text-rendering="geometricPrecision"
	 xmlns="http://www.w3.org/2000/svg" xmlns:xlink="http://www.w3.org/1999/xlink" x="0px" y="0px" width="1024px" height="1024px"
	 viewBox="0 0 1024 1024" enable-background="new 0 0 1024 1024" xml:space="preserve">
<title>log_in icon</title>
<desc>log_in icon from the IconExperience.com O-Collection. Copyright by INCORS GmbH (www.incors.com).</desc>
<path fill="#252525" d="M864,576H406c-24.2-74.6-89.4-128-166-128c-97.2,0-176,86-176,192s78.8,192,176,192
	c76.7,0,141.8-53.4,166-128h234v128h64v-32h64v32h64V704h32c17.6,0,32-14.4,32-32v-64C896,590.4,881.6,576,864,576z M240,736
	c-44.2,0-80-43-80-96s35.8-96,80-96s80,43,80,96S284.2,736,240,736z"/>
<path id="curve0" fill="#252525" d="M749.3,493.3l150.6-150.6c12.4-12.4,12.4-32.8,0-45.3L749.3,146.8
	c-12.5-12.5-27.6-18.7-45.3-18.7H588.1c-6.6,0-12.3,3.8-14.8,9.9c-2.5,6.1-1.2,12.8,3.5,17.4l100.7,100.7H464c-8.8,0-16,7.2-16,16
	v96c0,8.8,7.2,16,16,16h213.5L576.8,484.8c-4.7,4.7-6,11.3-3.5,17.4s8.2,9.9,14.8,9.9H704C721.6,512.1,736.8,505.8,749.3,493.3
	L749.3,493.3z"/>
</svg>
