<?xml version="1.0" encoding="utf-8"?>
<!-- Generator: Adobe Illustrator 18.0.0, SVG Export Plug-In . SVG Version: 6.00 Build 0)  -->
<!DOCTYPE svg PUBLIC "-//W3C//DTD SVG 1.1//EN" "http://www.w3.org/Graphics/SVG/1.1/DTD/svg11.dtd">
<svg version="1.1"
	 id="Layer_1" shape-rendering="geometricPrecision" text-rendering="geometricPrecision" image-rendering="optimizeQuality"
	 xmlns="http://www.w3.org/2000/svg" xmlns:xlink="http://www.w3.org/1999/xlink" x="0px" y="0px" width="1024px" height="1024px"
	 viewBox="0 0 1024 1024" enable-background="new 0 0 1024 1024" xml:space="preserve">
<title>log_out icon</title>
<desc>log_out icon from the IconExperience.com O-Collection. Copyright by INCORS GmbH (www.incors.com).</desc>
<g>
	<path fill="#252525" d="M896,607.9H438c-24.2-74.6-89.4-128-166-128c-97.2,0-176,86-176,192s78.8,192,176,192
		c76.7,0,141.8-53.4,166-128h234v128h64v-32h64v32h64v-128h32c17.6,0,32-14.4,32-32v-64C928,622.3,913.6,607.9,896,607.9z
		 M272,767.9c-44.2,0-80-43-80-96s35.8-96,80-96s80,43,80,96S316.2,767.9,272,767.9z"/>
	<path id="curve0" fill="#252525" d="M764.2,534.6l-92.1-92.1L580,534.6c-12.5,12.5-32.8,12.5-45.3,0l-45.2-45.2
		c-12.5-12.5-12.5-32.8,0-45.3l92.1-92.1l-92.1-92.1c-12.5-12.5-12.5-32.8,0-45.3l45.2-45.2c12.5-12.5,32.8-12.5,45.3,0l92.1,92.1
		l92.1-92.1c12.5-12.5,32.8-12.5,45.3,0l45.2,45.2c12.5,12.5,12.5,32.8,0,45.3L762.6,352l92.1,92.1c12.5,12.5,12.5,32.8,0,45.3
		l-45.2,45.2C797,547.1,776.7,547.1,764.2,534.6z"/>
</g>
</svg>
