<?xml version="1.0" encoding="utf-8"?>
<!-- Generator: Adobe Illustrator 21.1.0, SVG Export Plug-In . SVG Version: 6.00 Build 0)  -->
<svg version="1.1"
	 id="Layer_1" image-rendering="optimizeQuality" text-rendering="geometricPrecision" shape-rendering="geometricPrecision"
	 xmlns="http://www.w3.org/2000/svg" xmlns:xlink="http://www.w3.org/1999/xlink" x="0px" y="0px" viewBox="0 0 1024 1024"
	 style="enable-background:new 0 0 1024 1024;" xml:space="preserve">
<path d="M672,128c194.4,0,352,157.6,352,352S866.4,832,672,832c-57.6,0-112-13.8-160-38.4C464,818.2,409.6,832,352,832
	C157.6,832,0,674.4,0,480s157.6-352,352-352c57.6,0,112,13.8,160,38.4C560,141.8,614.4,128,672,128z M672,192
	c-33.7,0-66,5.8-96,16.4C654.2,273,704,370.7,704,480s-49.8,207-128,271.6c30,10.6,62.3,16.4,96,16.4c159.1,0,288-128.9,288-288
	S831.1,192,672,192z M352,192C192.9,192,64,320.9,64,480s128.9,288,288,288c33.7,0,66-5.8,96-16.4C369.8,687,320,589.3,320,480
	s49.8-207,128-271.6C418,197.8,385.7,192,352,192z M512,719.5c77.2-51.7,128-139.7,128-239.5c0-99.9-50.8-187.8-128-239.5
	C434.8,292.2,384,380.1,384,480C384,579.8,434.8,667.8,512,719.5z"/>
<path d="M512,679.8c60.4-48.4,96-121.5,96-199.8s-35.5-151.5-96-199.9c-60.5,48.4-96,121.6-96,199.9S451.5,631.4,512,679.8z"/>
</svg>
