<?xml version="1.0" encoding="utf-8"?>
<!-- Generator: Adobe Illustrator 19.2.1, SVG Export Plug-In . SVG Version: 6.00 Build 0)  -->
<svg version="1.1"
	 id="Layer_1" image-rendering="optimizeQuality" shape-rendering="geometricPrecision" text-rendering="geometricPrecision"
	 xmlns="http://www.w3.org/2000/svg" xmlns:xlink="http://www.w3.org/1999/xlink" x="0px" y="0px" viewBox="0 0 1024 1024"
	 style="enable-background:new 0 0 1024 1024;" xml:space="preserve">
<title>magnifying_glass icon</title>
<desc>magnifying_glass icon from the IconExperience.com O-Collection. Copyright by INCORS GmbH (www.incors.com).</desc>
<path d="M598.6,681.4l82.8-82.8c12.4-12.4,32.8-12.4,45.2,0l242.8,242.8c12.4,12.4,12.4,32.8,0,45.2l-82.8,82.8
	c-12.4,12.4-32.8,12.4-45.2,0L598.6,726.6C586.2,714.2,586.2,693.8,598.6,681.4z M608.2,544.2l41.2,41.2l-64,64l-41.2-41.2
	C490.8,648.3,424.5,672,352.6,672C176.2,672,33.2,529,33.2,352.6s143-319.4,319.4-319.4S672,176.2,672,352.6
	C672,424.5,648.3,490.8,608.2,544.2z M352.6,97.1c-141.1,0-255.5,114.4-255.5,255.5s114.4,255.5,255.5,255.5
	s255.5-114.4,255.5-255.5S493.7,97.1,352.6,97.1z"/>
</svg>
