<svg xmlns="http://www.w3.org/2000/svg" width="1024" height="1024" viewBox="0 0 1024 1024"><title>matrix2x2</title><g id="matrix2x2"><path d="M422,178V422H178V178H422m60-60H118V482H482V118Z"/><path d="M849,178V422H605V178H849m60-60H545V482H909V118Z"/><path d="M422,605V849H178V605H422m60-60H118V909H482V545Z"/><path d="M849,605V849H605V605H849m60-60H545V909H909V545Z"/><polyline points="130 30 30 30 30 994 130 994" style="fill:none;stroke:#000;stroke-miterlimit:10;stroke-width:60px"/><polyline points="884 30 994 30 994 994 894 994" style="fill:none;stroke:#000;stroke-miterlimit:10;stroke-width:60px"/></g></svg>