<?xml version="1.0" encoding="utf-8"?>
<!-- Generator: Adobe Illustrator 18.1.0, SVG Export Plug-In . SVG Version: 6.00 Build 0)  -->
<!DOCTYPE svg PUBLIC "-//W3C//DTD SVG 1.1//EN" "http://www.w3.org/Graphics/SVG/1.1/DTD/svg11.dtd">
<svg version="1.1"
	 id="Layer_1" text-rendering="geometricPrecision" shape-rendering="geometricPrecision" image-rendering="optimizeQuality"
	 xmlns="http://www.w3.org/2000/svg" xmlns:xlink="http://www.w3.org/1999/xlink" x="0px" y="0px" width="1024px" height="1024px"
	 viewBox="256 -256 1024 1024" enable-background="new 256 -256 1024 1024" xml:space="preserve">
<path id="curve1" d="M768-192c247.4,0,448,157.6,448,352c0,91.1-44,174-116.2,236.5c-10.7,9.3-17.3,20.3-20.5,34.1
	C1047.4,569.9,930.7,672,768.1,672c21.3-21.3,35.4-47.5,44.9-76.1c6.6-19.9,3.7-39.8-8.4-57c-12-17.1-29.8-26.6-50.8-27.2
	C513,505.8,320,350.5,320,159.9c0-194.4,200.6-352,448-352V-192z M879.9,585.4c68-30,118.5-88.6,136.9-169c6.2-27.1,20-50.1,41-68.2
	c55.6-48.1,94.1-113.3,94.1-188.1c0-21.7-3.2-43.1-9.6-63.8c-20.5-66.9-70.8-120.6-129.1-157.2c-72.7-45.6-159.9-67-245.3-67
	s-172.6,21.4-245.3,67C464.2-24.3,413.9,29.4,393.5,96.3c-6.3,20.7-9.6,42.2-9.6,63.8c0,21.7,3.3,43.1,9.6,63.8
	c45.2,147.7,219.1,220.5,361.7,224c41.2,1,77.8,20.6,101.6,54.3c17.5,24.8,25.4,54,23,83.2H879.9z"/>
<path id="curve0" d="M576,0h384v64H576V0z M576,256h384v64H576V256z M576,128h384v64H576V128z"/>
</svg>
