<?xml version="1.0" encoding="utf-8"?>
<!-- Generator: Adobe Illustrator 20.1.0, SVG Export Plug-In . SVG Version: 6.00 Build 0)  -->
<svg version="1.1"
	 id="Layer_1" text-rendering="geometricPrecision" shape-rendering="geometricPrecision" image-rendering="optimizeQuality"
	 xmlns="http://www.w3.org/2000/svg" xmlns:xlink="http://www.w3.org/1999/xlink" x="0px" y="0px" viewBox="0 0 1024 1024"
	 style="enable-background:new 0 0 1024 1024;" xml:space="preserve">
<path d="M672,128h128c17.6,0,32,14.4,32,32v704c0,17.6-14.4,32-32,32H672c-17.6,0-32-14.4-32-32V160C640,142.4,654.4,128,672,128z
	 M238.9,127.3l362,362.1c12.5,12.4,12.5,32.8,0,45.2l-362,362.1c-12.5,12.4-32.8,12.4-45.3,0l-90.5-90.5
	c-12.5-12.5-12.5-32.8,0-45.3L352,512L103.1,263.1c-12.5-12.5-12.5-32.8,0-45.3l90.5-90.5C206.1,114.9,226.4,114.9,238.9,127.3z"/>
</svg>
