<?xml version="1.0" encoding="utf-8"?>
<!-- Generator: Adobe Illustrator 20.1.0, SVG Export Plug-In . SVG Version: 6.00 Build 0)  -->
<svg version="1.1"
	 id="Layer_1" text-rendering="geometricPrecision" shape-rendering="geometricPrecision" image-rendering="optimizeQuality"
	 xmlns="http://www.w3.org/2000/svg" xmlns:xlink="http://www.w3.org/1999/xlink" x="0px" y="0px" viewBox="0 0 1024 1024"
	 style="enable-background:new 0 0 1024 1024;" xml:space="preserve">
<path d="M785.1,127.3l-362,362.1c-12.5,12.4-12.5,32.8,0,45.2l362,362.1c12.5,12.4,32.8,12.4,45.3,0l90.5-90.5
	c12.5-12.5,12.5-32.8,0-45.3L672,512l248.9-248.9c12.5-12.5,12.5-32.8,0-45.3l-90.5-90.5C817.9,114.9,797.6,114.9,785.1,127.3z
	 M352,128H224c-17.6,0-32,14.4-32,32v704c0,17.6,14.4,32,32,32h128c17.6,0,32-14.4,32-32V160C384,142.4,369.6,128,352,128z"/>
</svg>
