<svg xmlns="http://www.w3.org/2000/svg" width="1024" height="1024" viewBox="0 0 1024 1024">
  <title>oint</title>
  <g id="oint">
    <path d="M782.5,147.78V296.37H633.91V147.78H782.5m60-60H573.91V356.37H842.5V87.78Z"/>
    <path d="M782.5,727.63V876.22H633.91V727.63H782.5m60-60H573.91V936.22H842.5V667.63Z"/>
    <g>
      <path d="M344.89,418.86A103.39,103.39,0,1,1,241.5,522.25,103.51,103.51,0,0,1,344.89,418.86m0-60A163.39,163.39,0,1,0,508.28,522.25,163.39,163.39,0,0,0,344.89,358.86Z"/>
      <path d="M451.64,146.26q-71.23,0-71.22,90.91V791q0,32.68-10.47,59.49t-28.7,45.67a128.07,128.07,0,0,1-43.36,29.33,139.17,139.17,0,0,1-54,10.47q-32.27,0-49.85-8V866.43q20.52,10.89,45.67,10.89,72.05,0,72.06-90.91V233.82q0-33.93,10.68-61T351.51,127a126.1,126.1,0,0,1,43.15-28.91A139.82,139.82,0,0,1,447.87,88q31.83,0,50.27,7.54v62Q478,146.26,451.64,146.26Z"/>
    </g>
  </g>
</svg>
