<svg xmlns="http://www.w3.org/2000/svg" width="1024" height="1024" viewBox="0 0 1024 1024"><title>partial</title><g id="partial"><rect x="135.55" y="472" width="764" height="80" rx="40" ry="40"/><path d="M491.45,746.58q0,11.46-.9,23.7t-2.36,24.37q-1.46,12.13-3.71,23.7t-4.94,21.9A220.55,220.55,0,0,1,462.25,885a142.31,142.31,0,0,1-27.51,37.17,123.93,123.93,0,0,1-38.86,25.27q-22.35,9.32-51.55,9.32-23.36,0-41.1-6.85a80.23,80.23,0,0,1-29.65-19.32,81.21,81.21,0,0,1-18-30A117.45,117.45,0,0,1,249.54,862a175.93,175.93,0,0,1,3.26-33.47,160.94,160.94,0,0,1,9.88-32.46A151,151,0,0,1,279,767a111.9,111.9,0,0,1,22.57-23.47,105,105,0,0,1,28.75-15.72,101.34,101.34,0,0,1,34.7-5.73q19.76,0,34,7.86t24.37,23.81h.9V745a168.62,168.62,0,0,0-2.7-31.45,70.29,70.29,0,0,0-9.1-24.37,44.21,44.21,0,0,0-17-15.83Q385,667.74,369,667.74A94.28,94.28,0,0,0,353,669.2,151.56,151.56,0,0,0,336.47,673a159,159,0,0,0-15.27,5.28q-7.19,2.92-12.35,5.62L323,627.76q6.29-2.7,13.81-5.28a142.89,142.89,0,0,1,15.72-4.38q8.2-1.79,17-2.92A137.93,137.93,0,0,1,387,614.06q31.22,0,51.44,10.44a83,83,0,0,1,32,28.41q11.79,18,16.4,42.11A275.27,275.27,0,0,1,491.45,746.58Zm-76.37,59.75q-4.27-15.5-13.25-25a29.32,29.32,0,0,0-22.24-9.55,39.56,39.56,0,0,0-24.15,8.09,74,74,0,0,0-18.75,20.78,106.85,106.85,0,0,0-12.13,28.3,115.94,115.94,0,0,0-4.27,30.66q0,21.12,9,32t23.58,10.89a37.18,37.18,0,0,0,22-7.19q10.11-7.19,18.19-20a131.69,131.69,0,0,0,13.7-30.43A219.65,219.65,0,0,0,415.08,806.32Z" style="stroke:#000;stroke-miterlimit:10;stroke-width:10px"/><path d="M674.06,835.75l51.21,115.45H646.43L625.76,891q-1.8-5.16-3.37-11.12t-2.92-11.57h-1.12q-3.37,5.62-6.74,11.46a82.57,82.57,0,0,1-7,10.33l-45.6,61.09H475.5L577.92,834.85,528.73,721.19H607.8l18.87,60.64a94.4,94.4,0,0,1,3.82,12.69q1.57,6.85,2.25,11.34h.9q2.7-4.94,7.19-11.57t8.09-11.57l44.92-61.54h80.63Z" style="stroke:#000;stroke-miterlimit:10;stroke-width:10px"/><path d="M491.45,199.71q0,11.46-.9,23.7t-2.36,24.37q-1.46,12.13-3.71,23.7t-4.94,21.9a220.55,220.55,0,0,1-17.29,44.81,142.31,142.31,0,0,1-27.51,37.17,123.93,123.93,0,0,1-38.86,25.27q-22.35,9.32-51.55,9.32-23.36,0-41.1-6.85a80.23,80.23,0,0,1-29.65-19.32,81.21,81.21,0,0,1-18-30,117.45,117.45,0,0,1-6.06-38.63,175.93,175.93,0,0,1,3.26-33.47,160.94,160.94,0,0,1,9.88-32.46A151,151,0,0,1,279,220.15a111.9,111.9,0,0,1,22.57-23.47A105,105,0,0,1,330.29,181a101.34,101.34,0,0,1,34.7-5.73q19.76,0,34,7.86t24.37,23.81h.9v-8.76a168.62,168.62,0,0,0-2.7-31.45,70.29,70.29,0,0,0-9.1-24.37,44.21,44.21,0,0,0-17-15.83Q385,120.88,369,120.87A94.28,94.28,0,0,0,353,122.33a151.56,151.56,0,0,0-16.51,3.82,159,159,0,0,0-15.27,5.28Q314,134.35,308.84,137L323,80.89q6.29-2.7,13.81-5.28a142.89,142.89,0,0,1,15.72-4.38q8.2-1.79,17-2.92A137.93,137.93,0,0,1,387,67.19q31.22,0,51.44,10.44a83,83,0,0,1,32,28.41q11.79,18,16.4,42.11A275.27,275.27,0,0,1,491.45,199.71Zm-76.37,59.75q-4.27-15.5-13.25-25a29.32,29.32,0,0,0-22.24-9.55A39.56,39.56,0,0,0,355.45,233a74,74,0,0,0-18.75,20.78A106.85,106.85,0,0,0,324.56,282a115.94,115.94,0,0,0-4.27,30.66q0,21.12,9,32t23.58,10.89a37.18,37.18,0,0,0,22-7.19q10.11-7.19,18.19-20A131.69,131.69,0,0,0,406.77,298,219.65,219.65,0,0,0,415.08,259.46Z" style="stroke:#000;stroke-miterlimit:10;stroke-width:10px"/></g></svg>