<svg xmlns="http://www.w3.org/2000/svg" width="1024" height="1024" viewBox="0 0 1024 1024">
  <title>partial</title>
  <g id="partial">
    <rect x="135.55" y="472" width="764" height="80" rx="40" ry="40"/>
    <g>
      <path d="M461.75,777.34c4.5-10,8-22,13.5-47.5,11.5-53,5.5-99-38-99-14,0-37.5,8.5-71.5,26-6,3-12-19-9.5-32,1.5-7,7-15,14-18,9-4.5,22.5-10,47-10,90.5,0,122.5,92,107.5,181-7,41-20,79.5-44,113.5-25,35.5-70,69.5-119.5,69.5-63,0-92-45-81-101.5,11.5-60,63-114,126-114C430.25,745.34,448.25,752.34,461.75,777.34Zm-115.5,97c-7,37.5-2,63.5,17.5,63.5,37.5,0,72.5-85.5,87.5-132.5-4-11-18-30.5-38.5-30.5C383.75,774.84,355.75,825.84,346.25,874.34Z" style="stroke: #000;stroke-miterlimit: 10;stroke-width: 10px"/>
      <path d="M670.25,841.34l12.5,39.5c10,31,14,35.5,18,35.5,5.5,0,18-16,27-31,4-4,12.5-3.5,15.5,2.5-10.5,35-35,73-67,73-22,0-32-17.5-39-38l-11-33.5-28.5,34.5c-22.5,27-40,37-58.5,37-13,0-23-9.5-23-25,0-17.5,17-43.5,29.5-43.5,5,0,7.5,6,11,15,3,7,6.5,9,10.5,9,2,0,13.5-8,35-33.5l16-19-15-47.5c-3-9.5-7-19-10.5-19-5,0-11,3-26,25.5-5.5,2.5-12.5-.5-13.5-6,6-20.5,32-70,69-70,13,0,23,11.5,29.5,32.5l11.5,37.5,18-21.5c26.5-31.5,44.5-48.5,66.5-48.5,15.5,0,24,13.5,24,26.5,0,23-11.5,42.5-24.5,42.5-5.5,0-9-5-11-11-2-6.5-5.5-12.5-12-12.5s-20.5,11-37.5,30.5Z" style="stroke: #000;stroke-miterlimit: 10;stroke-width: 10px"/>
    </g>
    <path d="M481.89,241.33c4.5-10,8-22,13.5-47.5,11.5-53,5.5-99-38-99-14,0-37.5,8.5-71.5,26-6,3-12-19-9.5-32,1.5-7,7-15,14-18,9-4.5,22.5-10,47-10,90.5,0,122.5,92,107.5,181-7,41-20,79.5-44,113.5-25,35.5-70,69.5-119.5,69.5-63,0-92-45-81-101.5,11.5-60,63-114,126-114C450.39,209.33,468.39,216.33,481.89,241.33Zm-115.5,97c-7,37.5-2,63.5,17.5,63.5,37.5,0,72.5-85.5,87.5-132.5-4-11-18-30.5-38.5-30.5C403.89,238.83,375.89,289.83,366.39,338.33Z" style="stroke: #000;stroke-miterlimit: 10;stroke-width: 10px"/>
  </g>
</svg>
