<?xml version="1.0" encoding="utf-8"?>
<!-- Generator: Adobe Illustrator 18.0.0, SVG Export Plug-In . SVG Version: 6.00 Build 0)  -->
<!DOCTYPE svg PUBLIC "-//W3C//DTD SVG 1.1//EN" "http://www.w3.org/Graphics/SVG/1.1/DTD/svg11.dtd">
<svg version="1.1"
	 id="Layer_1" shape-rendering="geometricPrecision" text-rendering="geometricPrecision" image-rendering="optimizeQuality"
	 xmlns="http://www.w3.org/2000/svg" xmlns:xlink="http://www.w3.org/1999/xlink" x="0px" y="0px" width="1024px" height="1024px"
	 viewBox="0 0 1024 1024" enable-background="new 0 0 1024 1024" xml:space="preserve">
<path d="M512,64C264.6,64,64,264.6,64,512s200.6,448,448,448s448-200.6,448-448S759.4,64,512,64z M512,896
	c-212.1,0-384-171.9-384-384s171.9-384,384-384s384,171.9,384,384S724.1,896,512,896z"/>
<path id="curve1" display="none" d="M288.4,398.6c4.2-46,24.6-87.3,55.5-118.2c34.8-34.8,82.8-56.3,135.7-56.3h64
	c52.9,0,100.9,21.6,135.7,56.3c34.8,34.8,56.3,82.8,56.3,135.7c0,39.5-11.7,76.5-32.9,107.8c-21,31.1-51.1,55.6-87.8,70.3
	l-39.3,15.7v14.2c0,4.4-1.6,8.2-4.7,11.3c-3.1,3.1-6.9,4.7-11.3,4.7h-96c-8.8,0-16-7.2-16-16v-14c0-26.1,7.9-50.8,22.1-71.8
	c14.1-20.8,34.1-37.2,58.4-46.9l39.3-15.7c12.8-5.1,23-13.3,29.8-23.3c6.7-9.9,10.4-22.3,10.4-36.3c0-17.6-7.2-33.6-18.8-45.2
	s-27.6-18.8-45.2-18.8h-64c-17.6,0-33.6,7.2-45.2,18.8c-8.7,8.7-15,19.9-17.5,32.4c-1.5,7.5-8,12.8-15.7,12.8h-96.9
	c-4.7,0-8.7-1.8-11.8-5.2c-3.1-3.4-4.5-7.6-4.1-12.2L288.4,398.6L288.4,398.6z M463.6,672h96c8.8,0,16,7.2,16,16v96
	c0,8.8-7.2,16-16,16h-96c-8.8,0-16-7.2-16-16v-96C447.6,679.2,454.8,672,463.6,672z"/>
<path id="pinterest-icon" d="M526.5,203c-168.6,0-253.7,120.9-253.7,221.7c0,61.1,23.1,115.4,72.7,135.6c8.1,3.3,15.4,0.1,17.8-8.9
	c1.6-6.2,5.5-21.9,7.3-28.5c2.4-8.9,1.5-12-5.1-19.8c-14.3-16.9-23.4-38.7-23.4-69.6c0-89.7,67.1-170,174.8-170
	c95.3,0,147.7,58.2,147.7,136c0,102.4-45.3,188.7-112.5,188.7c-37.1,0-64.9-30.7-56-68.4c10.7-45,31.3-93.5,31.3-126
	c0-29.1-15.6-53.3-47.9-53.3c-38,0-68.5,39.3-68.5,91.9c0,33.5,11.3,56.2,11.3,56.2s-38.8,164.6-45.7,193.4
	c-13.6,57.4-2,127.8-1.1,134.9c0.6,4.2,6,5.2,8.4,2c3.5-4.6,48.7-60.4,64.1-116.2c4.3-15.8,25-97.6,25-97.6
	c12.3,23.5,48.4,44.2,86.7,44.2c114.1,0,191.5-104,191.5-243.3C751.2,301.1,662,203,526.5,203z"/>
</svg>
