<svg xmlns="http://www.w3.org/2000/svg" width="1024" height="1024" viewBox="0 0 1024 1024">
  <title>pmatrix</title>
  <g id="pmatrix">
    <g>
      <path d="M411.46,263.34V411.93H262.86V263.34H411.46m60-60H202.86V471.93H471.46V203.34Z"/>
      <path d="M761.14,263.34V411.93H612.54V263.34H761.14m60-60H552.54V471.93H821.14V203.34Z"/>
      <path d="M411.46,612.07V760.66H262.86V612.07H411.46m60-60H202.86V820.66H471.46V552.07Z"/>
      <path d="M759.68,612.07V760.66H611.09V612.07H759.68m60-60H551.09V820.66H819.68V552.07Z"/>
    </g>
    <path d="M853.27,941.69H782Q934.32,759.06,934.32,514.45q0-246.59-153.31-432.14h72.27Q1005.62,261,1005.62,515.42,1005.62,768.85,853.27,941.69Z"/>
    <path d="M250.18,941.69H178.9Q27.51,768.84,27.52,515.42,27.52,261,178.9,82.31h72.27Q97.83,267.87,97.83,514.45,97.83,759.09,250.18,941.69Z"/>
  </g>
</svg>
