<svg xmlns="http://www.w3.org/2000/svg" width="1024" height="1024" viewBox="0 0 1024 1024"><title>pow2</title><g id="pow2"><path d="M536,518V898H156V518H536m60-60H96V958H596V458Z"/><path d="M764.18,387.19H927.46v70.36H671.26v-29q0-29.54,9.94-53a175.91,175.91,0,0,1,25-42.16,216.59,216.59,0,0,1,32.9-33Q756.93,286,773,274.4q16.92-12.08,29.68-23.1a169.28,169.28,0,0,0,21.48-21.89,83.3,83.3,0,0,0,13-22,65.53,65.53,0,0,0,4.3-23.77q0-24.7-14-37.33t-42.7-12.62q-49.69,0-95.07,39.48V98.5Q740,66,803.12,66q29.27,0,52.5,7.65T895,95.54a93.38,93.38,0,0,1,24.57,34.51Q928,150.33,928,175.3q0,26.59-8.19,47.27a145.35,145.35,0,0,1-21.75,37.6,197.39,197.39,0,0,1-31.29,31Q849,305.28,830,318.44q-12.89,9.13-24.84,18.13a235.8,235.8,0,0,0-21.08,17.72,96.24,96.24,0,0,0-14.5,17.05Q764.18,379.67,764.18,387.19Z"/></g></svg>