<svg xmlns="http://www.w3.org/2000/svg" width="1024" height="1024" viewBox="0 0 1024 1024">
  <title>pow2</title>
  <g id="pow2">
    <rect x="66" y="458" width="500" height="500"/>
    <g>
      <path d="M679,463V438.93c0-16.87,1.87-32,5.56-44.88a118.42,118.42,0,0,1,18.49-37.29c8.43-11.54,19.59-23.22,33.17-34.71,13.33-11.27,29.91-24.18,49.29-38.35A306.42,306.42,0,0,0,820,255.41,145.23,145.23,0,0,0,842,229a93.9,93.9,0,0,0,11.61-26.38,115.41,115.41,0,0,0,3.47-28.7c0-11.09-1.72-20.83-5.12-29a54.79,54.79,0,0,0-34.43-32.1,83.31,83.31,0,0,0-26.35-4,87.89,87.89,0,0,0-23.89,3.3,118.45,118.45,0,0,0-23.06,9.28,143.86,143.86,0,0,0-21.8,14.27,158.79,158.79,0,0,0-19.65,18.48L694,163.83V101.39l1.52-1.47a137.34,137.34,0,0,1,43.06-28.56c15.85-6.58,35.34-9.92,57.91-9.92a140.78,140.78,0,0,1,45.38,7.11,105.85,105.85,0,0,1,36.63,21A97.92,97.92,0,0,1,903,123.79c5.89,13.47,8.88,29,8.88,46.32a157.63,157.63,0,0,1-5.42,42.72A133.48,133.48,0,0,1,890,249.1a174.25,174.25,0,0,1-27.51,32.36,384.52,384.52,0,0,1-38.37,31c-18,12.8-32.95,23.87-44.55,32.91-11.41,8.89-20.57,17.29-27.22,25-6.45,7.45-11,14.94-13.56,22.27A74.46,74.46,0,0,0,735,413.52H926.67V463Z"/>
      <path d="M862.05,173.87q0-17.72-5.5-30.88a59.79,59.79,0,0,0-37.46-34.91,87.9,87.9,0,0,0-27.93-4.3,92.48,92.48,0,0,0-25.24,3.49,122.88,122.88,0,0,0-24,9.67,148.19,148.19,0,0,0-22.56,14.77A163,163,0,0,0,699,150.77V103.51A131.75,131.75,0,0,1,740.53,76q23-9.53,56-9.53A135.18,135.18,0,0,1,840.3,73.3a100.42,100.42,0,0,1,34.91,20,92.53,92.53,0,0,1,23.23,32.5q8.46,19.34,8.46,44.31a151.94,151.94,0,0,1-5.24,41.36,127.91,127.91,0,0,1-15.84,34.91A168.48,168.48,0,0,1,859.1,277.8a377.73,377.73,0,0,1-37.87,30.62q-27.13,19.34-44.71,33t-27.93,25.65q-10.34,12-14.5,23.9t-4.16,27.53H921.67V458H684V438.93q0-24.7,5.37-43.51a112.93,112.93,0,0,1,17.72-35.72q12.35-16.92,32.36-33.84t49-38.13a309.68,309.68,0,0,0,35-28.74,149.49,149.49,0,0,0,22.69-27.39,98.43,98.43,0,0,0,12.22-27.8A119.83,119.83,0,0,0,862.05,173.87Z"/>
    </g>
  </g>
</svg>
