<svg xmlns="http://www.w3.org/2000/svg" width="1024" height="1024" viewBox="0 0 1024 1024">
  <title>pow3</title>
  <g id="pow3">
    <text transform="translate(659.62 458)" style="font-size: 550px;font-family: SegoeUISymbol, Segoe UI Symbol">3</text>
    <rect x="66" y="458" width="500" height="500"/>
    <g>
      <path d="M780.2,469.71c-37.51,0-67.88-7.32-90.26-21.74l-2.29-1.48V386.21l8.09,6.36c24.93,19.6,53.89,29.55,86.07,29.55a116.74,116.74,0,0,0,34.89-4.87,77,77,0,0,0,26.24-13.85,61,61,0,0,0,16.64-21.61A68.4,68.4,0,0,0,865.44,353c0-47.42-33.5-70.46-102.42-70.46h-37V235.2H761.4c60.61,0,90.07-21.56,90.07-65.9,0-40.73-22.08-60.53-67.51-60.53-26,0-50.69,8.87-73.5,26.36l-8,6.17V85.63l2.43-1.46C730.06,69.1,760.38,61.45,795,61.45c16.58,0,31.85,2.35,45.39,7a105.79,105.79,0,0,1,35.22,19.75,88.68,88.68,0,0,1,22.9,30.72,94.89,94.89,0,0,1,8.1,39.39c0,47.14-21.47,79.67-63.86,96.9a120.89,120.89,0,0,1,20.33,6.89,102.27,102.27,0,0,1,30.21,20.2,91,91,0,0,1,20,29.4A94.13,94.13,0,0,1,920.55,349c0,18-3.45,34.66-10.26,49.49a110.12,110.12,0,0,1-29,38.25C869,447.19,854,455.41,836.84,461.13S800.69,469.71,780.2,469.71Z"/>
      <path d="M915.55,349q0,26.05-9.8,47.4a104.68,104.68,0,0,1-27.66,36.52q-17.86,15.18-42.83,23.5t-55.05,8.33q-55.06,0-87.55-20.95V396.5q38.94,30.62,89.16,30.62A121.12,121.12,0,0,0,818.2,422a81.56,81.56,0,0,0,27.93-14.77,65.63,65.63,0,0,0,18-23.36A73,73,0,0,0,870.44,353q0-75.46-107.42-75.46h-32V240.2H761.4q95.07,0,95.07-70.9,0-65.52-72.51-65.53-40.83,0-76.54,27.39V88.47q36.79-22,87.55-22,24.17,0,43.78,6.71A100.36,100.36,0,0,1,872.32,92a83.34,83.34,0,0,1,21.62,29,89.53,89.53,0,0,1,7.65,37.33q0,76-76.81,97.75v1.07A121.66,121.66,0,0,1,861,266.65a96.84,96.84,0,0,1,28.74,19.2,85.65,85.65,0,0,1,18.93,27.8A88.75,88.75,0,0,1,915.55,349Z"/>
    </g>
  </g>
</svg>
