<svg xmlns="http://www.w3.org/2000/svg" width="1024" height="1024" viewBox="0 0 1024 1024"><title>pow3</title><g id="pow3"><path d="M536,518V898H156V518H536m60-60H96V958H596V458Z"/><path d="M682.54,444.93V371.08q38.67,28.2,90.23,28.2,32.49,0,50.62-14t18.13-38.94q0-25.78-22.42-39.75t-61.63-14H721.75v-65h33q75.19,0,75.2-50,0-47-57.74-47-38.67,0-75.2,25V86.41Q737.59,66,791.57,66q59.08,0,92,26.59t32.9,69q0,75.47-76.54,94.53v1.34q40.82,5.1,64.45,29.68T928,347.45q0,54-39.48,85.4t-109,31.42Q719.87,464.27,682.54,444.93Z"/><text transform="translate(643.76 458)" style="font-size:550px;font-family:SegoeUI-Bold, Segoe UI;font-weight:700">3</text></g></svg>