<svg xmlns="http://www.w3.org/2000/svg" width="1024" height="1024" viewBox="0 0 1024 1024">
  <title>prod</title>
  <g id="prod">
    <path d="M906.8,727.63V876.22H758.21V727.63H906.8m60-60H698.21V936.22H966.8V667.63Z"/>
    <path d="M906.8,147.78V296.37H758.21V147.78H906.8m60-60H698.21V356.37H966.8V87.78Z"/>
    <path d="M623.6,919.2q0,17-10.55,17H426.34q-10.55,0-10.55-17t10.55-17H458q28.13,0,28.13-26.76V121.83H194.7V875.41q0,26.75,28.13,26.76h31.64q10.55,0,10.55,17t-10.55,17H67.74q-10.55,0-10.55-17t10.55-17H99.38q28.12,0,28.12-26.76V148.59q0-26.75-28.12-26.76H67.74q-10.55,0-10.55-17t10.55-17H613.06q10.55,0,10.55,17t-10.55,17H581.42q-28.12,0-28.12,26.76V875.41q0,26.75,28.13,26.76h31.64Q623.6,902.17,623.6,919.2Z"/>
  </g>
</svg>
