<?xml version="1.0" encoding="utf-8"?>
<!-- Generator: Adobe Illustrator 18.1.0, SVG Export Plug-In . SVG Version: 6.00 Build 0)  -->
<!DOCTYPE svg PUBLIC "-//W3C//DTD SVG 1.1//EN" "http://www.w3.org/Graphics/SVG/1.1/DTD/svg11.dtd">
<svg version="1.1"
	 id="Layer_1" image-rendering="optimizeQuality" text-rendering="geometricPrecision" shape-rendering="geometricPrecision"
	 xmlns="http://www.w3.org/2000/svg" xmlns:xlink="http://www.w3.org/1999/xlink" x="0px" y="0px" width="1024px" height="1024px"
	 viewBox="256 -256 1024 1024" enable-background="new 256 -256 1024 1024" xml:space="preserve">
<g>
	<path id="curve1" d="M448,47.9C448-84.6,555.5-192,688-192c77.7,0,149.2,37.5,193.7,98.2c10-1.5,20.1-2.2,30.3-2.2
		c114.9,0,208,93.1,208,208c0,1.1,0,2.1,0,3.2c57.2,29.2,96,88.8,96,156.8c0,97.2-78.8,176-176,176h-21.3
		c-4.6-13.3-12.3-25.4-22.8-35.9L967.8,384h72.2c61.9,0,112-50.1,112-112c0-59.3-46-107.8-104.3-111.7c5.4-15.1,8.3-31.3,8.3-48.3
		c0-79.5-64.5-144-144-144c-21.8,0-42.5,4.9-61,13.5C824.8-82.7,761.7-128,688-128c-97.2,0-176,78.8-176,176c0,16.8,2.3,33,6.7,48.3
		C443.5,101.1,384,163.6,384,240c0,79.5,64.5,144,144,144h40.2l-28.1,28.1c-10.4,10.4-18.1,22.4-22.7,35.6
		C407.5,442.2,320,351.3,320,240C320,153.9,372.5,79.4,448,47.9z"/>
	<path id="curve0" d="M973.2,434.7L790.6,252.1c-12.5-12.5-32.8-12.4-45.3,0L562.7,434.7C550.3,447.1,544,462.3,544,480v115.9
		c0,14.3,17.2,21.4,27.3,11.3L704,474.5V688c0,8.8,7.2,16,16,16h96c8.8,0,16-7.2,16-16V474.5l132.7,132.7
		c10.1,10.1,27.3,3,27.3-11.3V480C992,462.4,985.7,447.2,973.2,434.7L973.2,434.7z"/>
</g>
</svg>
