<?xml version="1.0" encoding="utf-8"?>
<!-- Generator: Adobe Illustrator 19.2.1, SVG Export Plug-In . SVG Version: 6.00 Build 0)  -->
<svg version="1.1"
	 id="Layer_1" image-rendering="optimizeQuality" shape-rendering="geometricPrecision" text-rendering="geometricPrecision"
	 xmlns="http://www.w3.org/2000/svg" xmlns:xlink="http://www.w3.org/1999/xlink" x="0px" y="0px" viewBox="0 0 1024 1024"
	 style="enable-background:new 0 0 1024 1024;" xml:space="preserve">
<style type="text/css">
	.st0{stroke:#000000;stroke-miterlimit:10;}
</style>
<path class="st0" d="M611.8,733.4L322.4,604.8c12.2-17.2,21.1-36.9,25.8-58.2l289.4,128.6C625.4,692.4,616.5,712.1,611.8,733.4z
	 M322.4,419.2l289.4-128.6c4.7,21.3,13.6,41,25.8,58.2L348.2,477.4C343.5,456.1,334.6,436.4,322.4,419.2z M768,640
	c70.7,0,128,57.3,128,128s-57.3,128-128,128s-128-57.3-128-128S697.3,640,768,640z M768,128c70.7,0,128,57.3,128,128
	s-57.3,128-128,128s-128-57.3-128-128S697.3,128,768,128z M192,384c70.7,0,128,57.3,128,128s-57.3,128-128,128S64,582.7,64,512
	S121.3,384,192,384z"/>
</svg>
