<svg xmlns="http://www.w3.org/2000/svg" width="1024" height="1024" viewBox="0 0 1024 1024"><title>sin</title><g id="sin"><path d="M137.43,703.88V624.5a208.36,208.36,0,0,0,48.21,21.7q24,7.14,45.42,7.13,26,0,41.08-7.13t15-21.7a20.1,20.1,0,0,0-6.82-15.5,63.47,63.47,0,0,0-17.52-10.85,198.85,198.85,0,0,0-23.41-8.37q-12.72-3.72-24.49-8.37a234.28,234.28,0,0,1-33.33-15.35A96.21,96.21,0,0,1,157.43,547a74.93,74.93,0,0,1-14.88-25.11q-5.12-14.26-5.12-33.8,0-26.66,11.63-45.89a95,95,0,0,1,31-31.47,141.74,141.74,0,0,1,44.34-18A231.27,231.27,0,0,1,276.34,387a288.27,288.27,0,0,1,42.79,3.26,319.85,319.85,0,0,1,42.79,9.46v75.65a154.77,154.77,0,0,0-39.84-16.28,168.22,168.22,0,0,0-41.7-5.43,92.61,92.61,0,0,0-18.14,1.71,59.79,59.79,0,0,0-15,5A27.62,27.62,0,0,0,237,468.7a19.27,19.27,0,0,0-3.72,11.63,21.48,21.48,0,0,0,5.58,14.88,48.32,48.32,0,0,0,14.57,10.7,143.1,143.1,0,0,0,20,8.06q11,3.57,21.86,7.29a284.6,284.6,0,0,1,35.35,14.88A113.22,113.22,0,0,1,357.73,555a74.33,74.33,0,0,1,17.36,25.42q6,14.58,6,34.73,0,28.22-12.25,48.21A98.11,98.11,0,0,1,336.33,696Q316,708.53,289.51,714.26a259.67,259.67,0,0,1-55,5.74Q182.08,720,137.43,703.88Z"/><path d="M468.13,344.52q-24.81,0-40.62-14.73T411.7,293.67q0-22,15.81-36t40.62-14q25.11,0,40.77,14t15.66,36q0,22.32-15.66,36.59T468.13,344.52ZM516.5,712.25h-98V394.75h98Z"/><path d="M886.57,712.25H788.9V535.82q0-73.79-52.71-73.79-25.43,0-41.86,19.53T677.9,531.17V712.25h-98V394.75h98V445h1.24q35-58,102-58,105.42,0,105.42,130.85Z"/></g></svg>