<svg xmlns="http://www.w3.org/2000/svg" width="1024" height="1024" viewBox="0 0 1024 1024"><title>sin</title><g id="sin"><path d="M107.4,706.72V627.34A208.36,208.36,0,0,0,155.61,649q24,7.14,45.42,7.13,26,0,41.08-7.13t15-21.7a20.1,20.1,0,0,0-6.82-15.5A63.48,63.48,0,0,0,232.82,601a198.9,198.9,0,0,0-23.41-8.37q-12.72-3.72-24.49-8.37a234.27,234.27,0,0,1-33.33-15.35,96.19,96.19,0,0,1-24.18-19.07,74.91,74.91,0,0,1-14.88-25.11q-5.12-14.26-5.12-33.8,0-26.66,11.63-45.89a95,95,0,0,1,31-31.47,141.74,141.74,0,0,1,44.34-18,231.26,231.26,0,0,1,51.93-5.74,288.26,288.26,0,0,1,42.79,3.26,319.87,319.87,0,0,1,42.79,9.46V478.2A154.77,154.77,0,0,0,292,461.92a168.22,168.22,0,0,0-41.7-5.43,92.61,92.61,0,0,0-18.14,1.71,59.79,59.79,0,0,0-15,5,27.62,27.62,0,0,0-10.23,8.37,19.27,19.27,0,0,0-3.72,11.63A21.48,21.48,0,0,0,208.79,498a48.32,48.32,0,0,0,14.57,10.7,143.11,143.11,0,0,0,20,8.06q11,3.57,21.86,7.29A284.6,284.6,0,0,1,300.56,539a113.22,113.22,0,0,1,27.13,18.91,74.34,74.34,0,0,1,17.36,25.42q6,14.58,6,34.73,0,28.22-12.25,48.21a98.12,98.12,0,0,1-32.56,32.56Q286,711.37,259.48,717.1a259.68,259.68,0,0,1-55,5.74Q152,722.84,107.4,706.72Z"/><path d="M457.14,347.36q-24.81,0-40.62-14.73t-15.81-36.12q0-22,15.81-36t40.62-14q25.11,0,40.77,14t15.66,36q0,22.32-15.66,36.59T457.14,347.36Zm48.37,367.73h-98V397.59h98Z"/><path d="M894.64,715.09H797V538.66q0-73.79-52.71-73.79-25.43,0-41.86,19.53T686,534V715.09H588V397.59h98v50.23h1.24q35-58,102-58,105.42,0,105.42,130.85Z"/></g></svg>