<?xml version="1.0" encoding="utf-8"?>
<!-- Generator: Adobe Illustrator 18.0.0, SVG Export Plug-In . SVG Version: 6.00 Build 0)  -->
<!DOCTYPE svg PUBLIC "-//W3C//DTD SVG 1.1//EN" "http://www.w3.org/Graphics/SVG/1.1/DTD/svg11.dtd">
<svg version="1.1"
	 id="Layer_1" shape-rendering="geometricPrecision" text-rendering="geometricPrecision" image-rendering="optimizeQuality"
	 xmlns="http://www.w3.org/2000/svg" xmlns:xlink="http://www.w3.org/1999/xlink" x="0px" y="0px" width="1024px" height="1024px"
	 viewBox="0 0 1024 1024" enable-background="new 0 0 1024 1024" xml:space="preserve">
<path id="curve0" d="M572.6,124.2L641.3,339c4.3,13.5,16.4,22.3,30.5,22.2l224.5-0.4c28-0.1,51.8,17.2,60.5,43.9
	c8.7,26.7-0.4,54.7-23,71.3L751.3,609.2c-11.4,8.3-15.9,22.3-11.6,35.7l69.8,215.5c8.7,26.7-0.5,54.8-23.2,71.3s-52.2,16.4-74.8-0.3
	L531,798.5c-11.5-8.4-26.5-8.4-37.9,0L312.5,931.4c-22.6,16.6-52.1,16.7-74.8,0.3c-22.7-16.5-31.9-44.6-23.2-71.3l69.8-215.5
	c4.3-13.4-0.2-27.4-11.6-35.7L90.2,476c-22.6-16.5-31.7-44.6-23-71.3c8.7-26.7,32.5-44,60.5-43.9l224.5,0.4
	c14.2,0,26.2-8.8,30.5-22.2l68.7-214.8C460.1,97.4,483.9,80,512,80C540.1,80,563.9,97.4,572.6,124.2L572.6,124.2z"/>
</svg>
