<?xml version="1.0" encoding="utf-8"?>
<!-- Generator: Adobe Illustrator 18.0.0, SVG Export Plug-In . SVG Version: 6.00 Build 0)  -->
<!DOCTYPE svg PUBLIC "-//W3C//DTD SVG 1.1//EN" "http://www.w3.org/Graphics/SVG/1.1/DTD/svg11.dtd">
<svg version="1.1"
	 id="Layer_1" shape-rendering="geometricPrecision" text-rendering="geometricPrecision" image-rendering="optimizeQuality"
	 xmlns="http://www.w3.org/2000/svg" xmlns:xlink="http://www.w3.org/1999/xlink" x="0px" y="0px" width="1024px" height="1024px"
	 viewBox="0 0 1024 1024" enable-background="new 0 0 1024 1024" xml:space="preserve">
<title>star2 icon</title>
<desc>star2 icon from the IconExperience.com O-Collection. Copyright by INCORS GmbH (www.incors.com).</desc>
<path id="curve0" fill="#252525" d="M572.5,108.2L641.2,323c4.3,13.5,16.4,22.3,30.5,22.2l224.5-0.4c28-0.1,51.8,17.2,60.5,43.9
	c8.7,26.7-0.4,54.7-23,71.3L751.2,593.2c-11.4,8.3-15.9,22.3-11.6,35.7l69.8,215.5c8.7,26.7-0.5,54.8-23.2,71.3s-52.2,16.4-74.8-0.3
	L530.8,782.5c-11.5-8.4-26.5-8.4-37.9,0L312.3,915.4c-22.6,16.6-52.1,16.7-74.8,0.3c-22.7-16.5-31.9-44.6-23.2-71.3l69.8-215.5
	c4.3-13.4-0.2-27.4-11.6-35.7L90,460c-22.6-16.5-31.7-44.6-23-71.3c8.7-26.7,32.5-44,60.5-43.9l224.5,0.4c14.2,0,26.2-8.8,30.5-22.2
	l68.7-214.8c8.6-26.8,32.4-44.2,60.5-44.2c28.1,0,51.9,17.4,60.5,44.2H572.5z M512,129.2l-68.2,213.2c-12.8,40-49.6,66.8-91.6,66.7
	l-223.5-0.4l181.8,132.7c33.5,24.5,47.5,67.7,34.7,107.1l-69.5,214.4l179.4-132c34-25,79.8-25,113.8,0l179.4,132l-69.5-214.4
	C666,609,680,565.8,713.5,541.4l181.8-132.7l-223.5,0.4c-42,0.1-78.8-26.7-91.6-66.7L512,129.2z"/>
</svg>
