<?xml version="1.0" encoding="utf-8"?>
<!-- Generator: Adobe Illustrator 18.0.0, SVG Export Plug-In . SVG Version: 6.00 Build 0)  -->
<!DOCTYPE svg PUBLIC "-//W3C//DTD SVG 1.1//EN" "http://www.w3.org/Graphics/SVG/1.1/DTD/svg11.dtd">
<svg version="1.1"
	 id="Layer_1" shape-rendering="geometricPrecision" text-rendering="geometricPrecision" image-rendering="optimizeQuality"
	 xmlns="http://www.w3.org/2000/svg" xmlns:xlink="http://www.w3.org/1999/xlink" x="0px" y="0px" width="1024px" height="1024px"
	 viewBox="0 0 1024 1024" enable-background="new 0 0 1024 1024" xml:space="preserve">
<path d="M512,64C264.6,64,64,264.6,64,512s200.6,448,448,448s448-200.6,448-448S759.4,64,512,64z M512,896
	c-212.1,0-384-171.9-384-384s171.9-384,384-384s384,171.9,384,384S724.1,896,512,896z"/>
<path id="stumbleupon-icon" d="M544.7,452.8l40.7,22.7l64.4-21.8V410c0-75.3-63-134-137.9-134c-74.6,0-137.9,54.8-137.9,133.1
	c0,78.3,0,199.5,0,199.5c0,18.1-14.6,32.7-32.7,32.7s-32.7-14.6-32.7-32.7v-84.6H203c0,0,0,84.7,0,85.7
	c0,76.3,61.8,138.1,138.1,138.1c75.6,0,137.1-60.8,138.1-136.2V414.7c0-18.1,14.6-32.7,32.7-32.7s32.7,14.6,32.7,32.7L544.7,452.8
	L544.7,452.8z M715.3,524.1v88.5c0,18.1-14.6,32.7-32.7,32.7c-18.1,0-32.7-14.6-32.7-32.7v-86.8l-64.4,21.8l-40.7-22.7v86.1
	C545.4,686.8,607,748,682.9,748c76.3,0,138.1-61.8,138.1-138.1c0-1,0-85.7,0-85.7L715.3,524.1L715.3,524.1z"/>
</svg>
