<svg xmlns="http://www.w3.org/2000/svg" width="1024" height="1024" viewBox="0 0 1024 1024">
  <title>sum</title>
  <g id="sum">
    <path d="M880.74,147.78V296.37H732.15V147.78H880.74m60-60H672.15V356.37H940.74V87.78Z"/>
    <path d="M880.74,727.63V876.22H732.15V727.63H880.74m60-60H672.15V936.22H940.74V667.63Z"/>
    <path d="M210.22,135.19,400.45,472.11v34.65L187.17,848.69h257q24.22,0,36.52-3.65a56.86,56.86,0,0,0,21.09-11.17q8.79-7.52,16-21t13.87-37.16q6.64-23.71,12.5-62h45.7L578.58,936.22H83.26V910.69L324.67,523.63,98.11,113.76v-26H580.53V290.66H538.34q-9.77-43.31-18.55-70.67t-18-43.31q-9.18-16-18.75-24.39A65.58,65.58,0,0,0,461,139.52q-12.51-4.33-33.2-4.33Z"/>
  </g>
</svg>
