<?xml version="1.0" encoding="utf-8"?>
<!-- Generator: Adobe Illustrator 18.1.0, SVG Export Plug-In . SVG Version: 6.00 Build 0)  -->
<!DOCTYPE svg PUBLIC "-//W3C//DTD SVG 1.1//EN" "http://www.w3.org/Graphics/SVG/1.1/DTD/svg11.dtd">
<svg version="1.1"
	 id="Layer_1" text-rendering="geometricPrecision" shape-rendering="geometricPrecision" image-rendering="optimizeQuality"
	 xmlns="http://www.w3.org/2000/svg" xmlns:xlink="http://www.w3.org/1999/xlink" x="0px" y="0px" width="1024px" height="1024px"
	 viewBox="256 -256 1024 1024" enable-background="new 256 -256 1024 1024" xml:space="preserve">
<path id="curve1" d="M384-96v-32c0-35.2,28.8-64,64-64h271.5c17.6,0,32.8,6.3,45.3,18.7l388.5,388.5c24.9,24.9,24.9,65.6,0,90.5
	l-29.4,29.4c-3.4-5.1-7.4-10-11.9-14.6l-32-32l28.1-28.1l-362-362l-28.3,28.3c-17.5-15-38.7-22.8-62.2-22.8h-88.1
	c-11.1-19.1-31.7-32-55.4-32c-23.7,0-44.4,12.9-55.4,32h-72.6L384-96z"/>
<path d="M1089.3,343.2L700.8-45.3C688.3-57.7,673.1-64,655.5-64H384c-35.2,0-64,28.8-64,64v271.4c0,17.7,6.2,32.8,18.7,45.3
	l388.6,388.5c24.9,24.9,65.6,24.9,90.5,0l271.5-271.5C1114.2,408.8,1114.2,368.1,1089.3,343.2z M384,64c0-35.3,28.7-64,64-64
	s64,28.7,64,64s-28.7,64-64,64S384,99.3,384,64z M772.5,660l-362-362L682,26.5l362,362L772.5,660z"/>
</svg>
