<svg id="tan" xmlns="http://www.w3.org/2000/svg" width="1024" height="1024" viewBox="0 0 1024 1024"><title>tan</title><path d="M270.46,711.37Q248.76,722.83,205,722.84q-103.56,0-103.56-107.59V469.83H50V397.59h51.47V329.06l97.67-27.9v96.43h71.31v72.24H199.15V598.2q0,49.61,39.38,49.61,15.5,0,31.94-9Z"/><path d="M589.82,715.09H497.12V669.51h-1.24q-31.94,53.33-94.57,53.33-46.2,0-72.71-26.2t-26.51-69.92q0-92.39,109.45-106.66l86.2-11.47q0-52.09-56.43-52.09-56.74,0-107.9,33.8V416.5q20.46-10.54,56-18.6T454,389.84q135.81,0,135.81,135.5Zm-92.09-129V564.71l-57.67,7.44q-47.75,6.21-47.75,43.1,0,16.74,11.63,27.44t31.47,10.7q27.59,0,45-19.07T497.74,586.1Z"/><path d="M974,715.09H876.32V538.66q0-73.79-52.71-73.79-25.43,0-41.86,19.53T765.32,534V715.09h-98V397.59h98v50.23h1.24q35-58,102-58Q974,389.84,974,520.68Z"/></svg>