<svg xmlns="http://www.w3.org/2000/svg" width="1024" height="1024" viewBox="0 0 1024 1024"><title>tan</title><g id="tan"><path d="M289.51,708.53Q267.81,720,224.09,720q-103.56,0-103.56-107.59V467H69.06V394.75h51.47V326.22l97.67-27.9v96.43h71.31V467H218.2V595.36q0,49.61,39.38,49.61,15.5,0,31.94-9Z"/><path d="M589.82,712.25H497.12V666.67h-1.24Q463.94,720,401.31,720q-46.2,0-72.71-26.2t-26.51-69.92q0-92.39,109.45-106.66l86.2-11.47q0-52.09-56.43-52.09-56.74,0-107.9,33.8V413.66q20.46-10.54,56-18.6T454,387q135.81,0,135.81,135.5Zm-92.09-129V561.87l-57.67,7.44q-47.75,6.21-47.75,43.1,0,16.74,11.63,27.44t31.47,10.7q27.59,0,45-19.07T497.74,583.26Z"/><path d="M954.94,712.25H857.27V535.82q0-73.79-52.71-73.79-25.43,0-41.86,19.53t-16.43,49.61V712.25h-98V394.75h98V445h1.24q35-58,102-58,105.41,0,105.42,130.85Z"/></g></svg>