<?xml version="1.0" encoding="utf-8"?>
<!-- Generator: Adobe Illustrator 18.0.0, SVG Export Plug-In . SVG Version: 6.00 Build 0)  -->
<!DOCTYPE svg PUBLIC "-//W3C//DTD SVG 1.1//EN" "http://www.w3.org/Graphics/SVG/1.1/DTD/svg11.dtd">
<svg version="1.1"
	 id="Layer_1" shape-rendering="geometricPrecision" text-rendering="geometricPrecision" image-rendering="optimizeQuality"
	 xmlns="http://www.w3.org/2000/svg" xmlns:xlink="http://www.w3.org/1999/xlink" x="0px" y="0px" width="1024px" height="1024px"
	 viewBox="0 0 1024 1024" enable-background="new 0 0 1024 1024" xml:space="preserve">
<path d="M512,64C264.6,64,64,264.6,64,512s200.6,448,448,448s448-200.6,448-448S759.4,64,512,64z M512,896
	c-212.1,0-384-171.9-384-384s171.9-384,384-384s384,171.9,384,384S724.1,896,512,896z"/>
<path id="twitter-icon" d="M800.4,333.1c-21.2,9.4-44,15.8-68,18.6c24.4-14.6,43.2-37.8,52-65.5c-22.9,13.6-48.2,23.4-75.1,28.7
	c-21.6-23-52.3-37.4-86.4-37.4c-76.4,0-132.5,71.3-115.3,145.3c-98.3-4.9-185.5-52-243.9-123.6c-31,53.2-16.1,122.8,36.6,158
	c-19.4-0.6-37.6-5.9-53.6-14.8c-1.3,54.8,38,106.1,94.9,117.5c-16.7,4.5-34.9,5.6-53.4,2c15.1,47,58.8,81.2,110.5,82.2
	c-49.8,39-112.4,56.4-175.2,49c52.4,33.6,114.6,53.2,181.4,53.2c219.7,0,343.8-185.6,336.4-352C764.5,377.7,784.5,356.8,800.4,333.1
	z"/>
</svg>
