<?xml version="1.0" encoding="utf-8"?>
<!-- Generator: Adobe Illustrator 19.2.0, SVG Export Plug-In . SVG Version: 6.00 Build 0)  -->
<svg version="1.1" id="Layer_1" xmlns="http://www.w3.org/2000/svg" xmlns:xlink="http://www.w3.org/1999/xlink" x="0px" y="0px"
	 viewBox="0 0 1024 1024" style="enable-background:new 0 0 1024 1024;" xml:space="preserve">
<style type="text/css">
	.st0{fill:#0097E8;}
	.st1{fill:#FFFFFF;}
</style>
<path class="st0" d="M172.7,510.7l-1,1.3c0,0,0.3-0.1,0.8-0.4C172.6,511.1,172.7,510.8,172.7,510.7"/>
<path class="st0" d="M166.7,546.6C166.7,546.6,166.6,546.6,166.7,546.6c-0.1,1.1,0,2.3-0.1,3.5c0.4-0.2,0.7-0.2,1.1-0.3L166.7,546.6
	"/>
<path class="st0" d="M482.2,785.4c0,0.1-0.1,0.3-0.1,0.3l0.3-0.6C482.4,785.2,482.3,785.3,482.2,785.4"/>
<path class="st0" d="M485.3,786.6l-0.2,0.5l0.2-0.3V786.6"/>
<path class="st0" d="M492.4,773l-0.2,0.4C492.3,773.3,492.4,773.1,492.4,773"/>
<path class="st0" d="M495,775.1L495,775.1L495,775.1L495,775.1"/>
<path class="st0" d="M495,775.1L495,775.1L495,775.1L495,775.1"/>
<path class="st0" d="M720,683.1C720,683.1,719.9,683.1,720,683.1c0.1,0.1,0.2,0.1,0.3,0.1L720,683.1"/>
<path d="M638.4,581.2c-1.6-3.1-3.1-6.3-4.7-9.5c-7.1-15.2-14.4-32.2-21.6-50.9c-20.9-56.6-32.4-111.1-36.1-130.5
	c-5.4-30.8-8.9-63.5-9.7-97.8c0,0-28.7,197.3,114,362.4c0,0-19.6-27.3-42.6-74.7C638.2,580.9,638.4,581.2,638.4,581.2"/>
<path d="M703.1,126.9c0,0-113.3-24.2-50.2,286.7c0,0,81.7,353.3,229.4,263.1c0,0-104.9,83.7-196.6-140
	C594,313.1,614.6,107.6,703.1,126.9"/>
<path d="M799.3,362l-7.7-0.2l-146.5,16.6l0.4,3.4l144.2-16.3c1.4-1.7,3-2.8,4.9-3.4c1.5-0.4,3.1,2.6,4.8,3L799.3,362"/>
<path d="M702,557.7l118.9-86c-10.4-3.8-22.8-23-30.3-48.7c-6.7-23-7.6-45.2-2.1-55.3c0.5-0.9,1-1.7,1.6-2.3l-138.8,15.5h-4.5
	c9.6,55,26.6,115.6,54.7,177L702,557.7"/>
<path d="M791.4,369.3c-5.1,9.3-4.2,30.5,2.4,52.8c8.3,28.2,21.4,45.8,29.9,46.9c0.8,0,1.6,0,2.3-0.2c1.7-0.5,3.1-1.8,4.3-4
	c5.1-9.3,4.1-30.5-2.5-52.8c-6.5-22.2-17.2-40.6-26.4-45.7c-1.8-1-3.5-1.4-5.1-1.2c-0.2,0.1-0.5,0.1-0.7,0.2
	C794.1,365.8,792.6,367.1,791.4,369.3"/>
<path d="M801.4,365.3c0,0-6.2-0.9-17.2,0.6l2.5-3.5c0,0,9.5-2.6,16.3,1.1L801.4,365.3"/>
<path d="M805.2,459.7l17.4,14.9l6-3C828.5,471.5,810.9,462.6,805.2,459.7"/>
<path class="st1" d="M788.5,367.7c-5.5,10.1-4.6,32.3,2.1,55.3c7.5,25.6,19.9,44.8,30.3,48.7l2.8-2.1V469
	c-8.5-1.1-21.6-18.7-29.9-46.9c-6.6-22.3-7.5-43.5-2.4-52.8c1.2-2.2,2.6-3.5,4.3-4c0.2-0.1,0.5-0.1,0.7-0.2l-0.1-0.5l-6.3,0.7
	C789.5,366,789,366.8,788.5,367.7"/>
<path d="M702.3,561.2l123.4-88.9l0,0c-1.5,0.2-3.1,0-4.8-0.6l-120.5,86.8L702.3,561.2"/>
<path d="M784.1,370l-136.2,14.2l6.9,38.1l121.5-12c0,0,16.1,39.2,28.8,54.1C805.1,464.5,778,417.8,784.1,370"/>
<path d="M865.7,336.2c0.5,1.5,1.1,2.9,1.6,4.4c1.5,4.1,2.9,8.1,4.3,12.2c0.5,1.6,1.1,3.2,1.6,4.7c1.4,4,2.7,8.1,4,12.1
	c0.5,1.6,1.1,3.3,1.6,4.9c1.3,4,2.5,8,3.7,12c0.5,1.8,1.1,3.5,1.6,5.3c1.2,3.9,2.3,7.8,3.4,11.8c0.5,1.8,1,3.7,1.5,5.5
	c1.1,3.9,2.1,7.7,3.1,11.6c0.5,1.9,1,3.8,1.4,5.7c1,3.8,1.9,7.6,2.8,11.4c0.5,2,0.9,3.9,1.4,5.9c0.9,3.7,1.7,7.4,2.5,11.2
	c0.4,2,0.9,4,1.3,5.9c0.8,3.7,1.5,7.3,2.2,10.9c0.4,2,0.8,4.1,1.1,6.1c0.7,3.5,1.3,7.1,1.9,10.6c0.4,2.1,0.7,4.1,1,6.2
	c0.6,3.5,1.1,6.9,1.6,10.3c0.3,2.1,0.6,4.1,0.9,6.2c0.5,3.4,0.9,6.7,1.4,10.1c0.3,2,0.5,4.1,0.7,6.1c0.4,3.3,0.8,6.6,1.1,9.8
	c0.2,2,0.4,4,0.6,6c0.3,3.2,0.5,6.4,0.8,9.6c0.1,2,0.2,3.9,0.3,5.9c0.2,3.1,0.4,6.2,0.5,9.3c0.1,1.9,0.1,3.8,0.2,5.7
	c0.1,3,0.2,6,0.2,9c0,1.8,0,3.6,0,5.4c0,2.9,0,5.9-0.1,8.8c-0.1,1.7-0.2,3.3-0.2,4.9c-0.1,2.9-0.2,5.9-0.4,8.7
	c-0.1,1.5-0.3,2.8-0.4,4.3c-0.2,2.9-0.5,5.8-0.8,8.7c-0.1,1.1-0.3,2.2-0.5,3.3c-0.4,3-0.8,6-1.3,8.9c-0.1,0.6-0.2,1.1-0.3,1.7
	c-1.3,7.2-2.9,14-4.8,20.3c-0.7,2.3-1.5,4.4-2.3,6.6c-0.4,1.1-0.7,2.3-1.2,3.3c-8.4,21.2-19.3,37.2-32.6,48.3
	c-0.6,0.5-1.2,1.1-1.8,1.6c-1,0.7-2,1.3-3,2c-1.9,1.3-3.8,2.8-5.8,3.9c-0.3,0.2-0.7,0.3-1,0.5c-2.7,1.5-5.5,2.9-8.4,4.1
	c-3.2,1.3-6.5,2.4-9.9,3.3c-60.4,15.2-133.1-45.2-133.8-45.8l-0.2-0.1l-0.2-0.1l-0.1-0.1c-3.9-1.7-7.7-3.3-11.5-4.9
	c-85.7-36.4-143.3-44.5-176.8-44.6c-18.7,0-32,2.2-40.9,4.5c-8.3,2.2-12.9,4.5-14,5.1h-0.1l0,0l0,0c-0.2,0.1-0.4,0.2-0.6,0.3
	c-6,2.3-11.3,4.8-16,7.7c-2.9,1.8-5.4,3.8-7.8,5.8c-9,7.7-14.4,17-16.1,27.9c-4.2,28.3,17.9,58,30.6,67.7
	c17.9,13.7,14.5,33,13.9,35.7c0.1-0.1,0.2-0.2,0.2-0.3l-0.3,0.6c0,0,0-0.2,0.1-0.3c-0.1,0.1-0.2,0.4-0.4,0.6l0,0
	c0,0.1-0.1,0.1-0.1,0.2l0,0c-1.1,2-3.2,6.7-2.2,13.9c0.3,2.5,1.2,5,2.2,7.4l0,0c0,0.1,0.1,0.2,0.1,0.2c0.5,1.2,1,2.3,1.6,3.5
	c1.1,2.2,2.3,4.3,3.9,6.5l0,0c4.7,6.6,11.4,13.3,20.3,20.1c11.1,8.4,17.1,18.1,18,29.1c0.1,1.2-0.1,2.3-0.2,3.5v0.1
	c-0.1,5.1-1.1,10-2.7,14.4v0.1l1.3,0.8l-1.4-0.5c-3.8,9.7-9.9,16.9-11.4,18.6l-15.1,1.4l-64.3,5.8c-13.2,0.2-23.6-3.8-30.7-11.7
	c-14.6-16.4-11-44.7-10.9-45c0.5-2.5,5.2-26.2-3.3-96.6c-2.9-23.6-11.7-40.9-26.3-51.2c-13.6-9.7-29.1-11.1-39.2-10.7
	c-6,0.2-10,1.1-10.5,1.2l-53.4,16l-7.9,2.3c-6-3.7-11.5-7.7-16.7-11.9c-0.5-0.4-0.9-0.8-1.4-1.2c-1.9-1.6-3.8-3.3-5.7-5
	c-1.2-1.1-2.2-2.2-3.4-3.3c-42.6-42.2-51.5-101.9-52-141.6c0-2.4,0-4.7,0-6.9c0-0.9,0-1.7,0-2.6c0-1.3,0.1-2.7,0.1-4
	c0-1,0.1-1.9,0.1-2.9c0.1-1.1,0.1-2.1,0.1-3.2c0-0.9,0.1-1.8,0.2-2.7c0-0.9,0.1-1.8,0.2-2.7c0.1-2,0.3-3.8,0.4-5.5
	c0-0.3,0-0.6,0.1-0.8c0.1-1,0.2-1.9,0.3-2.7c0-0.3,0.1-0.6,0.1-0.9c0.1-0.8,0.2-1.5,0.3-2.2c0-0.3,0.1-0.5,0.1-0.7
	c0.2-1.4,0.3-2.5,0.4-3.2c9.7-3.8,99.6-39.7,192-88c49.1-25.6,90.1-49.9,122.8-72.8c54.6-38.2,86.3-72.5,94.7-102.5
	c30.4-109,92.1-142.6,96.6-144.8l0,0l0,0l0,0l0,0c4.7-0.5,9.5-0.6,14.3-0.3c1.6,0.1,3.3,0.5,4.9,0.7c3.2,0.4,6.4,0.8,9.6,1.5
	c2.1,0.5,4.2,1.3,6.3,2c2.7,0.8,5.4,1.6,8.2,2.7c2.4,1,4.8,2.2,7.1,3.4c2.5,1.2,4.9,2.4,7.4,3.8c2.5,1.5,5.1,3.2,7.6,4.8
	c2.3,1.5,4.6,3,6.9,4.7c2.6,1.9,5.3,4.1,7.9,6.3c2.2,1.8,4.4,3.7,6.6,5.7c2.6,2.4,5.3,5,7.9,7.6c2.2,2.2,4.4,4.4,6.6,6.8
	c2.6,2.8,5.1,5.7,7.7,8.7c3.2,3.8,6.5,7.6,9.7,11.8c0.3,0.3,0.5,0.6,0.8,1c11.6,15.1,22.7,32.1,33.2,50.5c0.1,0.2,0.3,0.4,0.4,0.7
	c2.4,4.2,4.8,8.5,7.1,12.9c0.3,0.5,0.5,1,0.8,1.5c2.2,4.2,4.4,8.4,6.5,12.7c0.4,0.8,0.8,1.5,1.1,2.3c2.1,4.1,4.1,8.3,6.1,12.5
	c0.4,1,0.9,1.9,1.3,2.8c1.9,4.1,3.8,8.3,5.7,12.5c0.5,1.1,1,2.2,1.5,3.3c1.8,4.1,3.6,8.3,5.3,12.5c0.5,1.2,1,2.4,1.5,3.6
	c1.7,4.1,3.4,8.3,5,12.5c0.5,1.3,1,2.6,1.6,4C862.6,327.9,864.1,332,865.7,336.2L865.7,336.2L865.7,336.2z M480.2,781.3
	c18,6.6,30.4,16.5,37.2,29.6c0.6,1.7,6.2,19.4-8,44.7c-3.2-5.6-7.9-10.7-14.1-15.4c-21.6-16.4-26.8-29.4-27.1-37.8L480.2,781.3
	L480.2,781.3z M474,718.1l5.2,4.9c1.4,1.3,2.5,2.6,3.4,4.1c1.3,4.2,2.3,16-15.8,37.2c-2.4-4.3-5.8-8.5-10.8-12.3
	c-11.8-9-33.3-38-29.3-64.5c1.6-11.1,7.3-20.4,17.1-27.9C434.4,681.5,455.3,700.9,474,718.1L474,718.1L474,718.1z M129.9,681.2
	c-20.3-32.6-27.2-66.5-18.3-90.6c6.3-16.9,20-28.9,40.7-35.6c0,11.9,0.7,25.6,2.9,40.3c4.6,30.9,16.7,70.3,46.3,101.9
	c1,1,1.8,2.1,2.8,3.1C197.5,703.5,154.8,720.9,129.9,681.2L129.9,681.2L129.9,681.2z M818.6,152.8c-62.1-80.9-121.1-92.4-159.7-87.9
	l-8.7,1.5l-5.5,2.8c-13.8,7-84.7,48.2-119.3,172.4c-17.2,61.6-234,175.7-383.7,234.4l-22.4,8.6l-4.2,24.1c-0.2,1.4-1.2,7.2-2,16.3
	c-20.2,12.1-34.8,29.3-42.6,50.5c-1.3,3.4-2.3,6.9-3.2,10.5c-8.8,35.4,0.4,78.7,25.4,118.6c26.8,43,69.9,51.1,105.4,43.8
	c4.8,3.7,9.4,6.9,13.7,9.4l17.4,10.1l16.6-4.8c0,0,51.1-15.1,60.7-17.9c3.7-0.4,10.6-0.3,14.5,2.5c3.8,2.7,6.7,10.2,7.9,20.6
	c6.8,56.8,4.2,79.7,3.9,82.5l-0.5,3c-1.1,8.1-5.2,49.8,21.6,80c15.6,17.6,38.5,27,64.9,26.5l82.7-7.4l4.9-0.5l14-7l4-1.5l3.7-3.9
	c2.8-2.9,11.5-12.7,18.3-27.2l0,0c3.4-5.8,11.8-21.5,17-42c6.1-24.7,5.5-47.7-2-68.3c-6.2-17.1-16.6-31.4-31.1-42.8
	c4.3-27.4-3.1-51.4-21.4-68.5l-5.3-4.9c-2-1.8-3.7-3.5-5.3-5c24.9-3.4,82.6-2.6,186.1,42.2c24.3,18.9,96.6,68.6,167.6,50.6
	c4.7-1.2,9.4-2.6,13.8-4.3l0,0c35-13.4,61.5-42.3,78.7-85.8c2.8-7.2,5.3-14.9,7.3-22.9c14.4-57.9,9.4-142.6-14.1-238.5
	C912,317.1,867.5,216.4,818.6,152.8L818.6,152.8L818.6,152.8z"/>
</svg>
