<svg xmlns="http://www.w3.org/2000/svg" width="1024" height="1024" viewBox="0 0 1024 1024">
  <title>vvmatrix</title>
  <g id="vvmatrix">
    <g>
      <path d="M411.46,263.34V411.93H262.86V263.34H411.46m60-60H202.86V471.93H471.46V203.34Z"/>
      <path d="M761.14,263.34V411.93H612.54V263.34H761.14m60-60H552.54V471.93H821.14V203.34Z"/>
      <path d="M411.46,612.07V760.66H262.86V612.07H411.46m60-60H202.86V820.66H471.46V552.07Z"/>
      <path d="M759.68,612.07V760.66H611.09V612.07H759.68m60-60H551.09V820.66H819.68V552.07Z"/>
    </g>
    <rect x="102.2" y="82.31" width="60" height="859.38"/>
    <rect x="1.54" y="82.31" width="60" height="859.38"/>
    <rect x="964" y="82.31" width="60" height="859.38"/>
    <rect x="862.57" y="82.31" width="60" height="859.38"/>
  </g>
</svg>
