<?xml version="1.0" encoding="utf-8"?>
<!-- Generator: Adobe Illustrator 18.0.0, SVG Export Plug-In . SVG Version: 6.00 Build 0)  -->
<!DOCTYPE svg PUBLIC "-//W3C//DTD SVG 1.1//EN" "http://www.w3.org/Graphics/SVG/1.1/DTD/svg11.dtd">
<svg version="1.1" id="Layer_1" xmlns="http://www.w3.org/2000/svg" xmlns:xlink="http://www.w3.org/1999/xlink" x="0px" y="0px"
	 width="1024px" height="1024px" viewBox="0 0 1024 1024" enable-background="new 0 0 1024 1024" xml:space="preserve">
<path d="M144.8,705.3c0-30.6,1.7-76.6,5.2-137.9c2.3-30.1,13.1-54.6,32.3-73.6c19.3-19,43.9-29.4,74-31.1
	c56.8-2.9,142.1-4.2,256.2-4.2s199.4,1.4,256.2,4.2c30.1,1.7,54.7,12,74,31.1c19.3,19,30.1,43.6,32.3,73.6c2.9,51,4.2,97,4.2,137.9
	s-1.4,86.8-4.2,137.9c-2.3,30.1-13.1,54.6-32.3,73.6c-19.3,19-43.9,29.4-74,31.1c-56.8,2.9-142.1,4.2-256.2,4.2
	s-199.4-1.4-256.2-4.2c-30.1-1.7-54.7-12-74-31.1c-19.3-19.1-30.1-43.6-32.3-73.6C146.5,781.8,144.8,735.9,144.8,705.3z
	 M201.8,585.3h52v277.4h50.2V585.3h52v-46.8H201.8V585.3z M257.1,72h51l32.3,129.4h3.4L374.6,72h51l-39.1,126
	c-13.1,41.4-19.6,62.6-19.6,63.8v134.4h-50.2V267.7c-1.1-7.9-2.6-15.1-4.7-21.7c-2-6.5-4.6-14-7.7-22.6c-3.1-8.5-5.5-15.6-7.2-21.2
	L257.1,72z M355.9,825.1c0,27.2,10.2,40.8,30.6,40.8c18.1,0,35.4-10,52-29.8v26.4h44.2v-239h-44.3v182.2
	c-11.9,11.9-20.8,17.9-26.4,17.9c-7.9,0-11.9-5.4-11.9-16.2V623.5h-44.3v201.6H355.9z M423.1,335.9V211.6c0-19.3,6.2-34.2,18.7-44.6
	c12.5-10.4,28.3-15.7,47.6-15.7c18.7,0,33.8,5.6,45.5,17c11.6,11.4,17.4,26.4,17.4,45.1v123.4c0,20.4-5.6,36.5-17,48.1
	c-11.4,11.6-27.2,17.4-47.6,17.4c-19.8,0-35.6-6.1-47.3-18.2C428.7,371.9,423.1,355.7,423.1,335.9z M469,341.8
	c0,13.1,6.2,19.6,18.7,19.6c13.1,0,19.6-7.1,19.6-21.2V209.9c0-5.2-2-9.4-6-12.7s-8.5-5.2-13.6-5.2c-5.2,0-9.5,1.6-13.2,4.7
	c-3.7,3.1-5.5,7.2-5.5,12.4V341.8z M526,862.6h45.1v-17.9c11.4,14.2,25.6,21.2,42.6,21.2c26.6,0,40-17.6,40-52.8V680.5
	c0-40.3-14.5-60.4-43.4-60.4c-14.2,0-27.2,7.7-39.1,22.9V538.5H526L526,862.6L526,862.6z M571.2,817.6V667.8
	c6.2-6.2,12.5-9.4,18.7-9.4c12.5,0,18.7,7.9,18.7,23.9v126c0,13.6-5.4,20.4-16.2,20.4C584.5,828.6,577.4,824.9,571.2,817.6z
	 M590.7,358.8V157.2H635v183c0,10.8,4,16.2,11.9,16.2c7.3,0,16.2-6,26.4-17.9V157.3h44.3v239.2h-44.3v-26.4
	c-16.4,19.8-33.7,29.8-52,29.8C600.9,399.7,590.7,386.1,590.7,358.8z M687.7,795.4c0,21.6,5.4,39.2,16.2,53.2
	c10.8,13.9,27,20.9,48.5,20.9c44.3,0,66.4-24.7,66.4-74v-17.9h-46c0,1.1,0.1,4.9,0.5,11.5c0.2,6.5,0.1,11.2-0.5,14
	c-0.6,2.9-1.3,6.7-2.2,11.5c-0.8,4.8-2.6,8.3-5.5,10.2c-2.9,2-6.8,3-11.9,3c-13.1,0-19.6-11.4-19.6-34.1v-45.1h85.1v-61.3
	c0-21.6-5.3-38.5-15.7-51s-26.5-18.7-48.1-18.7c-20.4,0-36.7,6.5-49,19.6c-12.2,13.1-18.2,29.8-18.2,50.2L687.7,795.4L687.7,795.4z
	 M733.6,711.1v-25.6c0-17.6,6.5-26.4,19.6-26.4c13.1,0,19.6,8.8,19.6,26.4v25.6H733.6z"/>
</svg>
