<?xml version="1.0" encoding="utf-8"?>
<!-- Generator: Adobe Illustrator 18.0.0, SVG Export Plug-In . SVG Version: 6.00 Build 0)  -->
<!DOCTYPE svg PUBLIC "-//W3C//DTD SVG 1.1//EN" "http://www.w3.org/Graphics/SVG/1.1/DTD/svg11.dtd">
<svg version="1.1"
	 id="Layer_1" shape-rendering="geometricPrecision" text-rendering="geometricPrecision" image-rendering="optimizeQuality"
	 xmlns="http://www.w3.org/2000/svg" xmlns:xlink="http://www.w3.org/1999/xlink" x="0px" y="0px" width="1024px" height="1024px"
	 viewBox="0 0 1024 1024" enable-background="new 0 0 1024 1024" xml:space="preserve">
<path d="M512,64C264.6,64,64,264.6,64,512s200.6,448,448,448s448-200.6,448-448S759.4,64,512,64z M512,896
	c-212.1,0-384-171.9-384-384s171.9-384,384-384s384,171.9,384,384S724.1,896,512,896z"/>
<path id="youtube-icon" d="M348,244.2h32.2l22,82.6l20.5-82.6h32.4l-37.2,122.9v83.8H386v-83.8L348,244.2z M453.6,412.9
	c0,26.9,14,40.9,41.5,40.9c22.8,0,40.8-15.2,40.8-40.9v-74.7c0-23.9-17.8-41-40.8-41c-25,0-41.5,16.5-41.5,41V412.9z M482.8,340.6
	c0-8.3,3.8-14.5,11.8-14.5c8.7,0,12.4,6,12.4,14.5v70.9c0,8.3-4.2,14.4-11.9,14.4c-7.8,0-12.4-6.4-12.4-14.4V340.6z M612.6,298.4
	v115.7c-3.5,4.3-11.1,11.4-16.7,11.4c-6.1,0-7.6-4.1-7.6-10.3V298.4H560v127.4c0,15.1,4.6,27.2,19.8,27.2c8.6,0,20.5-4.5,32.8-19
	v16.8h28.3V298.4H612.6z M570.9,611c1.9,2.5,2.9,6.3,2.9,11.2v75c0,4.6-0.8,8-2.3,10c-3,3.9-9.4,3.7-13.8,1.5
	c-2.1-1-4.2-2.7-6.4-5.1V613c1.8-2,3.7-3.5,5.6-4.4C561.5,606.2,567.6,606.7,570.9,611z M661.7,607.7c-10,0-12.1,7-12.1,17v14.7
	h23.9v-14.7C673.5,614.9,671.4,607.7,661.7,607.7z M744.1,714.8c0,35.9-29.1,65-65,65H344.9c-35.9,0-65-29.1-65-65V550.6
	c0-35.9,29.1-65,65-65h334.1c35.9,0,65,29.1,65,65L744.1,714.8L744.1,714.8z M389.5,562.9h31.5v-28.6h-93.3v28.6H359v168.3h30.4
	L389.5,562.9L389.5,562.9z M497.6,585.9h-27v110.2c-3.3,4.1-10.6,10.9-15.9,10.9c-5.8,0-7.2-3.9-7.2-9.8V585.9h-27v121.4
	c0,29.5,20,29.6,34.5,21.3c5.4-3.1,10.6-7.6,15.5-13.5v16h27V585.9z M601.5,620.5c0-19.7-6.5-36.4-26.3-36.4
	c-9.6,0-17.9,6.1-24,13.6v-63.4h-27.3v196.8h27.3V720c7.5,9.4,15.8,13,25.6,13c18,0,24.7-14,24.7-31.9V620.5z M701.3,625
	c0-26.2-12.5-42.7-38.4-42.7c-24.4,0-41,17.5-41,42.7v65.2c0,26.1,13.2,44.9,39,44.9c28.4,0,40.5-16.9,40.5-44.9v-10.9h-27.8v10.1
	c0,12.6-0.7,20.3-12.1,20.3c-10.9,0-11.8-9.4-11.8-20.3v-27.4h51.6L701.3,625L701.3,625z"/>
</svg>
