<?xml version="1.0" encoding="utf-8"?>


<!-- The icon can be used freely in both personal and commercial projects with no attribution required, but always appreciated. 
You may NOT sub-license, resell, rent, redistribute or otherwise transfer the icon without express written permission from iconmonstr.com -->


<!DOCTYPE svg PUBLIC "-//W3C//DTD SVG 1.1//EN" "http://www.w3.org/Graphics/SVG/1.1/DTD/svg11.dtd">

<svg version="1.1" xmlns="http://www.w3.org/2000/svg" xmlns:xlink="http://www.w3.org/1999/xlink" x="0px" y="0px"

	 width="512px" height="512px" viewBox="0 0 512 512" enable-background="new 0 0 512 512" xml:space="preserve">

<path id="blogger-circle-outline-icon" d="M256.417,90c44.34,0,86.026,17.267,117.38,48.62c31.354,31.354,48.62,73.04,48.62,117.38

	c0,44.34-17.267,86.026-48.62,117.38c-31.354,31.353-73.04,48.62-117.38,48.62s-86.026-17.268-117.38-48.62

	c-31.354-31.354-48.62-73.04-48.62-117.38c0-44.34,17.267-86.026,48.62-117.38C170.391,107.267,212.077,90,256.417,90 M256.417,50

	c-113.771,0-206,92.229-206,206s92.229,206,206,206s206-92.229,206-206S370.188,50,256.417,50L256.417,50z M347.976,231.737h-15.974

	c-5.358,0-9.703-4.346-9.703-9.706v-4.245c0-33.053-26.794-59.847-59.849-59.847h-41.446c-33.054,0-59.848,26.794-59.848,59.847

	v76.426c0,33.053,26.794,59.848,59.848,59.848h76.828c33.055,0,59.847-26.795,59.847-59.848v-52.771

	C357.679,236.082,353.335,231.737,347.976,231.737z M223.634,208.081h35.783c6.478,0,11.729,5.251,11.729,11.728

	c0,6.476-5.251,11.727-11.729,11.727h-35.783c-6.479,0-11.729-5.251-11.729-11.727C211.905,213.332,217.155,208.081,223.634,208.081

	z M295.231,303.11h-71.598c-6.479,0-11.729-5.251-11.729-11.729c0-6.475,5.25-11.727,11.729-11.727h71.598

	c6.477,0,11.728,5.252,11.728,11.727C306.959,297.859,301.708,303.11,295.231,303.11z"/>

</svg>

