<?xml version="1.0" encoding="utf-8"?>

<!-- License Agreement at http://iconmonstr.com/license/ -->

<!DOCTYPE svg PUBLIC "-//W3C//DTD SVG 1.1//EN" "http://www.w3.org/Graphics/SVG/1.1/DTD/svg11.dtd">
<svg version="1.1" xmlns="http://www.w3.org/2000/svg" xmlns:xlink="http://www.w3.org/1999/xlink" x="0px" y="0px"
	 width="512px" height="512px" viewBox="0 0 512 512" enable-background="new 0 0 512 512" xml:space="preserve">
<path id="windows-os-5-icon" d="M256,90c44.34,0,86.026,17.267,117.38,48.62C404.733,169.974,422,211.66,422,256
	c0,44.34-17.267,86.026-48.62,117.38C342.026,404.732,300.34,422,256,422s-86.026-17.268-117.38-48.62
	C107.267,342.026,90,300.34,90,256c0-44.34,17.267-86.026,48.62-117.38C169.974,107.267,211.66,90,256,90 M256,50
	C142.229,50,50,142.229,50,256s92.229,206,206,206s206-92.229,206-206S369.771,50,256,50z M153.15,250.455V185.95l78.273-10.979
	v75.484H153.15z M242.516,250.455h104.335V158.78l-104.335,14.636V250.455z M231.424,261.545H153.15v64.505l78.273,10.979V261.545z
	 M242.516,261.545v77.041l104.335,14.633v-91.674H242.516z"/>
</svg>
