<?xml version="1.0" encoding="utf-8"?>
<!-- Generator: Adobe Illustrator 18.1.0, SVG Export Plug-In . SVG Version: 6.00 Build 0)  -->
<!DOCTYPE svg PUBLIC "-//W3C//DTD SVG 1.1//EN" "http://www.w3.org/Graphics/SVG/1.1/DTD/svg11.dtd">
<svg version="1.1"
	 id="Layer_1" text-rendering="geometricPrecision" shape-rendering="geometricPrecision" image-rendering="optimizeQuality"
	 xmlns="http://www.w3.org/2000/svg" xmlns:xlink="http://www.w3.org/1999/xlink" x="0px" y="0px" width="1024px" height="1024px"
	 viewBox="256 -256 1024 1024" enable-background="new 256 -256 1024 1024" xml:space="preserve">
<g>
	<path d="M768-192C520.6-192,320,8.6,320,256s200.6,448,448,448s448-200.6,448-448S1015.4-192,768-192z M768,640
		c-212.1,0-384-171.9-384-384s171.9-384,384-384s384,171.9,384,384S980.1,640,768,640z"/>
	<g>
		<g enable-background="new    ">
			<path stroke="#000000" stroke-width="10" stroke-miterlimit="10" d="M493-77.3l36.7-25.5l2.9,0.7c9.8-6.5,17.6-12.6,23.4-18.3
				l6.5,1.4c1.2,0,2.8-0.1,4.7-0.4c1,0,1.7,0,2.2,0c2.6,0,4.9,1,6.8,2.9c1.9,2.4,2.9,4.7,2.9,6.8l-0.7,12.2v18
				c-2.2,12.2-3.2,20-3.2,23.4c0,4.8,0.7,11.9,2.2,21.2l-11.1,14l-9.7-1.8L558-13v11.1l2.2,6.5h1.8l6.8-5c2.6,3.6,4,6.5,4,8.6
				c0,0.7-0.2,2.2-0.7,4.3c-0.7,2.2-1.1,4-1.1,5.4l1.1,72.2l-0.7,15.1c-0.2,17-1,26-2.2,27l-8.6,7.9c-1.2,1.2-1.8,2.9-1.8,5
				c0,3.6,2.6,7.8,7.9,12.6c0.7,5,2.6,10.7,5.8,16.9l-2.9,12.6l1.1,11.5L570,217c1,12.5,1.4,21.8,1.4,28l5,2.5v6.8l2.5,2.5
				c11-4.5,17.3-7.4,18.7-8.6c13.9-10.1,22.9-16.3,27-18.7l1.8,1.1l10.8-12.9l53.5-56.1l5-11.5l37.4-47.8c3.8-5,8.3-9.8,13.3-14.4
				c3.6-3.8,9.7-11.4,18.3-22.6l-4.3-6.5v-0.4c3.8-8.4,13.3-21.6,28.4-39.5l6.1-1.8c0.7-4.5,3.2-10.2,7.5-16.9l7.2-12.2l6.1-9
				l9.7-17.6c6.9-6.9,12.9-14.7,18-23.4c5.3-8.9,9.3-15.6,12.2-20.1c6.5-1,10.4-2,11.9-3.2l7.9-6.1c6.9-5,10.8-7.8,11.5-8.3
				c0.5-0.5,2.3-0.8,5.4-1.1c2.4,0,5.6-1.7,9.7-5c5-4.1,9.3-6.1,12.9-6.1l2.9,5v0.4c0,1.4-2.5,5.8-7.5,12.9
				c-4.8,9.8-7.3,15-7.5,15.5l-11.5,9.7c-11,13.5-17.1,21.6-18.8,24.5c-3.4,7-6.6,12.3-9.7,16.2l-21.9-2.2l-1.1,15.8l6.1,2.5
				c0,6-1.4,10.9-4.3,14.7c-2.2,3.1-5.9,7.2-11.1,12.2c-0.7,3.4-2,5.9-4,7.5c-2.6,2.9-5.3,5.8-7.9,8.6L807.1,40
				c-3.1,8.6-4.9,13.4-5.4,14.2s-2.8,2.6-6.8,5.2c0,4.6-0.5,7.5-1.4,9c-1,1.9-4.8,5.6-11.5,11.1c-12,12-25.4,28.3-40.3,48.9
				l-19.4,21.2c-10.1,13.4-17.4,22.4-21.9,27l-2.5,10.1c-5.8,3.4-9.2,5.7-10.4,7s-5.2,7.6-11.9,18.9c-6.7,4.3-10.5,7-11.5,7.9
				c-1,1-2.3,4.1-4,9.3l-9.7,1.1c-2.4,3.1-4,5.2-4.7,6.1c-3.6,4.1-5.4,6.6-5.4,7.5c0,0.2,0.1,0.6,0.4,1.1l0.4,1.4l34.1,41
				c7.4,8.6,11.1,16.4,11.1,23.4c0,1.4-0.1,3.2-0.4,5.4c5.3,0,9.1,0.2,11.5,0.7c2.6,0.7,6.8,4.1,12.6,10.1
				c5.8,5.5,9.8,10.7,12.2,15.5c3.1,0.2,5.9,1.2,8.3,2.9c9.1,6.7,13.7,12.3,13.7,16.9c0,2.4-1.1,5.4-3.2,9c3.6,3.4,9,7,16.2,10.8
				l10.4,7.2l8.3,2.2c0.7-1,3.5,1.6,8.3,7.5h7.5c7.2,8.1,17.6,17.3,31.3,27.3l45.3,32.3l11.5,6.5c-0.2,2.2-0.4,4.1-0.4,5.8
				c0,4.1,1.9,6.5,5.8,7.2c4.1,0.7,7.3,1.6,9.7,2.5v6.5c1.2,1,4.5,2,10.1,3.2c5,1.9,11.1,3.6,18.3,5c6.2,1.4,11.7,4.4,16.5,9
				c26.6,16,40.3,24.4,41,25.2c1.7,1.4,3,5,4,10.8c6.9,1.7,13.1,4.1,18.3,7.2l7.5-6.5c5.8,2.6,13.4,4.9,23,6.8
				c9.6,1.9,17.7,2.9,24.4,2.9c0.2,0,0.7,0,1.4,0l25.2-3.6c0.5,0,1.6,1,3.2,2.9l1.1,2.9c1.4,11-9.7,19-33.4,24.1l-5.8,7.5
				c-7,0.5-11.5,1.2-13.7,2.2c-0.7,0.2-4.4,2.4-11.1,6.5l-7.9-1.1c-6.7-0.7-10.5-1.2-11.3-1.4s-2.8-1.6-5.9-4l-12.9,1.8
				c-7-5.8-12.1-9.7-15.5-11.9c-2.2-1.7-8.5-5-19-10.1c-6.2-3.6-11.4-6-15.5-7.2c-3.1-0.7-8.1-3.1-15.1-7.2
				c-7.9-4.8-12.6-7.3-14-7.5c-6.7-3.1-10.5-5.3-11.5-6.5l-7.9-8.6l-5.8-2.9c-5-5-9.8-8.6-14.4-10.8c0.7-3.4,1.1-6.2,1.1-8.6
				c0-1.7-0.5-3.1-1.4-4.3c-3.1-3.6-7.5-5.4-13.3-5.4c-1.2,0-6.2,1.4-15.1,4.3c-0.5,0.2-0.8,0.4-1.1,0.4c-4.6,0-8.6-3.1-12.2-9.3
				c-0.7-1.4-1.9-5.9-3.6-13.3c-0.5-2.4-2-4.5-4.7-6.5c-1.9-1.4-3.5-2.2-4.7-2.2l-9,1.4c-0.5,0-1,0-1.4,0c-3.8,0-12.2-4.8-25.2-14.4
				c-4.1-3.1-14.5-11-31.3-23.7l-16.5-17.3c-4.1-4.1-6.4-6.5-6.8-7.2c-2.2-2.6-5.6-4.9-10.4-6.8c-9.1-6.2-20.2-13.3-33.4-21.2
				c1.4-6,3.1-11.4,5-16.2c-9.6-4.1-15.3-6.1-17.3-6.1c-1.4,0-3.2,0.1-5.4,0.4c-3.6-3.4-8.5-7.5-14.7-12.6L631.7,331
				c-5-5-8-8.3-9-9.7c-1.4-2.4-3.1-6.3-5-11.9c-5.3,0-9.1-0.5-11.5-1.4c-2.9-1.2-8.9-6.3-18-15.5c-3.4-3.1-7.2-4.7-11.5-4.7
				c-3.4,0-6.2,1.1-8.4,3.2c-2.3,2.2-3.4,4.8-3.4,7.9c0,0.7,0,1.6,0,2.5l8.6-0.7c0,2.9,0,5.2,0,6.8c0,2.2-0.5,6.5-1.4,12.9
				c-0.2,1.9-0.4,3.8-0.4,5.8c0,1.7,0.7,9.5,2.2,23.4v13.3l0.4,11.5c0,1.9-0.7,3.6-2.2,5c-2.4,2.4-3.7,4.2-4,5.4
				c-0.7,2.9-1.8,6.4-3.2,10.4c5,0.5,8.6,1.9,10.8,4.3c-2.4,9.8-3.6,27.3-3.6,52.5c-0.2,4.6-1.7,6.8-4.3,6.8c-2.4,0-5.3-1.8-8.6-5.4
				H556c-1.2,1.2-1.8,2.4-1.8,3.6c0,8.9,5.6,13.4,16.9,13.7c1,2.6,1.6,8.7,1.8,18.3l0.4,6.5c-0.2,2.6-1.9,6.2-5,10.8l-7.2,4.3
				l3.2,9.7c3.6-3.4,6.3-5,8.3-5c2.6,0,4,5.6,4,16.9c-0.2,1.9,0.2,4.7,1.4,8.3c1,3.6,1.4,6.3,1.4,8.3c0,0.5-0.1,1.4-0.4,2.9
				c-6.7,3.8-11,8.1-12.9,12.9c-7.9,0-14.3,2.3-19,6.8l1.4,4.7c-9.6,3.1-16.5,6.2-20.8,9.3c-7.4,6-12.2,9-14.4,9
				c-2.6,0-5.9-0.7-9.7-2.2c1.4-6.5,2.2-10.8,2.2-12.9v-1.1c0-1.2,0-2.4,0-3.6l-0.4-2.2l37.7-21.6l-34.9-19l3.2-2.5
				c4.8-3.8,7.1-7.5,6.8-11.1l-1.1-14.7l29.8-15.5l-27-14.7L521,460l-0.4-34.5l0.7-8.3c-2.9-6.5-4.3-10.3-4.3-11.5
				c0-1.7,0.2-3.6,0.7-5.8c3.6-13.4,5.4-20.8,5.4-22.3l2.2-54.6l19.4-21.2c-9.8-5.5-16.9-10.7-21.2-15.5l2.5-2.5h2.9l2.5,2.5h1.4
				v-2.9c3.8-3.8,6.1-7.9,6.8-12.2l-11.5,1.4c-2.4-18.4-3.6-33.2-3.6-44.2l1.8-19.8v-0.4l-0.7-13.3l1.1-6.1c0-11,0.6-17.5,1.8-19.4
				c2.2-3.1,3.2-6.1,3.2-9l-10.8-5.4c1.9-4.5,3-11.1,3.2-19.8l0.4-10.1l-1.1-11.5c0-13.4-0.2-21.9-0.7-25.5c-1-3.8-2.9-7.9-5.8-12.2
				c1.7-4.1,2.8-6.8,3.2-8.3c1-2.9,2.2-5.3,3.6-7.2c-1.4-2.9-2.2-6.2-2.2-10.1c2.6-2.2,5.5-3.6,8.6-4.3V30.4c-3.4,3.1-6.5,4.8-9.3,5
				c-1-3.6-1.7-11.4-2.2-23.4c-1-16-2.2-28.6-3.6-37.7c3.1-3.1,5.1-6.3,6.1-9.7c-6.5-5.8-9.7-11.5-9.7-17.3c0-3.1,0.6-7.8,1.8-14
				c-12.9-1.2-19.6-4.2-20.1-9L493-77.3z"/>
		</g>
		<polygon stroke="#000000" stroke-width="10" stroke-miterlimit="10" points="548.1,553.6 534.9,580.7 504.7,582.8 487.8,557.8 
			501.1,530.6 531.2,528.5 		"/>
	</g>
</g>
</svg>
