<?xml version="1.0" encoding="utf-8"?>
<!-- Generator: Adobe Illustrator 18.1.0, SVG Export Plug-In . SVG Version: 6.00 Build 0)  -->
<!DOCTYPE svg PUBLIC "-//W3C//DTD SVG 1.1//EN" "http://www.w3.org/Graphics/SVG/1.1/DTD/svg11.dtd">
<svg version="1.1"
	 id="Layer_1" text-rendering="geometricPrecision" shape-rendering="geometricPrecision" image-rendering="optimizeQuality"
	 xmlns="http://www.w3.org/2000/svg" xmlns:xlink="http://www.w3.org/1999/xlink" x="0px" y="0px" width="1024px" height="1024px"
	 viewBox="256 -256 1024 1024" enable-background="new 256 -256 1024 1024" xml:space="preserve">
<g>
	<path d="M768-192C520.6-192,320,8.6,320,256s200.6,448,448,448s448-200.6,448-448S1015.4-192,768-192z M768,640
		c-212.1,0-384-171.9-384-384s171.9-384,384-384s384,171.9,384,384S980.1,640,768,640z"/>
	<g>
		<g>
			<path stroke="#000000" stroke-width="10" stroke-miterlimit="10" d="M574.1,31.2c1.1-4,2.1-6.8,3.2-8.2c0.3-0.4,2.1-1.6,5.6-3.7
				l5.4-4l6.6-4c6.6-5.6,11.3-9,13.9-10l2.8,2.1c5-5.3,9-9.2,11.9-11.6c2.9-2.1,6.8-4,11.7-5.8c3.2-1.1,6.6-2.4,10.4-4
				c5.4-2.1,11.9-3.6,19.3-4.5l6-1.1c0.5,0,4,1.5,10.4,4.5c0.1,0.2,0.3,0.3,0.6,0.3c2.4,0,4.8-1.9,7.4-5.8
				c3.3,1.1,11.9,2.2,25.7,3.4l12.3,3.4c8.1,2.1,12.9,3.6,14.3,4.5c4.2,2.6,7.3,4,9.2,4c0.4,0,1.3-0.1,2.8-0.3
				c0.9-0.2,1.8-0.3,2.6-0.3c5.3,0,9.4,3.6,12.3,10.8c3.1,1.4,7.6,2.8,13.5,4.2l7.4,6.1c4.2,2.5,6.5,4,6.8,4.5
				c0.8,1.1,1.7,4.4,2.8,10c1.5,13.9,2.7,21,3.6,21.1v-0.3c1.9-5.8,3.2-13.5,4-23c3.4,1.8,5.6,3.3,6.6,4.8l4,6.1
				c0.3,0.4,1.6,1.4,4,3.2c4.1,3.2,10.8,11.1,20.1,23.8c2,3,3.3,5,3.8,6.1c0.7,2.1,1.2,4.2,1.6,6.3c1.2,4.2,4,8.4,8.6,12.4
				c-2.7,6.3-4,10.6-4,12.7c0,0.7,0.1,1.8,0.4,3.4c0.7,0.4,1.1,0.5,1.2,0.5c0.1,0,1.7-0.4,4.6-1.1c0.7-0.2,1.7-0.3,3.2-0.3
				c0.4,2.6,0.6,4.6,0.6,5.8c0,1.9-0.4,4.8-1.2,8.5c1.1,1.8,1.9,2.7,2.6,2.9c1.2,0.7,1.8,1.5,1.8,2.4c0,0.4,0.8,1.8,2.4,4.2
				c0.7,1.1,1.1,2.4,1.4,4c2.8,11.3,4.2,17,4.2,17.2s-0.9,3.3-2.6,9.2c-0.4,1.4-0.6,2.9-0.6,4.5c0,3,1.5,6.4,4.4,10.3
				c-0.8,1.2-1.2,1.9-1.2,2.1l2,27.2c0,0.2-0.2,0.5-0.6,1.1c-0.9,0.9-1.5,1.3-1.8,1.3c-2.9,1.4-4.4,2.9-4.4,4.5
				c0,2.3,1.8,5.7,5.4,10.3l-0.6,2.4l-1.4,35.9c-0.4,9.7-1.3,16.2-2.6,19.5c-0.3,0.7-1.1,1.9-2.6,3.7c-2.8,3.2-4.6,6.5-5.4,10l6,6.3
				c-0.5,4.4-1.1,7.2-1.8,8.5l-4.4,7.9c-0.5,0.9-0.8,3.3-0.8,7.1c-1.7,2.6-3,5.9-3.8,9.8c-0.8,3.5-2.1,7.2-3.8,11.1l-5.6-2.9
				c-2,4.2-3.1,7.8-3.2,10.8v1.6c0.1,0.9,0.2,2.3,0.2,4.2c-0.9,8.5-4.6,14.6-11.1,18.5c-1.1,3.9-2.6,7.2-4.6,10
				c-1.1,1.2-7,7.5-17.9,18.8c-8.9,11.4-13.9,17.6-14.9,18.5c-0.7,0.5-3.5,2.6-8.4,6.1c-0.8,0.7-3.6,3.4-8.4,8.2v2.9
				c-11.3,10.6-18.2,15.8-20.7,15.8c-0.8,0-2.3-0.9-4.6-2.6c-3.2,4.4-5.5,7.5-7,9.2c-1.9,2.1-4.8,4-8.8,5.5c0.5,1.8,2,3.2,4.4,4.2
				c1.2,0.4,6.8,2.1,16.9,5.3l8.8,1.6l6,4l11.5,5.3c3.2,2.3,5.2,3.4,6.2,3.4c0.7,0,1.7-0.3,3-0.8l4.2,8.7c1.3,0,3.1,0,5.4,0h3.4h0.4
				c0.7,0,1.5,0,2.4,0c1.1-0.2,1.7-0.3,2-0.3c3.1,0,5.9,0.8,8.6,2.4c1.7,1.1,3.6,4.1,5.6,9.2c2.5-2.6,4.3-4,5.4-4l4.6,0.5
				c6.2,0.4,10.3,0.8,12.1,1.3c1.9,0.5,4.6,2.2,8.4,5c4,3,6.3,4.6,6.9,4.9c0.6,0.3,4.7,1.5,12.2,3.6l12.7,6.6l7.4-4
				c0.3-0.2,4.3-0.5,12.1-1.1c5.6,0,12.7-3.3,21.3-9.8c8.2-8.6,13.9-13.9,16.9-15.8c1.5-3.3,3.4-6.8,5.8-10.3l3.6-1.3
				c0.9-2.5,2.6-5.4,5-8.7c1.9-2.6,3.4-5.6,4.8-9h2.6c1.9,3.5,2.8,7.2,2.8,11.1c0,7.2-1.5,13.3-4.6,18.2c-0.5,0.9-3.5,3.6-9,8.2
				c-4.6,5.3-8.7,8.9-12.1,10.8c-2.5,1.1-8.2,2.7-16.9,5c-8.2,3.2-13.9,5.1-17.1,5.8c-3.7,0.9-9,3.6-15.7,8.2l-8.8,1.6l-5.4,1.3
				l-7-1.6c-10.2,1.8-17.4,2.6-21.5,2.6c-5,0-9.4-1.4-12.9-4.2c-0.3-2.8-0.7-4.7-1.2-5.5c-0.7-1.2-2.7-2.2-6-2.9l-3,6.9l-5-12.9
				l-12.5,12.9c-1.9-2.6-3.9-4.5-6.1-5.7c-2.2-1.1-5.8-2.1-10.8-2.8c-5.2-1.1-9.2-3.1-12.1-6.1c0-2.3-0.6-4.2-1.7-5.8
				c-1.1-1.6-2.4-2.4-3.9-2.4c-1.6,0-3.6,1.6-6,4.8c-3.5-1.6-8.3-3-14.5-4.2c-3.2-1.4-5.6-2.6-7.4-3.4c-1.1-0.4-2.3-1.8-3.6-4.5
				c-3.5-3.9-5.7-6.4-6.8-7.7h-4.6l-0.4,5.3c-4.9-0.9-7.6-1.7-8.2-2.4L702,473.3c-2.5-2.3-4.8-3.4-7-3.4c-5.2,0-12.6,6.7-22.3,20.1
				l-1.4-5.5h-5.2l-36.8,5.8c-0.9,0.2-1.5,0.3-1.6,0.3l-6.4-1.3l-10.4-1.8l-6-1.6c-8.2-1.2-14.8-3.9-19.7-7.9
				c-4.8,0-8.4-0.8-10.9-2.4c-5-3.7-7.7-5.9-8-6.6l-1.4-5.3c-0.4-1.2-1.5-2.6-3.2-4s-3.3-2.1-4.6-2.1c-0.7,0-3.5,0.7-8.4,2.1
				c-1.2-6-2.5-9.6-3.8-10.8c-0.7-0.5-4.6-1.6-11.7-3.2l-5.4-6.9c-10.7-9.5-16.7-15.1-17.7-16.9c-2.4-3.7-4.2-6.6-5.4-8.7l-1.4-9.2
				c-3.2-2.5-5.6-5.4-7.4-8.7c-1.5-2.8-3.7-5.8-6.8-9l2.8-11.6c-1.6-1.4-3.6-2.3-6-2.6c-0.5-1.9-2.4-5.1-5.6-9.5l-2-8.7l-5.2-10.8
				l-3-10c-1.5-4.2-2.4-8.2-2.8-11.9c4-3.2,6-6.2,6-9c0-1.6-0.2-3.5-0.6-5.8l-7.2-4.5c0-3.2-0.4-7.9-1.2-14.3c0-0.2,0-0.4,0-0.5
				c0-2.1,0.3-4.4,0.8-6.9c0.8-3.3,1.2-5.8,1.2-7.4c0-0.2-0.7-4.8-2-14c-0.1-0.7-0.2-1.7-0.2-2.9c0-1.1,0.7-9,2.2-23.8
				c0.1-4,0.8-10.1,2-18.2c0.5-2.8,2-7,4.4-12.4l-1.4-7.7l3.2-8.7l5.2-18.2l5.2-12.2c2-6.5,4.7-13.5,8.2-20.9
				c3.2-6.5,5.4-11.3,6.8-14.3c1.5-3.3,3.9-7.7,7.4-13.2c4.4-9,7.2-14.6,8.6-16.9c1.1-1.6,6-7.7,14.7-18.5l7-9l10.7-10.3L563.4,35
				C567.4,34,570.9,32.6,574.1,31.2z M492.1,252.3h2.8c0.3,3.9,0.4,6.3,0.4,7.4c0.4,12.3,0.7,19,0.8,20.1l4.8,28
				c0.1,0.4-0.5,2.1-1.8,5.3c2.9,3.3,4.6,5.6,5,6.9c0.8,1.2,1.7,4.8,2.6,10.8c2.3,2.5,3.4,4.4,3.6,5.8l0.8,6.9l3,5
				c2,5.6,4,9.9,6.2,12.7c-1.3,2.6-2,4.9-2,6.9c0,1.2,0.7,3.3,2,6.1c0.5,0.9,2.6,1.9,6.2,3.2c1.2,0.4,3.9,3.6,8.2,9.8
				c3.3,4.4,5.8,7.8,7.4,10l-1,12.2c1.7,0.9,3.1,1.3,4,1.3s2.3-0.6,4.2-1.8c1.5,3.7,2.5,5.8,3.2,6.3l7.6,8.7
				c5,7.9,9.2,13.3,12.3,16.1c1.6-0.5,3-0.8,4.2-0.8c0.3,0,4.3,3.9,12.1,11.6c5.8,8.3,10,13.5,12.3,15.6c1.5,1.2,5.8,4.7,13.1,10.3
				l7,2.1l6.2,2.1c2.3-0.5,4.4-4.8,6.4-12.9c1.1,3,2.5,4.5,4.4,4.5c2.9,0,6-1.1,9.4-3.4c0.7-0.5,3.4-3.3,8.2-8.5
				c0.7-0.5,4-0.9,10.2-1.1c2-0.2,5.6-2.1,10.7-5.8l5.8-0.8c2.8-0.5,4.2-0.8,4.4-0.8c3.3,0,6.2,0.7,8.8,2.1c6,3.3,10.6,5.4,13.7,6.1
				c2.8-4.6,12.1-9,28.1-13.2l5-2.4l3.6-1.3l10.3-9.2c8.1-5.1,12.9-8.4,14.3-9.8c2.5-2.6,4.5-4.7,6-6.1c0.7-0.7,4.4-6.3,11.1-16.6
				c2.1-3.5,4.2-6.5,6.4-9c4.4-4.6,6.6-7,6.8-7.4l6.4-11.6c4.4-6.3,7.3-11.3,8.8-14.8c2.1-5.5,4.2-9.9,6.4-13.2
				c0.9-5.3,2.6-10.6,5-15.8c5.7-20.8,8.6-32.3,8.8-34.6V295l-0.6-8.5c1.5-13.9,2.7-22.3,3.6-25.1c0.9-2.5,2.6-3.7,5-3.7h0.4
				l5.4,2.9c1.5-3.5,2.2-6.2,2.2-7.9c0-1.9-0.9-4.8-2.8-8.7h-0.4l-2,2.6l-8.6-3.7v-3.2l3.8-4.8l-2.8-3.7c0.8-4.4,1.2-13.5,1.2-27.2
				c0-0.5,0.7-4.2,2-11.1c-2.4-2.6-3.9-4.9-4.6-6.9l18.3-14c-0.1-2.6-0.3-6.2-0.6-10.6c-0.1-1.8-1.6-5-4.4-9.8l-3.8-9l-5.6-7.9
				c-3.5-9.3-5.7-14.9-6.8-16.6c-0.8-1.2-6.9-8.8-18.3-22.7c-2.1-2.6-3.2-4.9-3.2-6.9c0-1.8,1.1-3.9,3.2-6.3v-2.1
				c-2.9-3.7-4.8-8.4-5.6-14c-1.3-1.8-2.6-2.6-3.8-2.6c-0.8,0-2,0.5-3.6,1.6c-0.5,0.4-1.3,0.5-2.2,0.5c-4,0-6.7-3.3-8.2-10
				c-3.6-1.2-5.9-2.2-7-2.9c-0.5-0.4-2.1-2.4-4.6-6.1c-1.3-1.8-3.3-3.3-6-4.5l-4.6-7.7c-4-0.4-7-1.1-9.2-2.1
				c-0.9-0.7-4.3-3.6-10-8.7l-4.4-3.2c-4.4-3.5-7.5-5.8-9.4-6.9c-1.3-0.7-4.6-1.9-10-3.7l-9.4-6.3l-11.1-1.3l-6-3.2l-14,1
				c-0.1,0-2.5-0.4-7-1.1c-5.8-2.6-9.2-4-10-4c-1.5,0-3.3,0.3-5.6,0.8c-1.6,0.4-3.1,0.5-4.4,0.5c-0.3,0-1.3-0.2-3-0.5L653-1l-4,0.8
				c-2.8,1.4-4.3,2.1-4.6,2.1c-1.1,0-2.2-1.1-3.4-3.4c-2.9,2.6-9.2,6.5-18.7,11.6l-6,5.5l-7.8,3.4l-4.4,3.7
				c-6,4.1-10.3,7.5-12.9,10.3c-2.3-1.4-3.9-2.1-5-2.1s-2.6,0.5-4.6,1.6l0.8,6.6c-2.4,1.9-4,3.2-4.8,3.7c-6.2,4.6-9.7,7.5-10.4,8.7
				c-0.1,0.2-1,2.3-2.6,6.3c-0.7,1.4-5.3,6.7-13.9,15.8l-18.5,25.1l-3.8,1.8c-0.7,0.4-1.7,2.1-3.2,5.3c0.3,1.8,0.4,3.2,0.4,4.2
				c0,3.2-1.4,8.1-4.2,14.8c-3.2,7.8-6,11.9-8.6,12.4c0.1,1.9,0.2,3.6,0.2,5c0,3-1.8,10-5.4,20.9h-4.4l-5.2,9.5
				c0.9,3.5,1.4,5.9,1.4,7.1c0.3,2.3,0.9,4.7,2,7.1c0.3,0.5,0.4,1.1,0.4,1.8s-1.1,4.4-3.2,11.1c-1.7,8.8-2.6,13.3-2.6,13.5l0.2,19.5
				l-3.2,6.9c-1.2,2.8-1.8,5.5-1.8,7.9c0,0.9,0.1,2,0.4,3.4L492.1,252.3z"/>
		</g>
		<g>
			<path stroke="#000000" stroke-width="10" stroke-miterlimit="10" d="M899.1,382.7l2.7-2.9l20.6-33.8c2.2-3.7,5.3-7.6,9.2-11.6
				c4-4,6.6-6.9,7.6-8.5s2.4-4.4,4-8.5c1.8,0.4,3.3,0.5,4.5,0.5c2.4,0,5.3-3.2,8.7-9.5l-1.8-6.1c3-4,5.3-7.1,6.9-9.2
				c1.9-2.5,4.6-6.2,7.8-11.4c4-5.8,7.6-11.4,10.8-16.9l5.2-0.8c1.3-1.2,2.3-3.4,2.9-6.6c0.9-4.2,1.6-6.9,2.2-7.9
				c0.6-1.1,3.7-5.5,9.4-13.5c5.7-11.8,9.7-19.6,12.1-23.5c-3-5.3-6-9.4-9.2-12.4c-1.5-1.6-2.5-2.3-2.9-2.1l-26,10.8l-15.7-9.8
				l-9.6-2.1l-5.6-3.2l-7.2,4.8l-15.5,2.4c-1.9,0.7-4.7,3.7-8.3,9c-1.6-1.9-2.5-3.5-2.5-4.8c0-1.9,2.9-5.4,8.7-10.3
				c1.9-1.8,5.3-6.1,10.1-12.9c4,0.2,6.8,0.4,8.3,0.8c1.8,0.5,3.1,0.8,3.8,0.8c0.9,0,2.6-0.6,5.2-1.8c3.3,11.3,6.9,16.9,10.7,16.9
				c1.3,0,2.3-0.7,2.9-2.1l5.2-10l6,1.1l6-0.8l4.3,0.8l6,0.8l8.5,4l4.3-0.3l8.3-0.5l8.7-2.1l7.2,0.8l7.2-1.6c5.2-0.2,8.9-0.5,11-1.1
				c2.7-0.7,5.5-1.3,8.5-1.8c2.7,3.2,4,5.8,4,7.9c0,1.8-2.2,6.2-6.7,13.2c-6.9,9.7-11.3,16.3-13.2,19.8l-8.5,0.8
				c0,3.7-0.2,6.1-0.7,7.1s-2.3,3.8-5.6,8.2c-4,5.3-7,9.6-9,12.9l-6,2.6v2.1c-0.2,3.7-0.4,5.9-0.8,6.6c-0.4,0.7-2.8,3.6-7.3,8.7
				c-5.2,8.3-8.1,12.8-8.5,13.5c-1.3,1.4-3.5,3.3-6.5,5.5v6.1c0,0.5-1.1,2.3-3.4,5.3c-9.1,15-14.5,23.2-16.1,24.6
				c-1.9,1.6-4.9,2.4-8.7,2.4c-1.6,3.5-2.5,6.3-2.5,8.5c0,0.9,0.3,2.5,0.9,4.8c-2.8,4.8-5.8,10.6-9,17.4c3.9,0.5,6.4,0.8,7.6,0.8
				c11.2,1.1,19.2,2.8,24,5.3c3-2.3,4.7-3.4,5.2-3.4l23.1-0.8l28-2.1c0.6-0.2,2.6,0.4,6,1.8c3,1.2,7.6,2.3,13.9,3.2l1.1-1.3l0.4-5.3
				c7.8-2.5,14-4,18.6-4.8c0.6,2.5,0.9,4.6,0.9,6.3c0,1.2-0.8,3.3-2.5,6.3c-1.9,3.2-3.4,6.1-4.5,8.7h-2.7c-1.9,5.8-3.7,9.2-5.4,10
				c-0.4,0.2-2.4,0.6-5.9,1.3c-3.5,0.7-5.7,1.1-6.6,1.1s-4.9-1.2-12.1-3.7l-21.9,0.3L996,382l-7.2,1.6l-9.2,1.3
				c-3.1,0.5-5.2,0.8-6.3,0.8c-0.4,0-4.3-0.5-11.4-1.6c-5.8,2.5-11.3,3.8-16.3,4H936h-4.5c-1.5,0-5.6,0.2-12.3,0.5h-6.7
				c-2.8,0-4.8,0.1-5.8,0.3c-0.9,0.2-1.6,0.3-2.2,0.3c-1.2,0-2.4-0.7-3.6-2.1c-1.3-1.4-2-2.5-2-3.2v-1.2H899.1z"/>
		</g>
	</g>
</g>
</svg>
