<?xml version="1.0" encoding="utf-8"?>
<!-- Generator: Adobe Illustrator 18.1.0, SVG Export Plug-In . SVG Version: 6.00 Build 0)  -->
<!DOCTYPE svg PUBLIC "-//W3C//DTD SVG 1.1//EN" "http://www.w3.org/Graphics/SVG/1.1/DTD/svg11.dtd">
<svg version="1.1"
	 id="Layer_1" image-rendering="optimizeQuality" text-rendering="geometricPrecision" shape-rendering="geometricPrecision"
	 xmlns="http://www.w3.org/2000/svg" xmlns:xlink="http://www.w3.org/1999/xlink" x="0px" y="0px" width="1024px" height="1024px"
	 viewBox="256 -256 1024 1024" enable-background="new 256 -256 1024 1024" xml:space="preserve">
<g>
	<path d="M1152-128H384c-35.2,0-64,28.7-64,64v672c0,17.6,14.4,32,32,32h832c17.6,0,32-14.4,32-32V-64
		C1216-99.2,1187.2-128,1152-128z M1152,576H384V64h768V576z"/>
	<path id="curve2" d="M832,384h160c17.6,0,32,14.4,32,32v64c0,17.6-14.4,32-32,32H832c-17.6,0-32-14.4-32-32v-64
		C800,398.4,814.4,384,832,384z"/>
	<path id="curve1" d="M544,384h160c17.6,0,32,14.4,32,32v64c0,17.6-14.4,32-32,32H544c-17.6,0-32-14.4-32-32v-64
		C512,398.4,526.4,384,544,384z"/>
	<path d="M512,128v192h512V128H512z M992,288H544V160h448V288z"/>
</g>
</svg>
