<?xml version="1.0" encoding="utf-8"?>
<!-- Generator: Adobe Illustrator 18.0.0, SVG Export Plug-In . SVG Version: 6.00 Build 0)  -->
<!DOCTYPE svg PUBLIC "-//W3C//DTD SVG 1.1//EN" "http://www.w3.org/Graphics/SVG/1.1/DTD/svg11.dtd">
<svg version="1.1"
	 id="Layer_1" shape-rendering="geometricPrecision" text-rendering="geometricPrecision" image-rendering="optimizeQuality"
	 xmlns="http://www.w3.org/2000/svg" xmlns:xlink="http://www.w3.org/1999/xlink" x="0px" y="0px" width="1024px" height="1024px"
	 viewBox="0 0 1024 1024" enable-background="new 0 0 1024 1024" xml:space="preserve">
<title>door_exit icon</title>
<desc>door_exit icon from the IconExperience.com O-Collection. Copyright by INCORS GmbH (www.incors.com).</desc>
<path id="curve2" fill="#252525" d="M192,64h352v64H256v192.4l0,0c-16.7,2.3-31.1,13.2-37.7,29.2c-7.5,18-3.4,38.5,10.4,52.3
	l14.1,14.1H192V64z M544,864v32H288v-32H544z M256,864v32h-64V608h50.8l-14.1,14.1c-13.8,13.8-17.9,34.3-10.4,52.3
	c6.6,16,20.9,26.8,37.7,29.2v160.5V864z M717.1,64H832v832h-32V144.6L717.1,64z"/>
<path id="curve1" fill="#252525" d="M640,32l128,128v736l-128,64h-64V32H640z M704,544c0,17.7-7.2,32-16,32l0,0h-32l0,0l0,0
	c-8.8,0-16-14.3-16-32s7.2-32,16-32l0,0h16h16h48v32H704z"/>
<path id="curve0" fill="#252525" d="M391.8,653.9l118.6-118.6c12.5-12.5,12.4-32.8,0-45.3L391.8,371.4
	c-12.4-12.4-27.7-18.6-45.3-18.7l-83.9-0.7c-6.6-0.1-12.3,3.8-14.8,9.9c-2.5,6.1-1.2,12.8,3.5,17.4L320,448H80c-8.8,0-16,7.2-16,16
	v96c0,8.8,7.2,16,16,16h240l-68.7,68.7c-4.7,4.7-6,11.3-3.5,17.4c2.5,6.1,8.2,9.8,14.8,9.9l83.9,0.7
	C364.1,672.8,379.3,666.4,391.8,653.9L391.8,653.9z"/>
</svg>
