<svg xmlns="http://www.w3.org/2000/svg" width="1024" height="1024" shape-rendering="geometricPrecision" text-rendering="geometricPrecision" image-rendering="optimizeQuality" clip-rule="evenodd" viewBox="0 0 10240 10240"><title>history2 icon</title><desc>history2 icon from the IconExperience.com O-Collection. Copyright by INCORS GmbH (www.incors.com).</desc><path fill="#252525" d="M3200 7680h3200v640H3200v-640zm0-3843h336c21 221 65 435 130 640h-466v-640zm0 1283h748c135 234 299 449 487 640H3200v-640zm0 1280h2124c331 161 693 266 1076 304v336H3200v-640zM640 3520c0-176 144-320 320-320h640c176 0 320 144 320 320s-144 320-320 320H960c-176 0-320-144-320-320zm1280 0zM640 4800c0-176 144-320 320-320h640c176 0 320 144 320 320s-144 320-320 320H960c-176 0-320-144-320-320zm1280 0zM640 6080c0-176 144-320 320-320h640c176 0 320 144 320 320s-144 320-320 320H960c-176 0-320-144-320-320zm1280 0zM640 7360c0-176 144-320 320-320h640c176 0 320 144 320 320s-144 320-320 320H960c-176 0-320-144-320-320zm1280 0zM640 8640c0-176 144-320 320-320h640c176 0 320 144 320 320s-144 320-320 320H960c-176 0-320-144-320-320z"/><path fill="#252525" d="M1920 2560h1747c-65 205-109 419-131 640h-976v5760h4480V6704c221-22 435-66 640-131v2387c0 352-288 640-640 640H1920c-236 0-443-129-554-320h234c353 0 640-287 640-640s-287-640-640-640h-320 320c353 0 640-287 640-640s-287-640-640-640h-320 320c353 0 640-287 640-640s-287-640-640-640h-320 320c353 0 640-287 640-640s-287-640-640-640h-320 320c353 0 640-287 640-640s-287-640-640-640h-234c111-191 318-320 554-320zM6049 1721l671 1159c116 0 226 31 320 85l877-507c141 160 252 348 321 554l-878 508c0 353-287 640-640 640s-640-287-640-640c0-116 31-226 85-320l-670-1159c164-136 351-245 554-320z"/><path fill="#252525" d="M6720 640c1591 0 2880 1289 2880 2880S8311 6400 6720 6400 3840 5111 3840 3520 5129 640 6720 640zm0 640c-1237 0-2240 1003-2240 2240s1003 2240 2240 2240 2240-1003 2240-2240-1003-2240-2240-2240z"/></svg>