<svg xmlns="http://www.w3.org/2000/svg" width="1024" height="1024" shape-rendering="geometricPrecision" text-rendering="geometricPrecision" image-rendering="optimizeQuality" clip-rule="evenodd" viewBox="0 0 10240 10240"><title>keyboard_key_0 icon</title><desc>keyboard_key_0 icon from the IconExperience.com O-Collection. Copyright by INCORS GmbH (www.incors.com).</desc><path fill="#252525" d="M2560 1280h5120c705 0 1280 575 1280 1280v5120c0 705-575 1280-1280 1280H2560c-705 0-1280-575-1280-1280V2560c0-705 575-1280 1280-1280zm1280 1280h1280c176 0 337 72 452 188 116 115 188 276 188 452v1920c0 176-72 337-188 452-115 116-276 188-452 188H3840c-176 0-337-72-452-188-116-115-188-276-188-452V3200c0-176 72-337 188-452 115-116 276-188 452-188zm160 640c-88 0-160 72-160 160v1600c0 88 72 160 160 160h960c88 0 160-72 160-160V3360c0-88-72-160-160-160h-960zm-800-1280c-529 0-960 431-960 960v3840c0 529 431 960 960 960h3840c529 0 960-431 960-960V2880c0-529-431-960-960-960H3200zm0 320c-353 0-640 287-640 640v3840c0 352 288 640 640 640h3840c352 0 640-288 640-640V2880c0-352-287-640-640-640H3200z"/></svg>