<svg xmlns="http://www.w3.org/2000/svg" width="1024" height="1024" shape-rendering="geometricPrecision" text-rendering="geometricPrecision" image-rendering="optimizeQuality" clip-rule="evenodd" viewBox="0 0 10240 10240"><title>lifebelt icon</title><desc>lifebelt icon from the IconExperience.com O-Collection. Copyright by INCORS GmbH (www.incors.com).</desc><path fill="#252525" d="M5120 640c2474 0 4480 2006 4480 4480S7594 9600 5120 9600 640 7594 640 5120 2646 640 5120 640zm980 2114l490-1182c-933-387-2007-387-2940 0l490 1182c622-257 1338-258 1960 0zm1386 1386c257 622 257 1338 0 1960l1182 490c387-933 387-2007 0-2940l-1182 490zM6100 7486c-622 257-1338 257-1960 0l-490 1182c933 387 2007 387 2940 0l-490-1182zM2754 6100c-257-622-258-1338 0-1960l-1182-490c-387 933-387 2007 0 2940l1182-490zm2366-2900c-1060 0-1920 860-1920 1920s860 1920 1920 1920 1920-860 1920-1920-860-1920-1920-1920z"/></svg>