<svg xmlns="http://www.w3.org/2000/svg" width="1024" height="1024" shape-rendering="geometricPrecision" text-rendering="geometricPrecision" image-rendering="optimizeQuality" clip-rule="evenodd" viewBox="0 0 10240 10240"><title>navigate_end icon</title><desc>navigate_end icon from the IconExperience.com O-Collection. Copyright by INCORS GmbH (www.incors.com).</desc><path fill="#252525" d="M6720 1280h1280c176 0 320 144 320 320v7040c0 176-144 320-320 320H6720c-176 0-320-144-320-320V1600c0-176 144-320 320-320zM2389 1273l3620 3621c125 124 125 328 0 452L2389 8967c-125 124-328 124-453 0l-905-905c-125-125-125-328 0-453l2489-2489-2489-2489c-125-125-125-328 0-453l905-905c125-124 328-124 453 0z"/></svg>