<svg xmlns="http://www.w3.org/2000/svg" width="1024" height="1024" shape-rendering="geometricPrecision" text-rendering="geometricPrecision" image-rendering="optimizeQuality" clip-rule="evenodd" viewBox="0 0 10240 10240"><title>navigate_beginning icon</title><desc>navigate_beginning icon from the IconExperience.com O-Collection. Copyright by INCORS GmbH (www.incors.com).</desc><path fill="#252525" d="M7851 1273L4231 4894c-125 124-125 328 0 452l3620 3621c125 124 328 124 453 0l905-905c125-125 125-328 0-453L6720 5120l2489-2489c125-125 125-328 0-453l-905-905c-125-124-328-124-453 0zM3520 1280H2240c-176 0-320 144-320 320v7040c0 176 144 320 320 320h1280c176 0 320-144 320-320V1600c0-176-144-320-320-320z"/></svg>