<svg xmlns="http://www.w3.org/2000/svg" width="1024" height="1024" shape-rendering="geometricPrecision" text-rendering="geometricPrecision" image-rendering="optimizeQuality" clip-rule="evenodd" viewBox="0 0 10240 10240"><title>portable_barcode_scanner icon</title><desc>portable_barcode_scanner icon from the IconExperience.com O-Collection. Copyright by INCORS GmbH (www.incors.com).</desc><path fill="#252525" d="M1280 640h7680c353 0 640 288 640 640v5120c0 352-288 640-640 640H5440v-507l133-133h3387V1280H1280v1600c-353 0-640 287-640 640V1280c0-353 287-640 640-640z"/><path fill="#252525" d="M7040 1600h320v4480h-320V1600zm-5120 0h320v1280h-320V1600zm640 0h640v1280h-640V1600zm960 0h320v1280h-320V1600zm2240 0h-320v1366c191 111 320 318 320 554V1600zm-1280 0h640v1280h-640V1600zm3200 0h640v4462h-640V1600zm-1600 0h320v4480h-320V1600zM1280 3200h3840c176 0 320 144 320 320v2427c0 89-31 164-94 227l-132 132c-63 63-94 138-94 227v2427c0 352-288 640-640 640H1920c-352 0-640-287-640-640V6533c0-89-31-164-94-227l-132-132c-63-63-94-138-94-227V3520c0-176 144-320 320-320zm320 640v1920h3200V3840H1600zm320 2560v640h640v-640h-640zm1920 1920v640h640v-640h-640zm-960 0v640h640v-640h-640zm-960 0v640h640v-640h-640zm1920-960v640h640v-640h-640zm-960 0v640h640v-640h-640zm-960 0v640h640v-640h-640zm1920-960v640h640v-640h-640zm-960 0v640h640v-640h-640z"/></svg>