<?xml version="1.0" encoding="UTF-8"?>
<!DOCTYPE svg PUBLIC "-//W3C//DTD SVG 1.1//EN" "http://www.w3.org/Graphics/SVG/1.1/DTD/svg11.dtd">
<svg xmlns="http://www.w3.org/2000/svg" xml:space="preserve" width="1024px" height="1024px" shape-rendering="geometricPrecision" text-rendering="geometricPrecision" image-rendering="optimizeQuality" fill-rule="evenodd" clip-rule="evenodd" viewBox="0 0 10240 10240" xmlns:xlink="http://www.w3.org/1999/xlink">
	<title>tags icon</title>
	<desc>tags icon from the IconExperience.com O-Collection. Copyright by INCORS GmbH (www.incors.com).</desc>
	<path id="curve1" fill="#252525" d="M1280 1600l0 -320c0,-352 288,-640 640,-640l2715 0c176,0 328,63 453,187l3885 3885c249,249 249,656 0,905l-294 294c-34,-51 -74,-100 -119,-146l-320 -320 281 -281 -3620 -3620 -283 283c-175,-150 -387,-228 -622,-228l-881 0c-111,-191 -317,-320 -554,-320 -237,0 -444,129 -554,320l-726 0z"/>
	<path id="curve0" fill="#252525" d="M640 5275l0 -2715c0,-352 288,-640 640,-640l2715 0c176,0 328,63 453,187l3885 3885c249,249 249,656 0,905l-2715 2715c-249,249 -656,249 -905,0l-3886 -3885c-125,-125 -187,-276 -187,-453zm905 265l2715 -2715 3620 3620 -2715 2715 -3620 -3620zm375 -2980c353,0 640,287 640,640 0,353 -287,640 -640,640 -353,0 -640,-287 -640,-640 0,-353 287,-640 640,-640z"/>
</svg>
