<?xml version="1.0" encoding="UTF-8"?>
<!DOCTYPE svg PUBLIC "-//W3C//DTD SVG 1.1//EN" "http://www.w3.org/Graphics/SVG/1.1/DTD/svg11.dtd">
<svg xmlns="http://www.w3.org/2000/svg" xml:space="preserve" width="1024px" height="1024px" shape-rendering="geometricPrecision" text-rendering="geometricPrecision" image-rendering="optimizeQuality" fill-rule="evenodd" clip-rule="evenodd" viewBox="0 0 10240 10240" xmlns:xlink="http://www.w3.org/1999/xlink">
	<title>window_gear icon</title>
	<desc>window_gear icon from the IconExperience.com O-Collection. Copyright by INCORS GmbH (www.incors.com).</desc>
	<path id="curve1" fill="#252525" d="M1280 1280l7680 0c352,0 640,288 640,640l0 6720c0,176 -144,320 -320,320l-8320 0c-176,0 -320,-144 -320,-320l0 -6720c0,-353 288,-640 640,-640zm0 1920l7680 0 0 5120 -7680 0 0 -5120z"/>
	<path id="curve0" fill="#252525" d="M6136 4398c55,41 108,86 158,134 21,20 49,27 77,20l440 -120c68,-18 137,7 176,66 64,96 118,190 168,294 31,64 18,136 -33,186l-327 317c-21,20 -29,48 -22,76 16,67 27,136 35,204 3,29 20,52 46,65l414 191c64,30 100,94 93,164 -13,115 -32,221 -60,333 -17,68 -74,116 -144,121l-455 33c-29,2 -53,18 -66,44 -31,61 -66,121 -105,178 -16,24 -18,53 -6,79l194 412c30,64 16,137 -35,185 -84,80 -167,149 -261,216 -57,41 -131,41 -188,0l-369 -267c-24,-17 -52,-20 -79,-9 -63,27 -127,50 -193,69 -28,8 -48,29 -56,57l-116 440c-18,68 -75,115 -146,120 -116,7 -224,6 -340,-2 -70,-5 -127,-53 -144,-121l-111 -442c-7,-28 -27,-49 -55,-57 -65,-20 -128,-43 -190,-71 -27,-12 -55,-9 -79,8l-372 263c-58,41 -132,40 -188,-2 -94,-69 -176,-140 -259,-221 -50,-49 -63,-122 -32,-185l199 -410c13,-26 11,-55 -5,-79 -37,-56 -70,-115 -100,-175 -13,-26 -37,-42 -65,-45l-455 -38c-70,-6 -126,-54 -143,-122 -27,-113 -46,-220 -57,-336 -7,-70 30,-134 94,-163l416 -186c27,-12 44,-35 47,-64 8,-67 20,-133 36,-198 7,-28 -1,-56 -22,-76l-324 -321c-50,-50 -62,-122 -31,-186 51,-104 106,-198 172,-294 40,-58 109,-83 177,-64l438 125c28,8 56,1 77,-19 49,-46 101,-90 156,-130 23,-17 35,-43 32,-72l-42 -455c-6,-70 31,-134 95,-162 106,-47 208,-83 320,-115 68,-19 137,6 177,65l256 377c16,24 42,37 71,35 68,-4 137,-3 205,1 29,2 55,-11 71,-34l261 -375c40,-58 110,-82 177,-63 111,32 212,70 318,117 64,29 101,93 94,163l-47 453c-3,29 9,55 32,73zm-1016 722c353,0 640,287 640,640 0,353 -287,640 -640,640 -353,0 -640,-287 -640,-640 0,-353 287,-640 640,-640z"/>
</svg>
