<?xml version="1.0" encoding="utf-8"?>
<!-- Generator: Adobe Illustrator 18.0.0, SVG Export Plug-In . SVG Version: 6.00 Build 0)  -->
<!DOCTYPE svg PUBLIC "-//W3C//DTD SVG 1.1//EN" "http://www.w3.org/Graphics/SVG/1.1/DTD/svg11.dtd">
<svg version="1.1"
	 id="Layer_1" shape-rendering="geometricPrecision" text-rendering="geometricPrecision" image-rendering="optimizeQuality"
	 xmlns="http://www.w3.org/2000/svg" xmlns:xlink="http://www.w3.org/1999/xlink" x="0px" y="0px" width="1024px" height="1024px"
	 viewBox="0 0 1024 1024" enable-background="new 0 0 1024 1024" xml:space="preserve">
<path d="M512,64C264.6,64,64,264.6,64,512s200.6,448,448,448s448-200.6,448-448S759.4,64,512,64z M512,896
	c-212.1,0-384-171.9-384-384s171.9-384,384-384s384,171.9,384,384S724.1,896,512,896z"/>
<path id="curve1" d="M288.4,398.6c4.2-46,24.6-87.3,55.5-118.2c34.8-34.8,82.8-56.3,135.7-56.3h64c52.9,0,100.9,21.6,135.7,56.3
	c34.8,34.8,56.3,82.8,56.3,135.7c0,39.5-11.7,76.5-32.9,107.8c-21,31.1-51.1,55.6-87.8,70.3l-39.3,15.7v14.2c0,4.4-1.6,8.2-4.7,11.3
	c-3.1,3.1-6.9,4.7-11.3,4.7h-96c-8.8,0-16-7.2-16-16v-14c0-26.1,7.9-50.8,22.1-71.8c14.1-20.8,34.1-37.2,58.4-46.9l39.3-15.7
	c12.8-5.1,23-13.3,29.8-23.3c6.7-9.9,10.4-22.3,10.4-36.3c0-17.6-7.2-33.6-18.8-45.2s-27.6-18.8-45.2-18.8h-64
	c-17.6,0-33.6,7.2-45.2,18.8c-8.7,8.7-15,19.9-17.5,32.4c-1.5,7.5-8,12.8-15.7,12.8h-96.9c-4.7,0-8.7-1.8-11.8-5.2
	c-3.1-3.4-4.5-7.6-4.1-12.2L288.4,398.6L288.4,398.6z M463.6,672h96c8.8,0,16,7.2,16,16v96c0,8.8-7.2,16-16,16h-96
	c-8.8,0-16-7.2-16-16v-96C447.6,679.2,454.8,672,463.6,672z"/>
</svg>
