<?xml version="1.0" encoding="UTF-8"?>
<!DOCTYPE svg PUBLIC "-//W3C//DTD SVG 1.1//EN" "http://www.w3.org/Graphics/SVG/1.1/DTD/svg11.dtd">
<svg xmlns="http://www.w3.org/2000/svg" xml:space="preserve" width="1024px" height="1024px" shape-rendering="geometricPrecision" text-rendering="geometricPrecision" image-rendering="optimizeQuality" fill-rule="evenodd" clip-rule="evenodd" viewBox="0 0 10240 10240" xmlns:xlink="http://www.w3.org/1999/xlink">
	<title>find_again icon</title>
	<desc>find_again icon from the IconExperience.com O-Collection. Copyright by INCORS GmbH (www.incors.com).</desc>
	<path id="curve2" fill="#252525" d="M2560 6720c530,0 960,430 960,960 0,530 -430,960 -960,960 -530,0 -960,-430 -960,-960 0,-98 15,-193 42,-283 75,167 243,283 438,283 265,0 480,-215 480,-480 0,-195 -116,-362 -283,-438 89,-27 184,-42 283,-42zm4480 0c530,0 960,430 960,960 0,530 -430,960 -960,960 -530,0 -960,-430 -960,-960 0,-98 15,-193 42,-283 75,167 243,283 438,283 265,0 480,-215 480,-480 0,-195 -116,-362 -283,-438 89,-27 184,-42 283,-42z"/>
	<path id="curve1" fill="#252525" d="M3361 3840c315,0 659,185 882,468 175,-90 374,-141 584,-141 92,0 182,10 269,28 -27,100 -21,208 20,309 75,181 248,296 443,296l1159 0c229,0 436,-74 608,-217l1353 2125c231,363 281,712 281,972 0,1060 -860,1920 -1920,1920 -973,0 -1776,-723 -1903,-1661 -105,39 -219,61 -337,61 -119,0 -232,-22 -337,-61 -126,938 -930,1661 -1903,1661 -1060,0 -1920,-860 -1920,-1920 0,-260 50,-608 267,-950l1475 -2316c211,-331 458,-573 977,-574l2 0zm3679 2560c-707,0 -1280,573 -1280,1280 0,707 573,1280 1280,1280 707,0 1280,-573 1280,-1280 0,-707 -573,-1280 -1280,-1280zm-4480 0c707,0 1280,573 1280,1280 0,707 -573,1280 -1280,1280 -707,0 -1280,-573 -1280,-1280 0,-707 573,-1280 1280,-1280z"/>
	<path id="curve0" fill="#252525" d="M7175 827l1504 1504c125,125 125,328 0,453l-1508 1508c-125,125 -276,187 -453,187l-1159 0c-66,0 -123,-38 -148,-99 -25,-61 -12,-128 35,-174l1009 -1009 -695 2 -1732 0c-176,0 -336,72 -452,188 -41,41 -76,87 -105,137 -37,-3 -74,-5 -111,-5 -584,0 -946,247 -1248,722l-5 7 0 -409c0,-529 216,-1009 563,-1357 348,-348 828,-563 1357,-563 1085,0 1343,-2 2428,-2l-1005 -1005c-47,-47 -60,-113 -35,-174 25,-61 82,-99 148,-99l1159 0c176,0 328,63 453,187z"/>
</svg>
